<?xml version="1.0" encoding="utf-8"?>
<!-- Generator: Adobe Illustrator 27.3.1, SVG Export Plug-In . SVG Version: 6.00 Build 0)  -->
<svg version="1.1" id="Слой_1" xmlns="http://www.w3.org/2000/svg" xmlns:xlink="http://www.w3.org/1999/xlink" x="0px" y="0px"
	 viewBox="0 0 300 300" style="enable-background:new 0 0 300 300;" xml:space="preserve">
<style type="text/css">
	.st0{fill:url(#SVGID_1_);}
	.st1{fill:url(#SVGID_00000131350703756426163500000007799475376979449243_);}
	.st2{fill:url(#SVGID_00000131336410560660246670000004121277133069410944_);}
	.st3{fill:url(#SVGID_00000174574201971761380000000012028266665150202010_);}
	.st4{fill:#098256;}
	.st5{fill:url(#SVGID_00000013157893207528158870000017534130875147087008_);}
	.st6{fill:url(#SVGID_00000096747609877900476120000000637619024150666670_);}
	.st7{fill:url(#SVGID_00000029018040048367152050000017132874970303970455_);}
	.st8{fill:#4199BF;}
	.st9{fill:url(#SVGID_00000082346043981622420970000011603404025010316682_);}
	.st10{fill:url(#SVGID_00000106132828055730735980000007096126327536800907_);}
	.st11{fill:#FFFFFF;}
	.st12{fill:url(#SVGID_00000152262756105109776520000015753091649655761547_);}
	.st13{fill:#5B1B1B;}
	.st14{fill:url(#SVGID_00000147927655747518558450000007167131433752557453_);}
	.st15{fill:url(#SVGID_00000072242411280805426160000013647155585539049365_);}
	.st16{fill:#FFA08D;}
	.st17{fill:url(#SVGID_00000067928536970651838330000011944260059124433812_);}
	.st18{fill:#3794B5;}
	.st19{fill:url(#SVGID_00000061439861826432936170000011467498485169469323_);}
	.st20{fill:url(#SVGID_00000182490997580504081710000010460337348520833460_);}
</style>
<g>
	
		<linearGradient id="SVGID_1_" gradientUnits="userSpaceOnUse" x1="90.7591" y1="82.0799" x2="120.2376" y2="82.0799" gradientTransform="matrix(-1 0 0 1 298.7815 0)">
		<stop  offset="0" style="stop-color:#EFA08B"/>
		<stop  offset="0.6405" style="stop-color:#E48C78"/>
		<stop  offset="0.9948" style="stop-color:#DD7F6C"/>
	</linearGradient>
	<path class="st0" d="M197.92,61.62c-2.11-0.5-4.84,2.87-4.92,6.61c-0.08,3.74,1.38,6.44,0.29,8.17
		c-1.1,1.73-14.74,11.32-14.74,11.32l3.17,15.12c0,0,6.69-2.76,15.41-12.76c5.96-6.84,10.3-16.48,10.83-19.88
		c0.46-2.97-1.38-4.05-3.15-3.17c0.53-3.68-2.01-3.37-3.33-3.02C200.4,60.07,197.92,61.62,197.92,61.62z"/>
	
		<linearGradient id="SVGID_00000026163070458930362000000011288402222079361666_" gradientUnits="userSpaceOnUse" x1="113.7491" y1="37.7516" x2="148.9617" y2="37.7516" gradientTransform="matrix(-1 0 0 1 298.7815 0)">
		<stop  offset="0" style="stop-color:#FFC5B3"/>
		<stop  offset="0.3645" style="stop-color:#FBBBA8"/>
		<stop  offset="1" style="stop-color:#EFA08B"/>
	</linearGradient>
	<path style="fill:url(#SVGID_00000026163070458930362000000011288402222079361666_);" d="M152.31,40.7
		c-1.09-4.62-0.67-9.28-0.67-9.28s9.26-28.74,23.17-24.28c2.27,0.73,4.15,1.93,4.94,4.28c0.42,1.24,1,2.89,1.07,4.31
		c0.16,3.46-0.83,6.78-0.79,8.4c0.08,3.55,6.31,6.06,4.76,8.13c-0.51,0.68-3.54,0.94-3.35,2.38c0.14,1.05,1.25,1.46-0.04,2.57
		c0.86,1.29,0.02,1.64-0.71,2.06c-0.43,0.25-1.29,0.35-0.89,1.56c0.8,2.44,0.29,3.92-1.8,4.38c-1.35,0.3-4.37,0.76-6.83,5.19
		c-1.53,2.77,0.57,18.44,0.57,18.44l-21.92-13.07C149.82,55.76,153.4,45.32,152.31,40.7z"/>
	
		<linearGradient id="SVGID_00000083783379139343180790000014456352058122531474_" gradientUnits="userSpaceOnUse" x1="134.8342" y1="1.5329" x2="134.8342" y2="44.0403" gradientTransform="matrix(-1 0 0 1 298.7815 0)">
		<stop  offset="0" style="stop-color:#7B2B08"/>
		<stop  offset="0.0674" style="stop-color:#792A08"/>
		<stop  offset="0.5419" style="stop-color:#6C2207"/>
		<stop  offset="1" style="stop-color:#682007"/>
	</linearGradient>
	<path style="fill:url(#SVGID_00000083783379139343180790000014456352058122531474_);" d="M179.75,11.41c0,0,2.15-2.23,2.38-3.97
		c-2.11,0.08-11.07-6.52-18.81-5.86c-9.4,0.79-16.69,7.8-17.43,13.47c-0.74,5.67,1.93,16.83,3.57,19.92
		c1.64,3.09,2.97,9.07,2.97,9.07s1.89-0.97,3.22-3.15c-0.14-1.35,1.1-4.7,1.33-7.47c-1.56-3.56-3.15-7.87,0.82-8.41
		c3.03-0.41,5.56,4.45,5.56,4.45l1.39-0.79c0,0-1.43-8.34,3.03-11.18C167.69,14.13,164.89,7.73,179.75,11.41z"/>
	
		<linearGradient id="SVGID_00000096017187727416708130000015283211344683660685_" gradientUnits="userSpaceOnUse" x1="180.5495" y1="158.3219" x2="180.5495" y2="252.0036" gradientTransform="matrix(-1 0 0 1 298.7815 0)">
		<stop  offset="0" style="stop-color:#FFC5B3"/>
		<stop  offset="0.3645" style="stop-color:#FBBBA8"/>
		<stop  offset="1" style="stop-color:#EFA08B"/>
	</linearGradient>
	<path style="fill:url(#SVGID_00000096017187727416708130000015283211344683660685_);" d="M163.82,180.54
		c0,0-6.26,14.23-10.44,24.18c-4.87,11.62-13.88,10.66-23.73,15.56C117.22,226.46,78.19,252,78.19,252l-5.54-12.3
		c0,0,9.36-24.23,30.81-41.09c12.44-9.78,16.39-6.63,19.99-14.49c3.27-7.14,16.09-25.81,16.09-25.81L163.82,180.54z"/>
	<path class="st4" d="M166.19,187.45l-12.8,17.27c0,0-11.07-2.89-15.78-6.1c-9.96-6.81-14.15-14.49-14.15-14.49
		s3.58-25.81,10.26-40.19C145.89,142.84,166.19,187.45,166.19,187.45z"/>
	
		<linearGradient id="SVGID_00000114756210572666055860000012369629547234590879_" gradientUnits="userSpaceOnUse" x1="107.4595" y1="175.3177" x2="107.4595" y2="289.1576" gradientTransform="matrix(-1 0 0 1 298.7815 0)">
		<stop  offset="0" style="stop-color:#FFC5B3"/>
		<stop  offset="0.3645" style="stop-color:#FBBBA8"/>
		<stop  offset="1" style="stop-color:#EFA08B"/>
	</linearGradient>
	<path style="fill:url(#SVGID_00000114756210572666055860000012369629547234590879_);" d="M190.45,175.32
		c0,0,10.64,3.49,12.29,10.12c2.53,10.17,2.62,15.07,2.62,21.48c0,6.92,2.67,15.2,7.34,34.06c1.65,6.67,11.49,38.51,11.49,38.51
		l-12,9.68c0,0-16.69-21.93-27.14-43.21c-7.57-15.41-3.5-22.47-6.99-29.61c-3.49-7.14-19.58-25.14-19.58-25.14
		S186.56,185.11,190.45,175.32z"/>
	
		<linearGradient id="SVGID_00000134242992812056113930000012163563577974790023_" gradientUnits="userSpaceOnUse" x1="129.7502" y1="139.246" x2="129.7502" y2="207.0276" gradientTransform="matrix(-1 0 0 1 298.7815 0)">
		<stop  offset="0" style="stop-color:#15A072"/>
		<stop  offset="0.4562" style="stop-color:#119568"/>
		<stop  offset="1" style="stop-color:#098256"/>
	</linearGradient>
	<path style="fill:url(#SVGID_00000134242992812056113930000012163563577974790023_);" d="M196.59,141.58
		c-0.75,3.2-5.96,7.59-2.06,14.78c7.08,13.05,10.83,36.41,10.83,36.41s-12.25,6.34-20.57,9.95c-9.57,4.16-17.93,4.3-17.93,4.3
		s-24.42-29.95-29.9-37.89c-8.14-11.79-2.07-29.81-2.07-29.81S174.06,138.57,196.59,141.58z"/>
	
		<linearGradient id="SVGID_00000036956188254571139650000002670941243946076801_" gradientUnits="userSpaceOnUse" x1="142.0944" y1="50.358" x2="142.0944" y2="146.0202" gradientTransform="matrix(-1 0 0 1 298.7815 0)">
		<stop  offset="0" style="stop-color:#7DC7DB"/>
		<stop  offset="0.5426" style="stop-color:#65BACE"/>
		<stop  offset="1" style="stop-color:#55B1C6"/>
	</linearGradient>
	<path style="fill:url(#SVGID_00000036956188254571139650000002670941243946076801_);" d="M169.79,56.13
		c3.71,1.66,9.83,5.17,14,10.64c4.19,5.5,2.39,17.16,3.67,25.41c2.03,13.07,8.01,22.7,9.67,35.89c1.26,9.95-1.26,15.87-1.26,15.87
		s-27.91,2.08-36.73,2.08c-13.65,0-24.26-6.69-24.26-6.69s1.52-6.76,8.03-26.2c2.09-6.23-3.23-26.39-4.37-28.66
		c-2.7,1-7.34,5.23-7.34,5.23s-6.64-10.67-15.31-17.35c5.05-5.64,11.8-11.84,18.64-17.81c6.6-5.76,11.45-3.94,16.76-3.84
		c3.23,1.18,12.86,11.47,17.82,12.6C171.6,63.87,169.79,57.83,169.79,56.13z"/>
	<path class="st8" d="M138.55,84.47c0,0,9.59-4.7,13.09-1.83c3.27,2.68,3.72,7.15,1.71,13.43c-1.86,5.79-7.83,7.73-10.04,10.75
		C142.81,98.21,138.55,84.47,138.55,84.47z"/>
	
		<linearGradient id="SVGID_00000111153793902010364110000012704502450602047146_" gradientUnits="userSpaceOnUse" x1="127.0396" y1="100.0107" x2="195.3217" y2="100.0107" gradientTransform="matrix(-1 0 0 1 298.7815 0)">
		<stop  offset="0" style="stop-color:#FFC5B3"/>
		<stop  offset="0.3645" style="stop-color:#FBBBA8"/>
		<stop  offset="1" style="stop-color:#EFA08B"/>
	</linearGradient>
	<path style="fill:url(#SVGID_00000111153793902010364110000012704502450602047146_);" d="M106.19,88.42
		c2.25-4.11,11.35-14.74,11.35-14.74s3.64,2.53,7.21,6.7c3.05,3.56,6.46,9.31,6.46,9.31l-3.64,3.31c0,0,15.8,10.49,24.07,14.26
		c4.44,2.02,8.83,1.06,11.44,1.51c3.33,0.58,10.78,2.89,8.07,6.44c0.6,1.61,0.1,3.96-1.83,4.5c1.43,2.16-0.37,3.73-1.38,3.91
		c0.72,2.77-1.07,3.42-5.82,1.9c-6.07-1.94-7.22-0.34-13.04-4.71c-0.72-0.49-26.83-8.78-29.4-10.66c-3.92-2.87-12.35-7.54-14.64-9
		C101.82,99.09,104.19,92.07,106.19,88.42z"/>
	<g>
		
			<linearGradient id="SVGID_00000170965660147687403760000014446198129801746589_" gradientUnits="userSpaceOnUse" x1="50.5315" y1="282.4811" x2="98.673" y2="282.4811" gradientTransform="matrix(-1 0 0 1 298.7815 0)">
			<stop  offset="0" style="stop-color:#7DC7DB"/>
			<stop  offset="0.5426" style="stop-color:#65BACE"/>
			<stop  offset="1" style="stop-color:#55B1C6"/>
		</linearGradient>
		<path style="fill:url(#SVGID_00000170965660147687403760000014446198129801746589_);" d="M204.36,274.77
			c1.54,0.19,1.54,3.86,3.28,4.63c1.74,0.77,5.21-3.47,7.33-4.63c0.21-0.11,0.47-0.19,0.74-0.27l-0.11-0.24c0,0,0.39-2.12,2.32-4.46
			c1.93-2.34,5.4-3.67,5.4-3.67c2.36-1.27,1.25,5.1,0.5,8.57c2.35,1.49,10.2,6.36,13.32,7.02c3.69,0.77,7.87-0.64,7.87-0.64
			s1.64,2.15,2.7,4.05c1.54,2.78-0.52,4.11-3.03,5.65c-2.51,1.54-7.72,5.4-14.47,6.37c-6.75,0.96-10.48-1.93-11.9-1.35
			c-1.42,0.58-2.53,3.09-2.53,3.09s-4.53,0.26-9.5,0c-3.38-0.18-6.37-5.05-6.17-6C200.31,291.94,202.82,274.57,204.36,274.77z"/>
		<path class="st8" d="M247.72,285.13c0,0-8.32,6.82-17.1,7.4c-8.78,0.58-13.84-2.26-17.27,0.06c-3.44,2.32-11.74-0.94-11.74-0.94
			s6.43,1.94,10.91-0.31c5.11-2.57,12.16,0.04,18.43-0.39c4.27-0.29,16.21-6.78,16.21-6.78L247.72,285.13z"/>
		<path class="st11" d="M234.81,280.89c0,0-1.84,1.23-4.83,3.28c-2.99,2.05-4.56,2.46-4.56,2.46s2.05-2.46,4.56-4.46
			c0.75-0.6,3.24-2.03,3.24-2.03L234.81,280.89z"/>
		<path class="st11" d="M230.11,278.45c0,0-3.52,2.35-4.7,3.13c-1.27,0.84-4.05,3.38-4.05,3.38s2.11-3.72,3.29-4.83
			c0.82-0.77,4.14-2.45,4.14-2.45L230.11,278.45z"/>
		<path class="st11" d="M226.25,276.23c0,0-3.52,2.35-4.7,3.13c-1.27,0.84-4.03,3.38-4.03,3.38s2.1-3.72,3.27-4.83
			c0.82-0.77,4.14-2.45,4.14-2.45L226.25,276.23z"/>
	</g>
	<g>
		
			<linearGradient id="SVGID_00000033367534452338313580000000674238743417694132_" gradientUnits="userSpaceOnUse" x1="223.9976" y1="343.5544" x2="264.0482" y2="343.5544" gradientTransform="matrix(-0.8711 -0.4911 -0.4911 0.8711 450.9096 74.6582)">
			<stop  offset="0" style="stop-color:#7DC7DB"/>
			<stop  offset="0.5426" style="stop-color:#65BACE"/>
			<stop  offset="1" style="stop-color:#55B1C6"/>
		</linearGradient>
		<path style="fill:url(#SVGID_00000033367534452338313580000000674238743417694132_);" d="M59.28,234.54
			c0.97-0.01,16.71-1.97,16.85-0.42c0.14,1.55-1.68,3.08-2.07,4.94c-0.39,1.86,4.49,4.36,6.07,6.19c0.15,0.18,0.29,0.42,0.43,0.67
			l0.21-0.16c0,0,2.15-0.07,4.85,1.32c2.69,1.39,4.72,4.51,4.72,4.51c1.73,2.04-4.72,2.3-8.27,2.29c-0.96,2.62-4.07,11.31-4.05,14.5
			c0.02,3.77,2.28,7.56,2.28,7.56s-1.75,2.06-3.39,3.49c-2.39,2.09-4.13,0.36-6.17-1.77c-2.04-2.13-6.91-6.41-9.27-12.8
			c-2.37-6.4-0.32-10.65-1.19-11.91c-0.86-1.26-3.55-1.83-3.55-1.83s-1.21-4.37-2-9.28C54.18,238.5,58.31,234.55,59.28,234.54z"/>
		<path class="st8" d="M76.9,279.44c0,0-8.42-6.7-10.84-15.16c-2.42-8.46-0.71-14-3.69-16.87c-2.99-2.87-1.55-11.67-1.55-11.67
			s-0.54,6.7,2.6,10.6c3.59,4.46,2.53,11.89,4.26,17.93c1.18,4.12,10.04,14.42,10.04,14.42L76.9,279.44z"/>
		<path class="st11" d="M78.32,265.92c0,0-1.59-1.54-4.22-4.03c-2.63-2.49-3.37-3.94-3.37-3.94s2.84,1.48,5.32,3.51
			c0.74,0.6,2.67,2.74,2.67,2.74L78.32,265.92z"/>
		<path class="st11" d="M79.72,260.82c0,0-3.04-2.95-4.05-3.93c-1.09-1.06-4.15-3.24-4.15-3.24s4.08,1.28,5.42,2.2
			c0.93,0.64,3.27,3.53,3.27,3.53L79.72,260.82z"/>
		<path class="st11" d="M81.07,256.58c0,0-3.04-2.95-4.05-3.93c-1.09-1.06-4.15-3.23-4.15-3.23s4.08,1.27,5.41,2.18
			c0.93,0.64,3.27,3.53,3.27,3.53L81.07,256.58z"/>
	</g>
	<path class="st13" d="M177.29,16.66c1.15,0.06,2.62,0.81,1.64,1.32c-0.53,0.28-2.17-0.01-4.03,0.71c-1.91,0.74-4.61,2.92-4.61,2.92
		S172.48,16.4,177.29,16.66z"/>
	
		<linearGradient id="SVGID_00000133514457848335357910000012337554269243473298_" gradientUnits="userSpaceOnUse" x1="139.6425" y1="33.3144" x2="139.6425" y2="26.4603" gradientTransform="matrix(-1 0 0 1 298.7815 0)">
		<stop  offset="0" style="stop-color:#EFA08B"/>
		<stop  offset="0.2778" style="stop-color:#E7917D"/>
		<stop  offset="0.6579" style="stop-color:#E08470"/>
		<stop  offset="0.9948" style="stop-color:#DD7F6C"/>
	</linearGradient>
	<path style="fill:url(#SVGID_00000133514457848335357910000012337554269243473298_);" d="M161.62,29.94c0,0-2.13-4.02-3.62-3.41
		c-1.49,0.61-1.34,2.99-1.34,2.99s1.19-1.25,2.31-0.7c1.12,0.55,0.14,1.71,0,2.19c-0.47,1.54,1.59,2.31,1.59,2.31
		s-0.31-1.57-0.17-2.32C160.53,30.15,161.62,29.94,161.62,29.94z"/>
	
		<linearGradient id="SVGID_00000088811574176821377970000008655239653748534714_" gradientUnits="userSpaceOnUse" x1="129.7981" y1="43.1322" x2="141.0587" y2="43.1322" gradientTransform="matrix(-1 0 0 1 298.7815 0)">
		<stop  offset="0" style="stop-color:#EFA08B"/>
		<stop  offset="0.6405" style="stop-color:#E48C78"/>
		<stop  offset="0.9948" style="stop-color:#DD7F6C"/>
	</linearGradient>
	<path style="fill:url(#SVGID_00000088811574176821377970000008655239653748534714_);" d="M168.98,45.94c0,0-3.93-0.94-5.63-2.1
		c-2.57-1.74-5.63-4.19-5.63-4.19s1.9,3.92,3.83,5.54C164.39,47.58,167.83,46.31,168.98,45.94z"/>
	<path class="st16" d="M196.48,198.62c0,0,2.17,3.47,1.88,4.88c-0.22,1.03-2.49,3.42-2.49,3.42L196.48,198.62z"/>
	
		<linearGradient id="SVGID_00000093165153434661455460000011779007776593110938_" gradientUnits="userSpaceOnUse" x1="186.1136" y1="99.371" x2="190.4763" y2="99.371" gradientTransform="matrix(-1 0 0 1 298.7815 0)">
		<stop  offset="0" style="stop-color:#EFA08B"/>
		<stop  offset="0.0862" style="stop-color:#ED9C87"/>
		<stop  offset="0.6354" style="stop-color:#E18773"/>
		<stop  offset="0.9948" style="stop-color:#DD7F6C"/>
	</linearGradient>
	<path style="fill:url(#SVGID_00000093165153434661455460000011779007776593110938_);" d="M108.31,97.77
		c2.97-0.48,4.36,3.25,4.36,3.25S108.21,99.91,108.31,97.77z"/>
	<path class="st11" d="M177.23,22.58c0,0,0.36,1.77,0.14,2.46c-0.37,1.13-1.62,1.16-2.61,0.92c-0.99-0.25-1.9-0.99-1.9-0.99
		l2.4-1.43L177.23,22.58z"/>
	<path class="st18" d="M177.44,22.67c0,0,0.44,2.62-0.54,2.99c-1.34,0.5-1.22-2.14-1.22-2.14L177.44,22.67z"/>
	<path class="st13" d="M176.25,24.33c0,0.37,0.19,0.68,0.43,0.68c0.24,0,0.43-0.3,0.43-0.68c0-0.37-0.19-0.68-0.43-0.68
		C176.45,23.65,176.25,23.96,176.25,24.33z"/>
	<path class="st11" d="M176.59,23.76c0,0.27,0.14,0.5,0.32,0.5c0.18,0,0.32-0.22,0.32-0.5c0-0.27-0.14-0.5-0.32-0.5
		C176.74,23.27,176.59,23.49,176.59,23.76z"/>
	<path class="st16" d="M182.69,32.25c0,0-0.18,0.39-0.78,0.94c-0.6,0.55-1.09,0-0.6-0.47C181.81,32.25,182.69,32.25,182.69,32.25z"
		/>
	<path class="st16" d="M181.11,37.15c0,0-1.93,0.84-2.72,0.45c-0.48-0.24-0.87-0.49-0.05-0.47
		C179.63,37.16,181.11,37.15,181.11,37.15z"/>
	<path class="st13" d="M177.57,21.75c0.24-0.17,0.64,0.25,0.39,0.61c-0.54,0.78-1.92,1.52-3,2c-1.09,0.49-2.52,0.68-2.52,0.68
		S176.09,22.79,177.57,21.75z"/>
	
		<linearGradient id="SVGID_00000119821212922584851580000008616739469033476482_" gradientUnits="userSpaceOnUse" x1="120.9182" y1="21.7979" x2="125.3398" y2="21.7979" gradientTransform="matrix(-1 0 0 1 298.7815 0)">
		<stop  offset="0" style="stop-color:#EFA08B"/>
		<stop  offset="0.156" style="stop-color:#EB9984"/>
		<stop  offset="0.6493" style="stop-color:#E18672"/>
		<stop  offset="0.9948" style="stop-color:#DD7F6C"/>
	</linearGradient>
	<path style="fill:url(#SVGID_00000119821212922584851580000008616739469033476482_);" d="M177.86,20.69c0,0-1.33,0.93-2.34,1.49
		c-1,0.56-2.08,1.09-2.08,1.09s2.75-2.39,3.47-2.76C177.86,20.02,177.86,20.69,177.86,20.69z"/>
	
		<linearGradient id="SVGID_00000034790407561501054370000013460968614377976231_" gradientUnits="userSpaceOnUse" x1="116.0917" y1="14.1726" x2="153.3776" y2="14.1726" gradientTransform="matrix(-1 0 0 1 298.7815 0)">
		<stop  offset="0" style="stop-color:#B24E2B"/>
		<stop  offset="0.3843" style="stop-color:#AA4727"/>
		<stop  offset="1" style="stop-color:#A34123"/>
	</linearGradient>
	<path style="fill:url(#SVGID_00000034790407561501054370000013460968614377976231_);" d="M182.69,7.64l-1.3,1.63
		c0,0-8.81-5.05-14.41-6.2c-5.82-1.19-9.6,0.16-12.65,2.55c-2.6,2.04-6.81,6.18-7.12,9.91c-0.47,5.61-0.13,11.81-0.13,11.81
		s-4.8-11.46,1.85-19.05C155.59,0.7,163-0.09,169.18,2C173.73,3.54,182.69,7.64,182.69,7.64z"/>
</g>
</svg>
