<?xml version="1.0" encoding="utf-8"?>
<!-- Generator: Adobe Illustrator 27.3.1, SVG Export Plug-In . SVG Version: 6.00 Build 0)  -->
<svg version="1.1" id="Слой_1" xmlns="http://www.w3.org/2000/svg" xmlns:xlink="http://www.w3.org/1999/xlink" x="0px" y="0px"
	 viewBox="0 0 300 300" style="enable-background:new 0 0 300 300;" xml:space="preserve">
<style type="text/css">
	.st0{fill:url(#SVGID_1_);}
	.st1{fill:url(#SVGID_00000071549272400647521180000007750266322611581375_);}
	.st2{fill:url(#SVGID_00000103976795689771824190000001056708036854757023_);}
	.st3{fill:url(#SVGID_00000003096824613181744340000006412678924297705633_);}
	.st4{fill:#098256;}
	.st5{fill:url(#SVGID_00000054949641370492244050000017448674345442714810_);}
	.st6{fill:url(#SVGID_00000147182331558861024480000006678704928317529506_);}
	.st7{fill:url(#SVGID_00000080174756983232867860000001418517385516777099_);}
	.st8{fill:#4199BF;}
	.st9{fill:url(#SVGID_00000162336002780320728080000008800380164171310501_);}
	.st10{fill:url(#SVGID_00000067234516371583161410000016175376251129514915_);}
	.st11{fill:#FFFFFF;}
	.st12{fill:url(#SVGID_00000104698527901495683140000000612325754094907310_);}
	.st13{fill:#5B1B1B;}
	.st14{fill:url(#SVGID_00000116196839567292113810000009601474568190006699_);}
	.st15{fill:url(#SVGID_00000173134792612395085540000003775239164490650788_);}
	.st16{fill:#FFA08D;}
	.st17{fill:url(#SVGID_00000015342645296907732920000015324220053959120816_);}
	.st18{fill:#3794B5;}
	.st19{fill:url(#SVGID_00000097484241803548384980000006870697182988828840_);}
	.st20{fill:url(#SVGID_00000123421032623453371540000016725839008939985037_);}
</style>
<g>
	
		<linearGradient id="SVGID_1_" gradientUnits="userSpaceOnUse" x1="91.8713" y1="86.0678" x2="121.3498" y2="86.0678" gradientTransform="matrix(-1 0 0 1 298.7815 0)">
		<stop  offset="0" style="stop-color:#EFA08B"/>
		<stop  offset="0.6405" style="stop-color:#E48C78"/>
		<stop  offset="0.9948" style="stop-color:#DD7F6C"/>
	</linearGradient>
	<path class="st0" d="M196.81,65.61c-2.11-0.5-4.84,2.87-4.92,6.61c-0.08,3.74,1.38,6.44,0.29,8.17
		c-1.1,1.73-14.74,11.32-14.74,11.32l3.17,15.12c0,0,14.3-9.4,19.57-17.13c5.11-7.49,6.14-12.11,6.67-15.51
		c0.46-2.97-1.38-4.05-3.15-3.17c0.53-3.68-2.01-3.37-3.33-3.02C199.29,64.06,196.81,65.61,196.81,65.61z"/>
	
		<linearGradient id="SVGID_00000147934881257239818410000016147023535988983953_" gradientUnits="userSpaceOnUse" x1="113.761" y1="34.9867" x2="147.15" y2="34.9867" gradientTransform="matrix(-1 0 0 1 298.7815 0)">
		<stop  offset="0" style="stop-color:#FFC5B3"/>
		<stop  offset="0.3645" style="stop-color:#FBBBA8"/>
		<stop  offset="1" style="stop-color:#EFA08B"/>
	</linearGradient>
	<path style="fill:url(#SVGID_00000147934881257239818410000016147023535988983953_);" d="M153.28,40.55
		c-1.09-4.62-1.65-9.13-1.65-9.13s9.26-28.74,23.17-24.28c2.27,0.73,4.15,1.93,4.94,4.28c0.42,1.24,1,2.89,1.07,4.31
		c0.16,3.46-0.83,6.78-0.79,8.4c0.08,3.55,6.31,6.06,4.76,8.13c-0.51,0.68-3.54,0.94-3.35,2.38c0.14,1.05,1.25,1.46-0.04,2.57
		c0.86,1.29,0.02,1.64-0.71,2.06c-0.43,0.25-1.29,0.35-0.89,1.56c0.8,2.44,0.29,3.92-1.8,4.38c-1.35,0.3-7.02,0.26-7.73,3.25
		c-0.73,3.08-1.17,14.86-1.17,14.86l-17.47-8C151.63,55.31,154.37,45.18,153.28,40.55z"/>
	
		<linearGradient id="SVGID_00000097485475760049314000000004885084800610033030_" gradientUnits="userSpaceOnUse" x1="134.846" y1="1.5329" x2="134.846" y2="44.0403" gradientTransform="matrix(-1 0 0 1 298.7815 0)">
		<stop  offset="0" style="stop-color:#7B2B08"/>
		<stop  offset="0.0674" style="stop-color:#792A08"/>
		<stop  offset="0.5419" style="stop-color:#6C2207"/>
		<stop  offset="1" style="stop-color:#682007"/>
	</linearGradient>
	<path style="fill:url(#SVGID_00000097485475760049314000000004885084800610033030_);" d="M179.74,11.41c0,0,2.15-2.23,2.38-3.97
		c-2.11,0.08-11.07-6.52-18.81-5.86c-9.4,0.79-16.69,7.8-17.43,13.47c-0.74,5.67,1.93,16.83,3.57,19.92
		c1.64,3.09,4.01,9.07,4.01,9.07s0.85-0.97,2.18-3.15c-0.14-1.35,1.1-4.7,1.33-7.47c-1.56-3.56-3.15-7.87,0.82-8.41
		c3.03-0.41,5.56,4.45,5.56,4.45l1.39-0.79c0,0-1.43-8.34,3.03-11.18C167.68,14.13,164.88,7.73,179.74,11.41z"/>
	
		<linearGradient id="SVGID_00000041294983156106406010000017038055109595060115_" gradientUnits="userSpaceOnUse" x1="180.5615" y1="158.3219" x2="180.5615" y2="252.0036" gradientTransform="matrix(-1 0 0 1 298.7815 0)">
		<stop  offset="0" style="stop-color:#FFC5B3"/>
		<stop  offset="0.3645" style="stop-color:#FBBBA8"/>
		<stop  offset="1" style="stop-color:#EFA08B"/>
	</linearGradient>
	<path style="fill:url(#SVGID_00000041294983156106406010000017038055109595060115_);" d="M163.81,180.54
		c0,0-12.23,11.01-17.83,20.23c-3.13,5.16-5.89,9.08-8.4,11.89c-2.51,2.82-3.08,3.18-6.97,4.43C117.39,221.34,78.18,252,78.18,252
		l-5.54-12.3c0,0,10.46-14.73,23.12-27.52c5.98-6.04,8.3-7.39,12.79-9.83c5.02-2.73,11.63-6.97,15.24-14.83
		c3.27-7.14,15.74-29.21,15.74-29.21L163.81,180.54z"/>
	<path class="st4" d="M166.17,187.45l-16.45,13.48c0,0-4.89-1.29-9.25-4.97c-6.69-5.66-13.55-16.81-13.55-16.81l15.16-30.07
		L166.17,187.45z"/>
	
		<linearGradient id="SVGID_00000127043967389622210930000017579661965862174094_" gradientUnits="userSpaceOnUse" x1="103.6112" y1="175.3177" x2="103.6112" y2="289.1576" gradientTransform="matrix(-1 0 0 1 298.7815 0)">
		<stop  offset="0" style="stop-color:#FFC5B3"/>
		<stop  offset="0.3645" style="stop-color:#FBBBA8"/>
		<stop  offset="1" style="stop-color:#EFA08B"/>
	</linearGradient>
	<path style="fill:url(#SVGID_00000127043967389622210930000017579661965862174094_);" d="M190.43,175.32c0,0,4.8,9.96,7.64,16.17
		c3.08,6.73,4.83,10.06,4.83,16.47c0,6.92,1.5,17.86,7.95,34.8c2.45,6.42,13.31,36.72,13.31,36.72l-12,9.68
		c0,0-15.05-23.24-25.51-44.52c-7.57-15.41-5.74-27.2-9.22-34.34c-3.49-7.14-11.26-15.95-11.26-15.95S186.55,185.11,190.43,175.32z"
		/>
	
		<linearGradient id="SVGID_00000139987168759179959290000018192566689813521029_" gradientUnits="userSpaceOnUse" x1="131.1728" y1="139.331" x2="131.1728" y2="204.7236" gradientTransform="matrix(-1 0 0 1 298.7815 0)">
		<stop  offset="0" style="stop-color:#15A072"/>
		<stop  offset="0.4562" style="stop-color:#119568"/>
		<stop  offset="1" style="stop-color:#098256"/>
	</linearGradient>
	<path style="fill:url(#SVGID_00000139987168759179959290000018192566689813521029_);" d="M182.13,143.54c0,0,3.65,13.83,4.37,15.57
		c5.67,13.72,11.58,32.38,11.58,32.38s-3.38,5.31-11.7,8.93c-9.57,4.16-17.93,4.3-17.93,4.3s-17.57-26.19-23.05-34.13
		c-8.14-11.79-8.25-31.26-8.25-31.26L182.13,143.54z"/>
	
		<linearGradient id="SVGID_00000124136385673438943730000018305139624983561603_" gradientUnits="userSpaceOnUse" x1="144.312" y1="50.7537" x2="144.312" y2="146.0202" gradientTransform="matrix(-1 0 0 1 298.7815 0)">
		<stop  offset="0" style="stop-color:#7DC7DB"/>
		<stop  offset="0.5426" style="stop-color:#65BACE"/>
		<stop  offset="1" style="stop-color:#55B1C6"/>
	</linearGradient>
	<path style="fill:url(#SVGID_00000124136385673438943730000018305139624983561603_);" d="M169.01,57.61
		c3.71,1.66,9.02,3.9,13.46,9.14c3.17,3.75,2.71,16.28,3.99,24.53c2.03,13.07,3.42,24.52,1.06,36.78
		c-1.38,7.16-5.39,15.48-5.39,15.48s-14.18,2.48-23,2.48c-13.65,0-21.98-6.69-21.98-6.69s-0.76-6.76,5.76-26.2
		c2.09-6.23-3.23-26.39-4.37-28.66c-2.7,1-7.34,5.23-7.34,5.23s-2.34-9.34-11.02-16.01c5.05-5.64,8.52-9.43,14.59-16.35
		c5.78-6.58,12.59-6.67,17.89-6.57c3.23,1.18,10.21,7.51,13.51,8.94C168.52,60.72,169.01,59.32,169.01,57.61z"/>
	<path class="st8" d="M138.54,84.47c0,0,9.59-4.7,13.09-1.83c3.27,2.68,3.72,7.15,1.71,13.43c-1.86,5.79-7.82,7.73-10.04,10.75
		C142.8,98.21,138.54,84.47,138.54,84.47z"/>
	
		<linearGradient id="SVGID_00000026137742681985364140000006045533090528461228_" gradientUnits="userSpaceOnUse" x1="127.0515" y1="99.6107" x2="192.6029" y2="99.6107" gradientTransform="matrix(-1 0 0 1 298.7815 0)">
		<stop  offset="0" style="stop-color:#FFC5B3"/>
		<stop  offset="0.3645" style="stop-color:#FBBBA8"/>
		<stop  offset="1" style="stop-color:#EFA08B"/>
	</linearGradient>
	<path style="fill:url(#SVGID_00000026137742681985364140000006045533090528461228_);" d="M108.33,90.08
		c2.25-4.11,11.85-16.39,11.85-16.39s2.68,0.92,6.25,5.09c3.05,3.56,4.76,10.93,4.76,10.93l-3.64,3.31c0,0,15.8,10.49,24.07,14.26
		c4.44,2.02,8.83,1.06,11.44,1.51c3.33,0.58,10.78,2.89,8.07,6.44c0.6,1.61,0.1,3.96-1.83,4.5c1.43,2.16-0.37,3.73-1.38,3.91
		c0.72,2.77-1.58,2.1-6.33,0.58c-6.07-1.94-8.27-0.86-14.1-5.23c-0.72-0.49-5.74-1.48-8.97-2.45c-14.43-4.32-15.79-5.72-18.36-7.6
		c-3.92-2.87-9.83-7.87-12.12-9.33C104.83,97.54,106.33,93.73,108.33,90.08z"/>
	<g>
		
			<linearGradient id="SVGID_00000075869808259300120420000000858067901436170919_" gradientUnits="userSpaceOnUse" x1="50.5436" y1="282.4811" x2="98.6849" y2="282.4811" gradientTransform="matrix(-1 0 0 1 298.7815 0)">
			<stop  offset="0" style="stop-color:#7DC7DB"/>
			<stop  offset="0.5426" style="stop-color:#65BACE"/>
			<stop  offset="1" style="stop-color:#55B1C6"/>
		</linearGradient>
		<path style="fill:url(#SVGID_00000075869808259300120420000000858067901436170919_);" d="M204.35,274.77
			c1.54,0.19,1.54,3.86,3.28,4.63c1.74,0.77,5.21-3.47,7.33-4.63c0.21-0.11,0.47-0.19,0.74-0.27l-0.11-0.24c0,0,0.39-2.12,2.32-4.46
			c1.93-2.34,5.4-3.67,5.4-3.67c2.36-1.27,1.25,5.1,0.5,8.57c2.35,1.49,10.2,6.36,13.32,7.02c3.69,0.77,7.87-0.64,7.87-0.64
			s1.64,2.15,2.7,4.05c1.54,2.78-0.52,4.11-3.03,5.65c-2.51,1.54-7.72,5.4-14.47,6.37c-6.75,0.96-10.48-1.93-11.9-1.35
			c-1.42,0.58-2.53,3.09-2.53,3.09s-4.53,0.26-9.5,0c-3.38-0.18-6.37-5.05-6.17-6C200.3,291.94,202.81,274.57,204.35,274.77z"/>
		<path class="st8" d="M247.71,285.13c0,0-8.32,6.82-17.1,7.4c-8.78,0.58-13.84-2.26-17.27,0.06s-11.74-0.94-11.74-0.94
			s6.43,1.94,10.91-0.31c5.11-2.57,12.16,0.04,18.43-0.39c4.27-0.29,16.21-6.78,16.21-6.78L247.71,285.13z"/>
		<path class="st11" d="M234.8,280.89c0,0-1.84,1.23-4.83,3.28c-2.99,2.05-4.56,2.46-4.56,2.46s2.05-2.46,4.56-4.46
			c0.75-0.6,3.24-2.03,3.24-2.03L234.8,280.89z"/>
		<path class="st11" d="M230.1,278.45c0,0-3.52,2.35-4.69,3.13c-1.27,0.84-4.05,3.38-4.05,3.38s2.11-3.72,3.29-4.83
			c0.82-0.77,4.14-2.45,4.14-2.45L230.1,278.45z"/>
		<path class="st11" d="M226.24,276.23c0,0-3.52,2.35-4.69,3.13c-1.27,0.84-4.03,3.38-4.03,3.38s2.1-3.72,3.27-4.83
			c0.82-0.77,4.14-2.45,4.14-2.45L226.24,276.23z"/>
	</g>
	<g>
		
			<linearGradient id="SVGID_00000098185687058743334530000016845141673038923708_" gradientUnits="userSpaceOnUse" x1="224.0079" y1="343.5225" x2="264.0586" y2="343.5225" gradientTransform="matrix(-0.8711 -0.4911 -0.4911 0.8711 450.9096 74.6582)">
			<stop  offset="0" style="stop-color:#7DC7DB"/>
			<stop  offset="0.5426" style="stop-color:#65BACE"/>
			<stop  offset="1" style="stop-color:#55B1C6"/>
		</linearGradient>
		<path style="fill:url(#SVGID_00000098185687058743334530000016845141673038923708_);" d="M59.27,234.54
			c0.97-0.01,17.24-1.76,17.38-0.21c0.14,1.55-2.22,2.87-2.6,4.73c-0.39,1.86,4.49,4.36,6.07,6.19c0.15,0.18,0.29,0.42,0.43,0.67
			l0.21-0.16c0,0,2.15-0.07,4.85,1.32c2.69,1.39,4.72,4.51,4.72,4.51c1.73,2.04-4.72,2.3-8.27,2.29c-0.96,2.62-4.07,11.31-4.05,14.5
			c0.02,3.77,2.28,7.56,2.28,7.56s-1.75,2.06-3.39,3.49c-2.39,2.09-4.13,0.36-6.17-1.77c-2.04-2.13-6.91-6.41-9.27-12.8
			c-2.37-6.4-0.32-10.65-1.19-11.91c-0.86-1.26-3.55-1.83-3.55-1.83s-1.21-4.37-2-9.28C54.17,238.5,58.3,234.55,59.27,234.54z"/>
		<path class="st8" d="M76.89,279.44c0,0-8.42-6.7-10.84-15.16c-2.42-8.46-0.71-14-3.69-16.87c-2.99-2.87-1.55-11.67-1.55-11.67
			s-0.54,6.7,2.6,10.6c3.59,4.46,2.53,11.89,4.26,17.93c1.18,4.12,10.04,14.42,10.04,14.42L76.89,279.44z"/>
		<path class="st11" d="M78.31,265.92c0,0-1.59-1.54-4.22-4.03c-2.63-2.49-3.37-3.94-3.37-3.94s2.84,1.48,5.32,3.51
			c0.74,0.6,2.67,2.74,2.67,2.74L78.31,265.92z"/>
		<path class="st11" d="M79.7,260.82c0,0-3.04-2.95-4.05-3.93c-1.09-1.06-4.15-3.24-4.15-3.24s4.08,1.28,5.42,2.2
			c0.93,0.64,3.27,3.53,3.27,3.53L79.7,260.82z"/>
		<path class="st11" d="M81.06,256.58c0,0-3.04-2.95-4.05-3.93c-1.09-1.06-4.15-3.23-4.15-3.23s4.08,1.27,5.41,2.18
			c0.93,0.64,3.27,3.53,3.27,3.53L81.06,256.58z"/>
	</g>
	<path class="st13" d="M177.27,16.66c1.15,0.06,2.62,0.81,1.64,1.32c-0.53,0.28-2.17-0.01-4.03,0.71c-1.91,0.74-4.61,2.92-4.61,2.92
		S172.47,16.4,177.27,16.66z"/>
	
		<linearGradient id="SVGID_00000050661889851017863450000007186728117623912368_" gradientUnits="userSpaceOnUse" x1="139.6545" y1="33.3144" x2="139.6545" y2="26.4603" gradientTransform="matrix(-1 0 0 1 298.7815 0)">
		<stop  offset="0" style="stop-color:#EFA08B"/>
		<stop  offset="0.2778" style="stop-color:#E7917D"/>
		<stop  offset="0.6579" style="stop-color:#E08470"/>
		<stop  offset="0.9948" style="stop-color:#DD7F6C"/>
	</linearGradient>
	<path style="fill:url(#SVGID_00000050661889851017863450000007186728117623912368_);" d="M161.61,29.94c0,0-2.13-4.02-3.62-3.41
		c-1.49,0.61-1.34,2.99-1.34,2.99s1.19-1.25,2.3-0.7c1.12,0.55,0.15,1.71,0,2.19c-0.47,1.54,1.59,2.31,1.59,2.31
		s-0.31-1.57-0.17-2.32C160.52,30.15,161.61,29.94,161.61,29.94z"/>
	
		<linearGradient id="SVGID_00000181777706041024172210000009448830320392052919_" gradientUnits="userSpaceOnUse" x1="128.3906" y1="40.5382" x2="142.1371" y2="40.5382" gradientTransform="matrix(-1 0 0 1 298.7815 0)">
		<stop  offset="0" style="stop-color:#EFA08B"/>
		<stop  offset="0.6405" style="stop-color:#E48C78"/>
		<stop  offset="0.9948" style="stop-color:#DD7F6C"/>
	</linearGradient>
	<path style="fill:url(#SVGID_00000181777706041024172210000009448830320392052919_);" d="M170.39,45.37c0,0-4.25-2.24-6.46-3.98
		c-3.32-2.61-7.29-6.28-7.29-6.28s2.46,5.87,4.97,8.31C165.28,47,168.9,45.92,170.39,45.37z"/>
	<path class="st16" d="M197.72,203.6c0,0,2.17,3.47,1.88,4.88c-0.22,1.03-2.49,3.42-2.49,3.42L197.72,203.6z"/>
	
		<linearGradient id="SVGID_00000144301995138077595180000017538007282205088149_" gradientUnits="userSpaceOnUse" x1="182.8947" y1="97.7235" x2="187.2571" y2="97.7235" gradientTransform="matrix(-1 0 0 1 298.7815 0)">
		<stop  offset="0" style="stop-color:#EFA08B"/>
		<stop  offset="0.0862" style="stop-color:#ED9C87"/>
		<stop  offset="0.6354" style="stop-color:#E18773"/>
		<stop  offset="0.9948" style="stop-color:#DD7F6C"/>
	</linearGradient>
	<path style="fill:url(#SVGID_00000144301995138077595180000017538007282205088149_);" d="M111.53,96.12
		c2.97-0.48,4.36,3.25,4.36,3.25S111.43,98.26,111.53,96.12z"/>
	<path class="st11" d="M177.22,22.58c0,0,0.36,1.77,0.14,2.46c-0.37,1.13-1.62,1.16-2.61,0.92c-0.99-0.25-1.9-0.99-1.9-0.99
		l2.4-1.43L177.22,22.58z"/>
	<path class="st18" d="M177.43,22.67c0,0,0.44,2.62-0.54,2.99c-1.34,0.5-1.22-2.14-1.22-2.14L177.43,22.67z"/>
	<path class="st13" d="M176.24,24.33c0,0.37,0.19,0.68,0.43,0.68c0.24,0,0.43-0.3,0.43-0.68c0-0.37-0.19-0.68-0.43-0.68
		C176.43,23.65,176.24,23.96,176.24,24.33z"/>
	<path class="st11" d="M176.58,23.76c0,0.27,0.14,0.5,0.32,0.5s0.32-0.22,0.32-0.5c0-0.27-0.14-0.5-0.32-0.5
		S176.58,23.49,176.58,23.76z"/>
	<path class="st16" d="M182.68,32.25c0,0-0.18,0.39-0.78,0.94c-0.6,0.55-1.09,0-0.6-0.47C181.8,32.25,182.68,32.25,182.68,32.25z"/>
	<path class="st16" d="M181.1,37.15c0,0-1.93,0.84-2.72,0.45c-0.48-0.24-0.87-0.49-0.05-0.47C179.61,37.16,181.1,37.15,181.1,37.15z
		"/>
	<path class="st13" d="M177.56,21.75c0.24-0.17,0.64,0.25,0.39,0.61c-0.54,0.78-1.92,1.52-3,2c-1.09,0.49-2.52,0.68-2.52,0.68
		S176.07,22.79,177.56,21.75z"/>
	
		<linearGradient id="SVGID_00000174597119754306384960000005309493263831871152_" gradientUnits="userSpaceOnUse" x1="120.9303" y1="21.7979" x2="125.352" y2="21.7979" gradientTransform="matrix(-1 0 0 1 298.7815 0)">
		<stop  offset="0" style="stop-color:#EFA08B"/>
		<stop  offset="0.156" style="stop-color:#EB9984"/>
		<stop  offset="0.6493" style="stop-color:#E18672"/>
		<stop  offset="0.9948" style="stop-color:#DD7F6C"/>
	</linearGradient>
	<path style="fill:url(#SVGID_00000174597119754306384960000005309493263831871152_);" d="M177.85,20.69c0,0-1.33,0.93-2.34,1.49
		c-1,0.56-2.08,1.09-2.08,1.09s2.75-2.39,3.47-2.76C177.85,20.02,177.85,20.69,177.85,20.69z"/>
	
		<linearGradient id="SVGID_00000179648184762650766120000004429473266609558184_" gradientUnits="userSpaceOnUse" x1="116.1036" y1="14.1726" x2="153.3894" y2="14.1726" gradientTransform="matrix(-1 0 0 1 298.7815 0)">
		<stop  offset="0" style="stop-color:#B24E2B"/>
		<stop  offset="0.3843" style="stop-color:#AA4727"/>
		<stop  offset="1" style="stop-color:#A34123"/>
	</linearGradient>
	<path style="fill:url(#SVGID_00000179648184762650766120000004429473266609558184_);" d="M182.68,7.64l-1.3,1.63
		c0,0-8.81-5.05-14.41-6.2c-5.82-1.19-9.6,0.16-12.65,2.55c-2.6,2.04-6.81,6.18-7.12,9.91c-0.48,5.61-0.13,11.81-0.13,11.81
		s-4.8-11.46,1.85-19.05c6.65-7.59,14.07-8.38,20.25-6.29C173.72,3.54,182.68,7.64,182.68,7.64z"/>
</g>
</svg>
