<?xml version="1.0" encoding="utf-8"?>
<!-- Generator: Adobe Illustrator 27.3.1, SVG Export Plug-In . SVG Version: 6.00 Build 0)  -->
<svg version="1.1" id="Слой_1" xmlns="http://www.w3.org/2000/svg" xmlns:xlink="http://www.w3.org/1999/xlink" x="0px" y="0px"
	 viewBox="0 0 300 300" style="enable-background:new 0 0 300 300;" xml:space="preserve">
<style type="text/css">
	.st0{fill:url(#SVGID_1_);}
	.st1{fill:url(#SVGID_00000169518282743927013210000002007939291603198344_);}
	.st2{fill:url(#SVGID_00000124146099828348637260000015582892243188031367_);}
	.st3{fill:url(#SVGID_00000117676007807258770370000015654081184446814631_);}
	.st4{fill:#098256;}
	.st5{fill:url(#SVGID_00000000204470458926455050000004257702937907906989_);}
	.st6{fill:url(#SVGID_00000027605456748897227700000005148937883669571256_);}
	.st7{fill:url(#SVGID_00000044879156051872886680000006350016716347321508_);}
	.st8{fill:#4199BF;}
	.st9{fill:url(#SVGID_00000101786336391743095700000015167905255452015536_);}
	.st10{fill:url(#SVGID_00000073679922666311706940000017576317380022025642_);}
	.st11{fill:#FFFFFF;}
	.st12{fill:url(#SVGID_00000155148916822012483020000016289710200498101151_);}
	.st13{fill:#5B1B1B;}
	.st14{fill:url(#SVGID_00000018232712555152960030000011166672523354088854_);}
	.st15{fill:#FFA08D;}
	.st16{fill:url(#SVGID_00000118388930192740056820000000531242289778265510_);}
	.st17{fill:#3794B5;}
	.st18{fill:url(#SVGID_00000153666176551111377860000002016092459112288150_);}
	.st19{fill:url(#SVGID_00000055678274111451556820000017425200401358056373_);}
	.st20{fill:url(#SVGID_00000150079467312675988720000002896646825611949186_);}
	.st21{fill:url(#SVGID_00000002381726556104149470000001846924210786793610_);}
</style>
<g>
	
		<linearGradient id="SVGID_1_" gradientUnits="userSpaceOnUse" x1="84.6521" y1="83.8215" x2="114.909" y2="83.8215" gradientTransform="matrix(-1 0 0 1 298.7815 0)">
		<stop  offset="0" style="stop-color:#EFA08B"/>
		<stop  offset="0.6405" style="stop-color:#E48C78"/>
		<stop  offset="0.9948" style="stop-color:#DD7F6C"/>
	</linearGradient>
	<path class="st0" d="M202.58,60.63c-2.1-0.5-5.36,3.96-5.45,7.69c-0.08,3.73,4.62,7.27,3.53,8.99
		c-1.09,1.72-16.79,10.65-16.79,10.65l4.03,19.27c0,0,14.63-10.27,19.88-17.97c5.09-7.47,5.75-15.76,6.28-19.15
		c0.46-2.96-1.56-4.55-3.31-3.67c0.53-3.66-2.36-3.54-3.67-3.2C206.01,59.31,202.58,60.63,202.58,60.63z"/>
	
		<linearGradient id="SVGID_00000179642085102903719140000004763545915921886610_" gradientUnits="userSpaceOnUse" x1="112.8155" y1="34.5955" x2="148.0923" y2="34.5955" gradientTransform="matrix(-1 0 0 1 298.7815 0)">
		<stop  offset="0" style="stop-color:#FFC5B3"/>
		<stop  offset="0.3645" style="stop-color:#FBBBA8"/>
		<stop  offset="1" style="stop-color:#EFA08B"/>
	</linearGradient>
	<path style="fill:url(#SVGID_00000179642085102903719140000004763545915921886610_);" d="M152.75,42.09
		c-1.09-4.61-2.06-10.51-2.06-10.51S161.91,3.56,175.78,8c2.27,0.73,4.13,1.93,4.92,4.26c0.42,1.24,1,2.88,1.07,4.29
		c0.16,3.45-0.83,6.76-0.79,8.38c0.08,3.54,6.29,6.04,4.74,8.1c-0.5,0.67-3.53,0.94-3.33,2.37c0.14,1.05,1.24,1.45-0.04,2.56
		c-0.3,0.32-0.87,0.62-0.76,1.18c0.11,0.59,0.75,0.64,0.9,1.43c0.18,0.97-0.48,1.02-0.84,1.23c-0.43,0.25-0.85,1.1-0.54,2.34
		c0.73,2.93-0.07,3.21-3.89,4.37c-1.42,0.43-2.51,0.73-6.11,6.31c-1.71,2.65-1.06,6.84-1.06,6.84l-19.35-5.42
		C150.69,56.25,153.84,46.69,152.75,42.09z"/>
	
		<linearGradient id="SVGID_00000057870956991355057070000002904506499659594404_" gradientUnits="userSpaceOnUse" x1="134.582" y1="2.4136" x2="134.582" y2="43.5555" gradientTransform="matrix(-1 0 0 1 298.7815 0)">
		<stop  offset="0" style="stop-color:#7B2B08"/>
		<stop  offset="1" style="stop-color:#682007"/>
	</linearGradient>
	<path style="fill:url(#SVGID_00000057870956991355057070000002904506499659594404_);" d="M180.7,12.26c0,0,2.14-2.22,2.37-3.96
		c-2.1,0.08-11.04-6.5-18.75-5.85c-9.37,0.79-17.3,3.96-18.84,13.66c-0.89,5.63,2.39,15.98,4.02,19.06
		c1.63,3.08,3.58,8.37,3.58,8.37s1.7-0.58,3.02-2.75c0.8-1.42,1.67-3.83,1.9-6.6c-1.56-3.55-3.14-7.84,0.81-8.38
		c3.02-0.41,5.54,4.44,5.54,4.44l1.39-0.79c0,0-1.42-8.31,3.02-11.15C168.68,14.97,165.89,8.59,180.7,12.26z"/>
	
		<linearGradient id="SVGID_00000063593273747607870260000002253942361928263862_" gradientUnits="userSpaceOnUse" x1="179.4054" y1="158.7084" x2="179.4054" y2="252.0951" gradientTransform="matrix(-1 0 0 1 298.7815 0)">
		<stop  offset="0" style="stop-color:#FFC5B3"/>
		<stop  offset="0.3645" style="stop-color:#FBBBA8"/>
		<stop  offset="1" style="stop-color:#EFA08B"/>
	</linearGradient>
	<path style="fill:url(#SVGID_00000063593273747607870260000002253942361928263862_);" d="M164.82,180.86c0,0-3.24,15.35-8.82,24.54
		c-3.12,5.14-6.65,8.03-9.15,10.84c-2.5,2.81-4.9,4.11-12.18,7.97c-12.22,6.5-55.22,27.88-55.22,27.88l-5.52-12.26
		c0,0,6.46-12.27,19.58-25.56c6.91-7,12.53-11.42,17.01-13.85c5.01-2.72,13.37-3.15,14.69-7.07c2.5-7.42,15.39-34.65,15.39-34.65
		L164.82,180.86z"/>
	<path class="st4" d="M172.4,191.97L156,205.4c0,0-12.2-2.53-16.37-6.4c-7.02-6.51-11.36-13.24-11.36-13.24s1.61-21.48,4.4-37.75
		C146.29,143.88,172.4,191.97,172.4,191.97z"/>
	
		<linearGradient id="SVGID_00000096031206501521611270000009073802386398308999_" gradientUnits="userSpaceOnUse" x1="109.2529" y1="175.6504" x2="109.2529" y2="289.1319" gradientTransform="matrix(-1 0 0 1 298.7815 0)">
		<stop  offset="0" style="stop-color:#FFC5B3"/>
		<stop  offset="0.3645" style="stop-color:#FBBBA8"/>
		<stop  offset="1" style="stop-color:#EFA08B"/>
	</linearGradient>
	<path style="fill:url(#SVGID_00000096031206501521611270000009073802386398308999_);" d="M191.36,175.65
		c0,0,10.12,6.15,12.95,12.34c3.07,6.71,3.41,11.54,3.48,18.64c0.06,6.89-2.5,19.36,3.94,36.25c2.44,6.4,13.27,36.6,13.27,36.6
		l-11.97,9.65c0,0-27.06-31.11-30.96-42.03c-5.76-16.12-1.37-18.25-4.84-25.37c-3.48-7.12-23.15-28.87-23.15-28.87
		S187.49,185.41,191.36,175.65z"/>
	
		<linearGradient id="SVGID_00000140711210913259060030000016065825609754448771_" gradientUnits="userSpaceOnUse" x1="129.9284" y1="131.1777" x2="129.9284" y2="212.1079" gradientTransform="matrix(-1 0 0 1 298.7815 0)">
		<stop  offset="0" style="stop-color:#15A072"/>
		<stop  offset="0.4562" style="stop-color:#119568"/>
		<stop  offset="1" style="stop-color:#098256"/>
	</linearGradient>
	<path style="fill:url(#SVGID_00000140711210913259060030000016065825609754448771_);" d="M200.99,131.18c0,0,4.11,1.01,4.41,4.92
		c0.36,4.74-0.88,11.56-4.88,20.96c-3.42,8.03-0.66,15.91,2.26,22.31c5.01,11,5.01,21.82,5.01,21.82s-6.4,3.19-14.69,6.79
		c-9.54,4.15-25.42,4.13-25.42,4.13s-14.92-19.87-28.6-35.53c-12.53-14.34-8.56-39.17-8.56-39.17L200.99,131.18z"/>
	
		<linearGradient id="SVGID_00000048471724376995821970000003938059780268349876_" gradientUnits="userSpaceOnUse" x1="137.3914" y1="51.4808" x2="137.3914" y2="153.4061" gradientTransform="matrix(-1 0 0 1 298.7815 0)">
		<stop  offset="0" style="stop-color:#7DC7DB"/>
		<stop  offset="0.5426" style="stop-color:#65BACE"/>
		<stop  offset="1" style="stop-color:#55B1C6"/>
	</linearGradient>
	<path style="fill:url(#SVGID_00000048471724376995821970000003938059780268349876_);" d="M170.01,58.32
		c3.7,1.66,8.99,3.88,13.42,9.12c3.16,3.74,4.05,13.96,6.57,23.5c1.28,4.85,17.95,33.73,15.5,55.31c-11.55,9.86-35.9,6.89-47.8,6.24
		c-13.59-0.74-28.55-12.64-28.55-12.64s1.85-13.83,8.34-33.2c2.08-6.21,3.29-19.28,2.16-21.54c-2.7,0.99-7.32,5.21-7.32,5.21
		s-6.62-9.31-15.26-15.96c5.04-5.62,8.73-8.58,15.61-14.66c9.27-8.19,15.76-8.29,21.05-8.18c3.22,1.18,10.18,7.49,13.47,8.91
		C169.52,61.42,170.01,60.02,170.01,58.32z"/>
	<path class="st8" d="M139.63,85.09c0,0,9.56-4.69,13.05-1.82c3.26,2.67,0.02,7.13-1.99,13.39c-1.85,5.78-11.01,7.71-13.22,10.72
		C139.41,98.3,139.63,85.09,139.63,85.09z"/>
	
		<linearGradient id="SVGID_00000047051597418229142750000004040078023930592149_" gradientUnits="userSpaceOnUse" x1="126.0639" y1="101.7629" x2="193.3485" y2="101.7629" gradientTransform="matrix(-1 0 0 1 298.7815 0)">
		<stop  offset="0" style="stop-color:#FFC5B3"/>
		<stop  offset="0.3645" style="stop-color:#FBBBA8"/>
		<stop  offset="1" style="stop-color:#EFA08B"/>
	</linearGradient>
	<path style="fill:url(#SVGID_00000047051597418229142750000004040078023930592149_);" d="M109.5,88.57
		c2.24-4.09,9.88-12.33,9.88-12.33s3.84,1.95,7.4,6.11c3.04,3.54,5.53,7.96,5.53,7.96l-3.63,3.3c0,0,15.75,10.46,24,14.21
		c4.42,2.01,8.8,1.05,11.41,1.51c3.32,0.58,10.75,2.88,8.05,6.42c0.6,1.6,0.1,3.94-1.82,4.49c1.43,2.15-0.37,3.72-1.38,3.9
		c0.72,2.76-1.57,4.03-6.31,2.51c-6.05-1.93-6.97-0.62-19.73-6.62c-13.59-6.39-17.25-5.92-23.52-7.82
		c-4.63-1.41-10.67-4.66-13.51-10.76C104.25,97.97,107.5,92.21,109.5,88.57z"/>
	<g>
		
			<linearGradient id="SVGID_00000039119411944643387680000002841895154318853781_" gradientUnits="userSpaceOnUse" x1="49.7972" y1="282.4763" x2="97.7865" y2="282.4763" gradientTransform="matrix(-1 0 0 1 298.7815 0)">
			<stop  offset="0" style="stop-color:#7DC7DB"/>
			<stop  offset="0.5426" style="stop-color:#65BACE"/>
			<stop  offset="1" style="stop-color:#55B1C6"/>
		</linearGradient>
		<path style="fill:url(#SVGID_00000039119411944643387680000002841895154318853781_);" d="M202.86,276.26
			c2.08-0.78,3.91,2.38,5.64,3.15c1.73,0.77,5.19-3.46,7.31-4.62c0.21-0.11,0.47-0.19,0.74-0.27l-0.11-0.24c0,0,0.38-2.11,2.31-4.45
			c1.92-2.33,5.39-3.65,5.39-3.65c2.35-1.26,1.25,5.09,0.5,8.54c2.35,1.49,10.17,6.34,13.28,6.99c3.68,0.77,7.85-0.64,7.85-0.64
			s1.64,2.14,2.69,4.04c1.54,2.77-0.52,4.1-3.02,5.64c-2.5,1.54-7.69,5.39-14.43,6.35c-6.73,0.96-10.45-1.92-11.86-1.35
			c-1.41,0.58-2.53,3.08-2.53,3.08s-4.52,0.26-9.47,0c-3.37-0.17-6.35-5.03-6.15-5.98C201.2,291.9,201.41,276.8,202.86,276.26z"/>
		<path class="st8" d="M248.45,285.11c0,0-8.3,6.8-17.05,7.38c-8.75,0.58-13.79-2.25-17.22,0.06c-3.42,2.31-11.7-0.94-11.7-0.94
			s6.41,1.93,10.87-0.31c5.1-2.56,12.12,0.04,18.37-0.39c4.26-0.29,16.16-6.76,16.16-6.76L248.45,285.11z"/>
		<path class="st11" d="M235.58,280.89c0,0-1.84,1.23-4.82,3.27c-2.98,2.04-4.54,2.45-4.54,2.45s2.04-2.45,4.54-4.45
			c0.74-0.59,3.23-2.03,3.23-2.03L235.58,280.89z"/>
		<path class="st11" d="M230.9,278.46c0,0-3.51,2.34-4.68,3.12c-1.26,0.84-4.03,3.37-4.03,3.37s2.11-3.71,3.28-4.82
			c0.82-0.77,4.13-2.44,4.13-2.44L230.9,278.46z"/>
		<path class="st11" d="M227.06,276.25c0,0-3.51,2.34-4.68,3.12c-1.26,0.84-4.02,3.37-4.02,3.37s2.09-3.71,3.26-4.82
			c0.82-0.77,4.13-2.44,4.13-2.44L227.06,276.25z"/>
	</g>
	<g>
		
			<linearGradient id="SVGID_00000071554041047997495550000017366057178907074724_" gradientUnits="userSpaceOnUse" x1="222.8888" y1="342.5531" x2="262.8131" y2="342.5531" gradientTransform="matrix(-0.8711 -0.4911 -0.4911 0.8711 450.9096 74.6582)">
			<stop  offset="0" style="stop-color:#7DC7DB"/>
			<stop  offset="0.5426" style="stop-color:#65BACE"/>
			<stop  offset="1" style="stop-color:#55B1C6"/>
		</linearGradient>
		<path style="fill:url(#SVGID_00000071554041047997495550000017366057178907074724_);" d="M60.61,234.69
			c0.96-0.01,16.46-2.59,17.25-1.26c1.13,1.91-2.14,3.9-2.52,5.76c-0.39,1.85,4.48,4.35,6.05,6.17c0.15,0.18,0.29,0.42,0.42,0.67
			l0.21-0.16c0,0,2.15-0.07,4.83,1.32c2.68,1.39,4.71,4.49,4.71,4.49c1.73,2.03-4.71,2.29-8.25,2.29
			c-0.96,2.61-4.06,11.28-4.04,14.46c0.02,3.76,2.27,7.54,2.27,7.54s-1.75,2.05-3.38,3.48c-2.39,2.09-4.12,0.36-6.15-1.76
			c-2.03-2.12-6.89-6.39-9.24-12.76c-2.36-6.38-0.32-10.62-1.18-11.88c-0.86-1.26-3.54-1.82-3.54-1.82s-1.2-4.36-1.99-9.25
			C55.52,238.63,59.65,234.7,60.61,234.69z"/>
		<path class="st8" d="M78.17,279.44c0,0-8.39-6.68-10.8-15.11c-2.41-8.43-0.7-13.96-3.68-16.82c-2.98-2.86-1.55-11.64-1.55-11.64
			s-0.54,6.67,2.59,10.56c3.58,4.44,2.52,11.85,4.25,17.87c1.18,4.1,10.01,14.37,10.01,14.37L78.17,279.44z"/>
		<path class="st11" d="M79.59,265.97c0,0-1.58-1.54-4.21-4.02c-2.63-2.48-3.36-3.92-3.36-3.92s2.83,1.48,5.31,3.5
			c0.74,0.6,2.66,2.73,2.66,2.73L79.59,265.97z"/>
		<path class="st11" d="M80.98,260.88c0,0-3.03-2.94-4.04-3.92c-1.09-1.06-4.14-3.23-4.14-3.23s4.07,1.28,5.4,2.19
			c0.93,0.64,3.26,3.52,3.26,3.52L80.98,260.88z"/>
		<path class="st11" d="M82.33,256.66c0,0-3.03-2.94-4.04-3.92c-1.09-1.06-4.14-3.22-4.14-3.22s4.07,1.26,5.4,2.18
			c0.93,0.64,3.26,3.52,3.26,3.52L82.33,256.66z"/>
	</g>
	<path class="st13" d="M178.24,17.49c1.14,0.06,2.61,0.8,1.64,1.32c-0.53,0.28-2.17-0.01-4.02,0.71c-1.9,0.74-4.6,2.91-4.6,2.91
		S173.45,17.23,178.24,17.49z"/>
	
		<linearGradient id="SVGID_00000057850149647219152100000001551388107298246312_" gradientUnits="userSpaceOnUse" x1="138.6272" y1="34.0949" x2="138.6272" y2="27.2624" gradientTransform="matrix(-1 0 0 1 298.7815 0)">
		<stop  offset="0" style="stop-color:#EFA08B"/>
		<stop  offset="0.2778" style="stop-color:#E7917D"/>
		<stop  offset="0.6579" style="stop-color:#E08470"/>
		<stop  offset="0.9948" style="stop-color:#DD7F6C"/>
	</linearGradient>
	<path style="fill:url(#SVGID_00000057850149647219152100000001551388107298246312_);" d="M162.63,30.73c0,0-2.13-4.01-3.61-3.4
		c-1.48,0.6-1.34,2.98-1.34,2.98s1.18-1.24,2.3-0.7c1.12,0.55,0.14,1.71,0,2.18c-0.47,1.53,1.58,2.31,1.58,2.31s-0.3-1.56-0.17-2.31
		C161.54,30.95,162.63,30.73,162.63,30.73z"/>
	<path class="st15" d="M198.63,207.97c0,0,2.16,3.46,1.87,4.86c-0.21,1.03-2.48,3.4-2.48,3.4L198.63,207.97z"/>
	
		<linearGradient id="SVGID_00000116954855154289286930000014168516955386388129_" gradientUnits="userSpaceOnUse" x1="186.0798" y1="101.5857" x2="190.4289" y2="101.5857" gradientTransform="matrix(-1 0 0 1 298.7815 0)">
		<stop  offset="0" style="stop-color:#EFA08B"/>
		<stop  offset="0.0862" style="stop-color:#ED9C87"/>
		<stop  offset="0.6354" style="stop-color:#E18773"/>
		<stop  offset="0.9948" style="stop-color:#DD7F6C"/>
	</linearGradient>
	<path style="fill:url(#SVGID_00000116954855154289286930000014168516955386388129_);" d="M108.35,99.99
		c2.96-0.47,4.35,3.24,4.35,3.24S108.26,102.12,108.35,99.99z"/>
	<path class="st11" d="M178.19,23.39c0,0,0.36,1.77,0.14,2.46c-0.37,1.13-1.61,1.16-2.6,0.91c-0.99-0.25-1.89-0.98-1.89-0.98
		l2.39-1.43L178.19,23.39z"/>
	<path class="st17" d="M178.4,23.49c0,0,0.43,2.61-0.54,2.98c-1.33,0.5-1.22-2.14-1.22-2.14L178.4,23.49z"/>
	<path class="st13" d="M177.22,25.14c0,0.37,0.19,0.68,0.43,0.68c0.24,0,0.43-0.3,0.43-0.68c0-0.37-0.19-0.68-0.43-0.68
		C177.41,24.46,177.22,24.77,177.22,25.14z"/>
	<path class="st11" d="M177.55,24.57c0,0.27,0.14,0.5,0.32,0.5c0.18,0,0.32-0.22,0.32-0.5c0-0.27-0.14-0.5-0.32-0.5
		C177.7,24.08,177.55,24.3,177.55,24.57z"/>
	<path class="st15" d="M183.63,33.03c0,0-0.18,0.39-0.77,0.94c-0.59,0.55-1.09,0-0.59-0.47C182.76,33.03,183.63,33.03,183.63,33.03z
		"/>
	<path class="st13" d="M178.53,22.57c0.24-0.17,0.64,0.25,0.39,0.61c-0.54,0.78-1.92,1.51-2.99,1.99c-1.09,0.49-2.51,0.68-2.51,0.68
		S177.05,23.6,178.53,22.57z"/>
	
		<linearGradient id="SVGID_00000143579781699711364110000010839437510667048833_" gradientUnits="userSpaceOnUse" x1="119.9618" y1="22.6146" x2="124.3697" y2="22.6146" gradientTransform="matrix(-1 0 0 1 298.7815 0)">
		<stop  offset="0" style="stop-color:#EFA08B"/>
		<stop  offset="0.156" style="stop-color:#EB9984"/>
		<stop  offset="0.6493" style="stop-color:#E18672"/>
		<stop  offset="0.9948" style="stop-color:#DD7F6C"/>
	</linearGradient>
	<path style="fill:url(#SVGID_00000143579781699711364110000010839437510667048833_);" d="M178.82,21.51c0,0-1.33,0.93-2.33,1.48
		c-1,0.56-2.08,1.08-2.08,1.08s2.74-2.38,3.46-2.75C178.82,20.84,178.82,21.51,178.82,21.51z"/>
	
		<linearGradient id="SVGID_00000049929392016156074100000006975907693700843710_" gradientUnits="userSpaceOnUse" x1="114.909" y1="14.6166" x2="153.4513" y2="14.6166" gradientTransform="matrix(-1 0 0 1 298.7815 0)">
		<stop  offset="0" style="stop-color:#B24E2B"/>
		<stop  offset="0.3843" style="stop-color:#AA4727"/>
		<stop  offset="1" style="stop-color:#A34123"/>
	</linearGradient>
	<path style="fill:url(#SVGID_00000049929392016156074100000006975907693700843710_);" d="M183.87,7.86l-1.34,1.68
		c0,0-9.11-5.22-14.9-6.41c-6.01-1.23-9.92,0.17-13.07,2.64c-2.69,2.11-7.04,6.38-7.36,10.25c-0.49,5.8-0.13,12.21-0.13,12.21
		s-4.97-11.85,1.91-19.7s14.55-8.66,20.93-6.51C174.61,3.62,183.87,7.86,183.87,7.86z"/>
	
		<linearGradient id="SVGID_00000000902151808255683330000006643323435241103031_" gradientUnits="userSpaceOnUse" x1="116.1799" y1="38.8856" x2="119.8505" y2="38.8856" gradientTransform="matrix(-1 0 0 1 298.7815 0)">
		<stop  offset="0" style="stop-color:#EFA08B"/>
		<stop  offset="0.156" style="stop-color:#EB9984"/>
		<stop  offset="0.6493" style="stop-color:#E18672"/>
		<stop  offset="0.9948" style="stop-color:#DD7F6C"/>
	</linearGradient>
	<path style="fill:url(#SVGID_00000000902151808255683330000006643323435241103031_);" d="M181.85,39.61
		c-0.89,0.05-1.77,0.5-2.37,0.43c-0.31-0.04-0.97-0.6-0.15-1.42c0.83-0.83,3.27-0.89,3.27-0.89S181.24,38.76,181.85,39.61z"/>
	
		<linearGradient id="SVGID_00000067212622997862589050000009104643838325066644_" gradientUnits="userSpaceOnUse" x1="126.0639" y1="45.5262" x2="136.1525" y2="45.5262" gradientTransform="matrix(-1 0 0 1 298.7815 0)">
		<stop  offset="0" style="stop-color:#EFA08B"/>
		<stop  offset="0.156" style="stop-color:#EB9984"/>
		<stop  offset="0.6493" style="stop-color:#E18672"/>
		<stop  offset="0.9948" style="stop-color:#DD7F6C"/>
	</linearGradient>
	<path style="fill:url(#SVGID_00000067212622997862589050000009104643838325066644_);" d="M172.72,48.49c0,0-1.13,0.22-5.04-1.71
		c-2.46-1.22-5.04-4.47-5.04-4.47s0.21,4.14,3.89,5.67C169.61,49.28,172.72,48.49,172.72,48.49z"/>
	<path class="st8" d="M173.83,63c0,0-0.89,4.26-5.51,1.89c-4.62-2.37-12.67-9.71-12.67-9.71s6.87,12.91,14.56,14.1
		C177.92,70.47,173.83,63,173.83,63z"/>
</g>
</svg>
