<?xml version="1.0" encoding="utf-8"?>
<!-- Generator: Adobe Illustrator 27.3.1, SVG Export Plug-In . SVG Version: 6.00 Build 0)  -->
<svg version="1.1" id="Слой_1" xmlns="http://www.w3.org/2000/svg" xmlns:xlink="http://www.w3.org/1999/xlink" x="0px" y="0px"
	 viewBox="0 0 300 300" style="enable-background:new 0 0 300 300;" xml:space="preserve">
<style type="text/css">
	.st0{fill:url(#SVGID_1_);}
	.st1{fill:#FFA08D;}
	.st2{fill:#682356;}
	.st3{fill:url(#SVGID_00000044138305224275504280000015571126985992327606_);}
	.st4{fill:url(#SVGID_00000031199976424426101840000017350971082211243710_);}
	.st5{fill:#F967A9;}
	.st6{fill:#7B2B08;}
	.st7{fill:#FFFFFF;}
	.st8{fill:#3794B5;}
	.st9{fill:#5B1B1B;}
	.st10{fill:url(#SVGID_00000112608425703657820390000014996676763403282091_);}
	.st11{fill:url(#SVGID_00000114061211634724201790000018143104364156755129_);}
	.st12{fill:url(#SVGID_00000167382806277143958130000004542117366579093651_);}
	.st13{fill:url(#SVGID_00000178205163046293882470000017588027052437306771_);}
	.st14{fill:url(#SVGID_00000117659876198464338710000003099258950225724587_);}
	.st15{fill:url(#SVGID_00000111910310511112710490000006040493157850606526_);}
	.st16{fill:#FFC5B3;}
	.st17{fill:url(#SVGID_00000058585935288569016370000017190304509188460476_);}
	.st18{fill:url(#SVGID_00000003089933550951172500000017920515106341988785_);}
	.st19{fill:#DD4B94;}
	.st20{fill:url(#SVGID_00000000941935579203621360000012716320149089018775_);}
	.st21{fill:url(#SVGID_00000111897107138528545150000010663845081744277392_);}
	.st22{fill:url(#SVGID_00000163766709680740605760000009582784701034572977_);}
	.st23{fill:url(#SVGID_00000034056620718684667370000004759496556804246937_);}
	.st24{fill:url(#SVGID_00000004529735227903689940000010274661710701901455_);}
	.st25{fill:url(#SVGID_00000062169159343929993280000014132402845494625176_);}
</style>
<g>
	
		<linearGradient id="SVGID_1_" gradientUnits="userSpaceOnUse" x1="83.7613" y1="114.5793" x2="129.4695" y2="114.5793" gradientTransform="matrix(-1 0 0 1 298.7815 0)">
		<stop  offset="0" style="stop-color:#EFA08B"/>
		<stop  offset="0.6405" style="stop-color:#E48C78"/>
		<stop  offset="0.9948" style="stop-color:#DD7F6C"/>
	</linearGradient>
	<path class="st0" d="M176.85,111.92c0,0,17.1-0.15,21.06-1.63c2.31-0.86,3.4-3.51,5.24-5.58c2.58-2.9,2.44-2.05,6.01-1.39
		c4.3,0.79,4.3,2.24,3.64,4.51c1.14,0.93,2.08,2.32,0.97,4.46c1.73,1.32,1.69,3.77-0.33,5.11c-6.1,4.06-8.24,3.12-15.82,5.07
		c-4.57,1.18-15.08,4.66-21.94,3.91c-5.64-0.62-4.9-0.99-5.91-2.74C167.11,119,176.85,111.92,176.85,111.92z"/>
	<path class="st1" d="M92.74,248.2c0,0,6.6-9.62,15.74-20.57c2.58,4.59,9.86,8.71,14.17,11.4c-11.2,8.14-21.75,16.58-21.75,16.58
		l-10.57,0.95L92.74,248.2z"/>
	<path class="st2" d="M180.09,183.44c-1.36,2.89-14.06,28.12-19.54,35.55c-5.48,7.43-11.66,7.51-20.3,12.28
		c-5.91,3.27-25.09,13.29-25.09,13.29s-6.37-1.12-8.07-3.59c-1.7-2.47-2.12-8.72-2.12-8.72s6.78-10.92,12.45-16.7
		c7.09-7.22,19.49-14.73,19.49-14.73s-9.04-23.84-3.25-43.73C137.16,145.06,180.09,183.44,180.09,183.44z"/>
	<g>
		
			<linearGradient id="SVGID_00000004505871720706943110000001515314579548979341_" gradientUnits="userSpaceOnUse" x1="106.0162" y1="50.5609" x2="148.624" y2="50.5609" gradientTransform="matrix(-1 0 0 1 298.7815 0)">
			<stop  offset="0" style="stop-color:#FFC5B3"/>
			<stop  offset="0.3645" style="stop-color:#FBBBA8"/>
			<stop  offset="1" style="stop-color:#EFA08B"/>
		</linearGradient>
		<path style="fill:url(#SVGID_00000004505871720706943110000001515314579548979341_);" d="M179.51,83.13l-29.35-16.3
			c0,0,7.77-7.3,8.62-11.54c1.42-7.08-3.94-17.23-3.84-18.39l0,0c-0.33-1.02-0.59-2.27-0.71-3.89
			c-0.94-12.06,14.3-16.19,25.06-14.73c4.34,0.59,5.61,0.24,7.32,4.47c1.71,4.24-0.17,4.32,0.3,10.45c0.13,1.7,2.73,3.81,4.02,5.24
			c0.96,1.07,2,1.5,1.82,1.98c-0.79,2.11-2.16,1.55-3.12,2.6c-0.36,0.39-1.16,1.21-0.4,2.37c-1.85,0.99-3.54,1.52-3.59,1.91
			c-0.18,1.21,2.39,0.72,2.14,1.75c-0.4,1.68,2.19,4.44,0.5,6.03c-2.23,2.09-5.04,2.35-7.05,3.49c-3.67,2.07-7.28,3.58-7.26,7.35
			c0.09,0.82,0.2,1.63,0.35,2.37C175.12,72.44,179.51,83.13,179.51,83.13z"/>
		
			<linearGradient id="SVGID_00000142886975685631552450000004453025996975688619_" gradientUnits="userSpaceOnUse" x1="143.4794" y1="15.485" x2="165.1227" y2="15.485" gradientTransform="matrix(-1 0 0 1 298.7815 0)">
			<stop  offset="0" style="stop-color:#7B2B08"/>
			<stop  offset="1" style="stop-color:#682007"/>
		</linearGradient>
		<path style="fill:url(#SVGID_00000142886975685631552450000004453025996975688619_);" d="M135.14,19.32
			c0.42-5.28,4.21-4.19,6.82-11.14c2.87-7.63,11.4-7.96,12.74-1.66c1.34,6.3,0,11.93,0,11.93l-7.98,8.98c0,0-1.17,0.1-2.76,0
			c-1.27,0.62-2.91,1.32-4.1,1.44c-2.21,0.22-5.97-3.06-6.19-5.07C133.52,22.42,134.5,20.44,135.14,19.32z M138.65,27.26
			c0.85,0.12,1.73-0.01,2.55-0.23c-2.91-0.65-5.92-2.22-6.09-5.97c-0.01-0.29-0.01-0.53-0.01-0.79c-0.18,0.78-0.31,1.69-0.22,2.5
			C135.11,24.66,135.89,26.88,138.65,27.26z"/>
		<path class="st5" d="M156.54,13.6c0,0,0.29-2.86-4.19,0c-6.05,3.87-7.25,10.83-5.63,13.82c1.63,2.99,3.7,2.32,3.7,2.32
			L156.54,13.6z"/>
		<path class="st6" d="M146.07,33.09c0.99-3.28,1.99-5.62,1.99-5.62s0.03-0.01,0.05-0.01c0.12-0.82,0.24-1.63,0.47-2.46
			c4.68-16.81,21.88-15.32,27.3-13.83c11.54,3.18,10.11,9.18,10.11,9.18s-5.16,0.61-10.11-0.71c-2.33,1.98-1.46,5.53-2.04,7.79
			c-0.67,2.61-3.71,5.67-3.38,8.66c-1.82-1.93-4.72-1.85-6.14,2.05c-1.08,2.96,0.39,4.37,1.52,6.57c-0.64,5.23-6.43,7.63-6.43,7.63
			s-3.21,0.09-5.61-1.31l-0.01,0.03c0,0-2.48-0.73-5.29-6.35C146.7,41.1,145.4,35.29,146.07,33.09z M147.85,40.7
			c0.34,2.02,1.74,3.89,3.16,5.34c-0.95-4.54-3.07-9.73-3.12-15.4C146.29,34.54,147.51,38.67,147.85,40.7z"/>
		<path class="st5" d="M188.65,44.47c0,0,1.17-0.2,0.89,0.96c-0.22,0.9-2.75,1.86-2.75,1.86s2,0.63,2.19,1.94
			c0.17,1.17-1.21,0.91-1.21,0.91s-1.79-0.91-3.8-2.56C186.04,46.03,188.65,44.47,188.65,44.47z"/>
		<path class="st7" d="M184.13,31.96c0,0,0.11,1.1,0.07,1.78c-0.04,0.68-0.13,1.81-1.79,1.77c-1.66-0.04-3.18-1.08-3.18-1.08
			L184.13,31.96z"/>
		<path class="st8" d="M184.16,32.28c0,0,0.49,2.53-0.56,2.92c-1.45,0.54-1.32-2.32-1.32-2.32L184.16,32.28z"/>
		<ellipse class="st9" cx="183.49" cy="34.04" rx="0.55" ry="0.84"/>
		<ellipse class="st7" cx="183.62" cy="33.2" rx="0.35" ry="0.54"/>
		<path class="st9" d="M183.73,25.24c1.26,0.07,2.41,0.6,1.67,1.15c-1.13,0.83-2.36-0.11-4.27,1.06c-1.34,0.82-4.32,4.51-4.32,4.51
			S178.44,24.93,183.73,25.24z"/>
		<path class="st9" d="M179.22,34.43c0,0,2.22-1.2,3.05-1.77c1.26-0.87,2.34-1.77,2.34-1.77s0.28,0.79,1.29,1.13
			c0.78,0.26,1.86,0.19,1.86,0.19s-1.86,0.49-3.06,0.29c0.19,0.51,0.62,0.88,1,1.11c-1.41,0.09-2.07-0.56-2.32-0.92
			c-0.69,0.49-1.51,0.94-2.17,1.18C179.67,34.43,179.22,34.43,179.22,34.43z"/>
		<path class="st1" d="M190.81,41.19c0,0-1.06,0.15-1.59,0.68s-0.11,0.98,0.51,0.53C190.35,41.94,190.81,41.19,190.81,41.19z"/>
		
			<linearGradient id="SVGID_00000145764243239278939700000009187695621900598974_" gradientUnits="userSpaceOnUse" x1="113.8818" y1="30.8449" x2="118.6932" y2="30.8449" gradientTransform="matrix(-1 0 0 1 298.7815 0)">
			<stop  offset="0" style="stop-color:#EFA08B"/>
			<stop  offset="0.156" style="stop-color:#EB9984"/>
			<stop  offset="0.6493" style="stop-color:#E18672"/>
			<stop  offset="0.9948" style="stop-color:#DD7F6C"/>
		</linearGradient>
		<path style="fill:url(#SVGID_00000145764243239278939700000009187695621900598974_);" d="M184.9,29.03v0.91
			c0,0-1.35,0.91-2.63,1.74c-1.28,0.83-2.19,0.98-2.19,0.98S181.71,30.69,184.9,29.03z"/>
		
			<linearGradient id="SVGID_00000075859613028786996300000011244429644372439171_" gradientUnits="userSpaceOnUse" x1="128.1653" y1="40.8108" x2="132.7265" y2="40.8108" gradientTransform="matrix(-1 0 0 1 298.7815 0)">
			<stop  offset="0" style="stop-color:#EFA08B"/>
			<stop  offset="0.2778" style="stop-color:#E7917D"/>
			<stop  offset="0.6579" style="stop-color:#E08470"/>
			<stop  offset="0.9948" style="stop-color:#DD7F6C"/>
		</linearGradient>
		<path style="fill:url(#SVGID_00000075859613028786996300000011244429644372439171_);" d="M166.05,39.39c0,0,0.49-2.14,2.3-1.75
			c1.81,0.39,2.26,3.11,2.26,3.11s-1.59-0.23-1.51,1.06c0.08,1.28,0.83,1.51,0.83,1.51s-0.53,0.86-1.28,0.7
			c-0.75-0.17-1.51-1.23-0.98-2.21c0.53-0.98,0.98-1.69,0.66-2.11C167.45,38.53,166.05,39.39,166.05,39.39z"/>
		
			<linearGradient id="SVGID_00000012445099653315007980000001366302584645793436_" gradientUnits="userSpaceOnUse" x1="126.8576" y1="27.2628" x2="146.4293" y2="27.2628" gradientTransform="matrix(-1 0 0 1 298.7815 0)">
			<stop  offset="0" style="stop-color:#B24E2B"/>
			<stop  offset="0.3843" style="stop-color:#AA4727"/>
			<stop  offset="1" style="stop-color:#A34123"/>
		</linearGradient>
		<path style="fill:url(#SVGID_00000012445099653315007980000001366302584645793436_);" d="M171.92,31.32
			c-2.91-1.83-7.34-0.36-12.93-3.85c-1.65-1.03-6.64-9.02-6.64-9.02s1.32,8.52,4.19,11.3c3.46,3.34,6.59,5.13,9.18,6.05
			c3.05-1.84,4.73,0.29,4.73,0.29S170.84,33.09,171.92,31.32z"/>
		
			<linearGradient id="SVGID_00000013179388578484940220000012943752088182026910_" gradientUnits="userSpaceOnUse" x1="113.6115" y1="15.6046" x2="143.8761" y2="15.6046" gradientTransform="matrix(-1 0 0 1 298.7815 0)">
			<stop  offset="0" style="stop-color:#B24E2B"/>
			<stop  offset="0.3843" style="stop-color:#AA4727"/>
			<stop  offset="1" style="stop-color:#A34123"/>
		</linearGradient>
		<path style="fill:url(#SVGID_00000013179388578484940220000012943752088182026910_);" d="M155.78,13.66
			c0.68-1.11,2.05-3.1,3.72-4.32c2.41-1.74,3.99-2.24,6.77-1.74c2.77,0.5,10.54,3.34,10.54,3.34l-0.01,0
			c7.1,2.06,8.37,5.87,8.37,5.87s-3.2-3.54-13.25-5.32c-6.41-1.13-11.31,0.01-13.33,1.49c2.23,0.49,5.54,0.54,9.87,1.79
			c4.29,1.24,7.41,4.84,7.41,4.84s-1.19,1.08-1.71,4.17c-2.24-2.26-3.45-5.66-7.17-7.05c-6.74-2.51-12.09-1.97-12.09-1.97
			S155.16,14.31,155.78,13.66z M170.62,9.84c0.34,0.03,0.65,0.08,0.98,0.11c-1.71-0.58-3.81-1.27-5.33-1.69
			c-3.03-0.83-6.38,1.17-7.74,3.37c0,0-0.01,0.01-0.01,0.01C160.92,10.37,164.72,9.32,170.62,9.84z"/>
		
			<linearGradient id="SVGID_00000049942375922879801040000004472514964496261012_" gradientUnits="userSpaceOnUse" x1="142.8377" y1="6.6664" x2="159.389" y2="6.6664" gradientTransform="matrix(-1 0 0 1 298.7815 0)">
			<stop  offset="0" style="stop-color:#B24E2B"/>
			<stop  offset="1" style="stop-color:#A34123"/>
		</linearGradient>
		<path style="fill:url(#SVGID_00000049942375922879801040000004472514964496261012_);" d="M139.43,7.42
			c0.22-2.09,1.66-5.32,5.67-4.88c0.39,0.04,0.74,0.15,1.1,0.26c0.75-0.85,2.95-2.82,6.16-1.15c2.55,1.33,3.11,4.04,3.44,5.34
			c0.33,1.3,0,5.34,0,5.34h-1.44c0,0,0.34-6.9-3.05-8.47c-2.12-0.98-3.69-1.01-4.59-0.89c2.97,1.22,4.59,4.44,4.59,4.44
			c-1.8-2.62-5.46-3.77-6.55-3.88c-1.08-0.11-2.9,0.88-3.89,2.65c-1,1.77,0.14,4.12,0.14,4.12l-0.85,1.39
			C140.15,11.7,139.2,9.51,139.43,7.42z"/>
		
			<linearGradient id="SVGID_00000052813962192475941680000003216527598998285704_" gradientUnits="userSpaceOnUse" x1="148.6582" y1="14.7244" x2="163.8929" y2="14.7244" gradientTransform="matrix(-1 0 0 1 298.7815 0)">
			<stop  offset="0" style="stop-color:#B24E2B"/>
			<stop  offset="1" style="stop-color:#A34123"/>
		</linearGradient>
		<path style="fill:url(#SVGID_00000052813962192475941680000003216527598998285704_);" d="M150.12,15.37c0,0-0.63-2.97-5.03-4.42
			c-4.4-1.46-7.55-0.54-9.21,1.39c-1.66,1.93-0.75,6.89-0.75,6.89l0.64-2.47c0,0-0.89-3.25,2.32-4.42c3.21-1.17,6.62,0.05,7.79,0.71
			c1.17,0.66,3.66,2.91,3.66,2.91L150.12,15.37z"/>
	</g>
	<path class="st16" d="M190.03,258.68c-4.36,11.02-4.59,17.67-4.59,17.67l-15.09,5.88c0,0-0.33-12.61,2.52-27.64
		C177.3,256.73,185.29,260.03,190.03,258.68z"/>
	
		<linearGradient id="SVGID_00000095321102026010378550000016949312782521863045_" gradientUnits="userSpaceOnUse" x1="82.825" y1="198.7117" x2="165.3955" y2="198.7117" gradientTransform="matrix(-1 0 0 1 298.7815 0)">
		<stop  offset="0" style="stop-color:#933A7C"/>
		<stop  offset="1" style="stop-color:#7F2E66"/>
	</linearGradient>
	<path style="fill:url(#SVGID_00000095321102026010378550000016949312782521863045_);" d="M133.66,157.1
		c1.68-12.7,17.7-23.35,17.7-23.35s4.81,0.28,14.11,2.7c8.67,2.26,14.04,4.64,14.04,4.64c0.11,7.17,5.33,13.5,7.27,18.03
		c0.76,1.78,3.56,3.64,4.75,5.14c1.47,1.45,13.74,14.68,18.14,20.77c2.95,4.08,7.25,13.59,6.1,20.77
		c-0.77,4.81-27.11,56.28-27.11,56.28s-5.32,2.23-9.44,1.4c-2.74-0.56-7.3-2.7-7.3-2.7s1.55-20.56,7.3-34.87
		c1.61-4.01,5.06-12.94,5.06-12.94s-14.94-4.53-24.03-10.84C153.55,198.36,130.64,180,133.66,157.1z"/>
	
		<linearGradient id="SVGID_00000094605341283069343410000001025555799293488259_" gradientUnits="userSpaceOnUse" x1="131.4169" y1="61.2452" x2="131.4169" y2="164.2694" gradientTransform="matrix(-1 0 0 1 298.7815 0)">
		<stop  offset="0" style="stop-color:#F97CA9"/>
		<stop  offset="0.282" style="stop-color:#F778A7"/>
		<stop  offset="0.5726" style="stop-color:#F06BA2"/>
		<stop  offset="0.8663" style="stop-color:#E45799"/>
		<stop  offset="1" style="stop-color:#DD4B94"/>
	</linearGradient>
	<path style="fill:url(#SVGID_00000094605341283069343410000001025555799293488259_);" d="M142.5,125.17
		c6.04-9.68,5.83-32.66,5.83-32.66s7.55,1.44,14.23-2.86c1.06-0.68,2.05-1.78,2.91-3.14c2.68-4.29,3.92-11.26,0.97-16.5
		c-3.88-6.9-13.42-7.13-13.42-7.13s6.83-4.66,14.42,1.81c3.77,3.21,10.81,12.51,18.94,19.97c7.73,7.09,7.73,13.53,4.43,18.21
		c-1.83,2.58,6.99,19.99,8.75,31.44c2.74,17.76-8.03,29.98-8.03,29.98s-23.22-12.94-31.28-14.27c-20-3.3-25.52,2.93-25.52,2.93
		S135.3,136.7,142.5,125.17z"/>
	<path class="st19" d="M192.77,96.74c0,0,0.36,1.93-3.79,4.71c-4.15,2.79-8.37,4.71-5.49,7.4c2.88,2.68,10.18,3.95,10.18,3.95
		s-3.71-6.06-3.29-8C190.81,102.85,192.95,99.48,192.77,96.74z"/>
	
		<linearGradient id="SVGID_00000138535781580307038690000002935932739873026191_" gradientUnits="userSpaceOnUse" x1="100.8691" y1="93.7645" x2="176.1951" y2="93.7645" gradientTransform="matrix(-1 0 0 1 298.7815 0)">
		<stop  offset="0" style="stop-color:#FFC5B3"/>
		<stop  offset="0.3645" style="stop-color:#FBBBA8"/>
		<stop  offset="1" style="stop-color:#EFA08B"/>
	</linearGradient>
	<path style="fill:url(#SVGID_00000138535781580307038690000002935932739873026191_);" d="M166.23,85.13c0,0-1.61,3.77-4.77,5.12
		c-4.59,1.96-11.47,1.78-13.13,2.25c-2.99,4.24-5.82,6.94-5.82,6.94s8.52,3.63,12.4,5.32c6.25,2.72,11.16,5.62,17.96,6.11
		c4.43,0.32,7.54,1.54,11.92-1.57c3.13-2.23,5.39-4.1,7.98-2.23c3.76,2.71,6.03,4,4.82,6.45c0.68,1.5,0,4.49-1.38,4.49
		c1.03,2.48-1.07,2.53-1.63,3.89c-1.04,2.52-5.28,1.62-8.53,2.71c-5.79,1.94-6.64-1.92-11.91-1.54c-8.95,0.65-30.1-2.14-37.22-5.82
		c-4-2.07-9.12-2.95-12.53-4.5c-2.77-1.25-1.95-9.74-0.11-14.99c1.94-5.53,2.48-11.58,10.58-24.49c6.2-9.87,14.25-11.09,19.71-10.89
		C163.51,62.7,172.1,74.49,166.23,85.13z"/>
	
		<linearGradient id="SVGID_00000062900018560961802950000010108586154269527169_" gradientUnits="userSpaceOnUse" x1="133.3086" y1="88.7842" x2="150.4541" y2="88.7842" gradientTransform="matrix(-1 0 0 1 298.7815 0)">
		<stop  offset="0" style="stop-color:#EFA08B"/>
		<stop  offset="0.6405" style="stop-color:#E48C78"/>
		<stop  offset="0.9948" style="stop-color:#DD7F6C"/>
	</linearGradient>
	<path style="fill:url(#SVGID_00000062900018560961802950000010108586154269527169_);" d="M156.47,85.42
		c-4.1,1.94-8.14,7.08-8.14,7.08s8.69,1.27,12.78-1.47c3.29-2.2,4.37-4.53,4.37-4.53S160.57,83.48,156.47,85.42z"/>
	
		<linearGradient id="SVGID_00000056415310480431941950000001427570205748204700_" gradientUnits="userSpaceOnUse" x1="167.5025" y1="105.6104" x2="170.9136" y2="105.6104" gradientTransform="matrix(-1 0 0 1 298.7815 0)">
		<stop  offset="0" style="stop-color:#EFA08B"/>
		<stop  offset="0.2947" style="stop-color:#E6907C"/>
		<stop  offset="0.6529" style="stop-color:#DF8370"/>
		<stop  offset="0.9948" style="stop-color:#DD7F6C"/>
	</linearGradient>
	<path style="fill:url(#SVGID_00000056415310480431941950000001427570205748204700_);" d="M129.34,102.86c0,0,1.29,4.7,1.94,5.51
		c-1.02-0.05-3.57-0.67-3.4-2.76C128.04,103.53,129.34,102.86,129.34,102.86z"/>
	<g>
		
			<linearGradient id="SVGID_00000168805048693709095430000011977775239135755399_" gradientUnits="userSpaceOnUse" x1="86.5929" y1="283.4856" x2="131.807" y2="283.4856" gradientTransform="matrix(-1 0 0 1 298.7815 0)">
			<stop  offset="0" style="stop-color:#F97CA9"/>
			<stop  offset="0.282" style="stop-color:#F778A7"/>
			<stop  offset="0.5726" style="stop-color:#F06BA2"/>
			<stop  offset="0.8663" style="stop-color:#E45799"/>
			<stop  offset="1" style="stop-color:#DD4B94"/>
		</linearGradient>
		<path style="fill:url(#SVGID_00000168805048693709095430000011977775239135755399_);" d="M170.97,276.24
			c1.45,0.18,1.45,3.62,3.08,4.35c1.63,0.72,4.89-3.26,6.89-4.35c0.19-0.11,0.45-0.18,0.7-0.26l-0.11-0.22c0,0,0.36-1.99,2.17-4.19
			c1.81-2.2,5.07-3.44,5.07-3.44c2.22-1.19,1.18,4.79,0.47,8.05c2.21,1.4,9.58,5.98,12.51,6.59c3.46,0.72,7.39-0.6,7.39-0.6
			s1.54,2.02,2.54,3.81c1.45,2.61-0.49,3.86-2.84,5.31c-2.36,1.45-7.25,5.07-13.59,5.98c-6.34,0.91-9.84-1.81-11.17-1.27
			c-1.33,0.54-2.38,2.9-2.38,2.9s-4.25,0.24-8.92,0c-3.18-0.16-5.98-4.74-5.8-5.63C167.16,292.37,169.52,276.06,170.97,276.24z"/>
		<path class="st19" d="M211.69,285.97c0,0-7.82,6.41-16.06,6.95c-8.25,0.54-13-2.12-16.22,0.05c-3.23,2.17-11.02-0.88-11.02-0.88
			s6.04,1.82,10.24-0.29c4.8-2.41,11.42,0.03,17.31-0.37c4.01-0.27,15.22-6.37,15.22-6.37L211.69,285.97z"/>
		<path class="st7" d="M199.56,281.99c0,0-1.73,1.15-4.54,3.08c-2.81,1.93-4.28,2.31-4.28,2.31s1.92-2.31,4.28-4.19
			c0.7-0.56,3.04-1.91,3.04-1.91L199.56,281.99z"/>
		<path class="st7" d="M195.15,279.7c0,0-3.31,2.21-4.41,2.94c-1.19,0.79-3.8,3.17-3.8,3.17s1.98-3.49,3.09-4.54
			c0.77-0.73,3.89-2.3,3.89-2.3L195.15,279.7z"/>
		<path class="st7" d="M191.53,277.62c0,0-3.31,2.21-4.41,2.94c-1.19,0.79-3.78,3.17-3.78,3.17s1.97-3.49,3.07-4.54
			c0.77-0.73,3.89-2.3,3.89-2.3L191.53,277.62z"/>
	</g>
	<g>
		
			<linearGradient id="SVGID_00000150799737904652229590000001614097083355237560_" gradientUnits="userSpaceOnUse" x1="181.3627" y1="262.8154" x2="218.9784" y2="262.8154" gradientTransform="matrix(-1 0 0 1 298.7815 0)">
			<stop  offset="0" style="stop-color:#F97CA9"/>
			<stop  offset="0.282" style="stop-color:#F778A7"/>
			<stop  offset="0.5726" style="stop-color:#F06BA2"/>
			<stop  offset="0.8663" style="stop-color:#E45799"/>
			<stop  offset="1" style="stop-color:#DD4B94"/>
		</linearGradient>
		<path style="fill:url(#SVGID_00000150799737904652229590000001614097083355237560_);" d="M81.13,251.69
			c0.79-0.46,14.55-9.52,15.38-8.31c0.83,1.2-1.75,3.49-1.21,5.19c0.54,1.7,5.69,1.5,7.82,2.26c0.21,0.07,0.43,0.21,0.66,0.35
			l0.1-0.23c0,0,1.73-1.05,4.58-1.15c2.85-0.1,5.94,1.51,5.94,1.51c2.36,0.87-2.8,4.06-5.71,5.69c0.42,2.58,1.89,11.13,3.37,13.73
			c1.76,3.07,5.36,5.13,5.36,5.13s-0.48,2.49-1.16,4.42c-0.99,2.82-3.21,2.2-5.86,1.4c-2.65-0.8-8.61-2.06-13.49-6.2
			c-4.89-4.14-5.18-8.56-6.47-9.2c-1.29-0.63-3.75,0.14-3.75,0.14s-3-3.02-5.92-6.67C78.78,257.28,80.35,252.14,81.13,251.69z"/>
		<path class="st19" d="M116.26,280.29c0,0-9.98-1.6-15.86-7.4c-5.88-5.81-7.04-11.13-10.8-12.1c-3.77-0.97-6.66-8.83-6.66-8.83
			s2.65,5.73,7.01,7.47c4.99,1.99,7.55,8.56,11.76,12.7c2.87,2.82,14.86,7.16,14.86,7.16L116.26,280.29z"/>
		<path class="st7" d="M111.19,268.58c0,0-2.01-0.53-5.32-1.35c-3.3-0.82-4.57-1.67-4.57-1.67s3.01-0.09,5.98,0.42
			c0.88,0.15,3.45,1.01,3.45,1.01L111.19,268.58z"/>
		<path class="st7" d="M109.97,263.76c0,0-3.85-1.01-5.13-1.34c-1.38-0.36-4.89-0.74-4.89-0.74s3.93-0.83,5.45-0.7
			c1.05,0.09,4.3,1.38,4.3,1.38L109.97,263.76z"/>
		<path class="st7" d="M109.13,259.67c0,0-3.85-1.01-5.13-1.35c-1.38-0.36-4.88-0.73-4.88-0.73s3.92-0.85,5.44-0.71
			c1.05,0.09,4.3,1.38,4.3,1.38L109.13,259.67z"/>
	</g>
	
		<linearGradient id="SVGID_00000147899746404681424830000003430974012280916667_" gradientUnits="userSpaceOnUse" x1="123.2514" y1="54.3673" x2="133.3086" y2="54.3673" gradientTransform="matrix(-1 0 0 1 298.7815 0)">
		<stop  offset="0" style="stop-color:#EFA08B"/>
		<stop  offset="0.6405" style="stop-color:#E48C78"/>
		<stop  offset="0.9948" style="stop-color:#DD7F6C"/>
	</linearGradient>
	<path style="fill:url(#SVGID_00000147899746404681424830000003430974012280916667_);" d="M175.53,58.44c0,0-4.48-1.22-6.27-3.16
		c-1.79-1.93-3.79-5.13-3.79-5.13s0.81,4.85,3.73,6.94C172.12,59.19,175.53,58.44,175.53,58.44z"/>
</g>
</svg>
