<?xml version="1.0" encoding="utf-8"?>
<!-- Generator: Adobe Illustrator 27.3.1, SVG Export Plug-In . SVG Version: 6.00 Build 0)  -->
<svg version="1.1" id="Слой_1" xmlns="http://www.w3.org/2000/svg" xmlns:xlink="http://www.w3.org/1999/xlink" x="0px" y="0px"
	 viewBox="0 0 300 300" style="enable-background:new 0 0 300 300;" xml:space="preserve">
<style type="text/css">
	.st0{fill:url(#SVGID_1_);}
	.st1{fill:url(#SVGID_00000070833060729844478460000017671128927781284013_);}
	.st2{fill:url(#SVGID_00000162334854330577655360000014082388217338370733_);}
	.st3{fill:url(#SVGID_00000025423796325749468110000017218448951046283670_);}
	.st4{fill:#098256;}
	.st5{fill:url(#SVGID_00000067211513034783885410000010107719501715216569_);}
	.st6{fill:url(#SVGID_00000080193805946524843550000000906154754777174193_);}
	.st7{fill:url(#SVGID_00000138562534380678468040000000896108576150312593_);}
	.st8{fill:#4199BF;}
	.st9{fill:url(#SVGID_00000170269867485122586000000010084762093246785419_);}
	.st10{fill:url(#SVGID_00000039103220321397724350000014491187407622984323_);}
	.st11{fill:#FFFFFF;}
	.st12{fill:url(#SVGID_00000138562738103935524820000012001280889662842498_);}
	.st13{fill:#5B1B1B;}
	.st14{fill:url(#SVGID_00000119819449992347590370000010812721196822891689_);}
	.st15{fill:#FFA08D;}
	.st16{fill:url(#SVGID_00000113332644697682871790000007080305132655889289_);}
	.st17{fill:#3794B5;}
	.st18{fill:url(#SVGID_00000170251020371928904810000012154721618710399151_);}
	.st19{fill:url(#SVGID_00000039847123806216967980000011763661500474881672_);}
	.st20{fill:url(#SVGID_00000099638653822933859380000008804491442198772898_);}
	.st21{fill:url(#SVGID_00000168112396299527650770000009147888433915693236_);}
</style>
<g>
	
		<linearGradient id="SVGID_1_" gradientUnits="userSpaceOnUse" x1="83.7478" y1="83.9485" x2="113.9947" y2="83.9485" gradientTransform="matrix(-1 0 0 1 298.7815 0)">
		<stop  offset="0" style="stop-color:#EFA08B"/>
		<stop  offset="0.6405" style="stop-color:#E48C78"/>
		<stop  offset="0.9948" style="stop-color:#DD7F6C"/>
	</linearGradient>
	<path class="st0" d="M203.49,60.76c-2.1-0.5-5.36,3.96-5.44,7.69c-0.08,3.73-0.08,7.04-1.17,8.76
		c-1.09,1.72-12.09,10.87-12.09,10.87l4.03,19.26c0,0,14.62-10.26,19.87-17.97c5.09-7.47,5.75-15.76,6.27-19.15
		c0.46-2.96-1.56-4.55-3.31-3.67c0.53-3.66-2.36-3.54-3.67-3.19C206.91,59.45,203.49,60.76,203.49,60.76z"/>
	
		<linearGradient id="SVGID_00000054975889688921663660000013580665286594860961_" gradientUnits="userSpaceOnUse" x1="111.9019" y1="38.0818" x2="151.1554" y2="38.0818" gradientTransform="matrix(-1 0 0 1 298.7815 0)">
		<stop  offset="0" style="stop-color:#FFC5B3"/>
		<stop  offset="0.3645" style="stop-color:#FBBBA8"/>
		<stop  offset="1" style="stop-color:#EFA08B"/>
	</linearGradient>
	<path style="fill:url(#SVGID_00000054975889688921663660000013580665286594860961_);" d="M152.35,39.49
		c-1.09-4.61-0.73-7.77-0.73-7.77s11.22-28,25.08-23.57c2.27,0.73,4.13,1.93,4.92,4.26c0.42,1.24,1,2.88,1.07,4.29
		c0.16,3.45-0.83,6.75-0.79,8.37c0.08,3.53,6.28,6.04,4.74,8.1c-0.5,0.67-3.52,0.94-3.33,2.37c0.14,1.05,1.24,1.45-0.04,2.56
		c-0.3,0.32-0.87,0.62-0.76,1.18c0.11,0.59,0.75,0.64,0.9,1.43c0.18,0.97-0.48,1.02-0.84,1.23c-0.43,0.25-0.08,1.15,0.42,2.33
		c1.5,3.55,0.36,4.6-2.71,6.52c-1.26,0.79-4.24,4.09-5.94,9.01c1.87,4.15,0.42,8.69,0.42,8.69L147.63,54.3
		C147.63,54.3,153.44,44.1,152.35,39.49z"/>
	
		<linearGradient id="SVGID_00000076580451825016288370000016389938404387948203_" gradientUnits="userSpaceOnUse" x1="134.3827" y1="2.5671" x2="134.3827" y2="43.6957" gradientTransform="matrix(-1 0 0 1 298.7815 0)">
		<stop  offset="0" style="stop-color:#7B2B08"/>
		<stop  offset="1" style="stop-color:#682007"/>
	</linearGradient>
	<path style="fill:url(#SVGID_00000076580451825016288370000016389938404387948203_);" d="M181.62,12.41c0,0,2.14-2.22,2.37-3.96
		c-2.1,0.08-11.03-6.49-18.74-5.84c-9.36,0.79-18.72,3.46-20.25,13.16c-0.89,5.63,1.85,14.91,3.48,17.98
		c1.63,3.08,3.62,9.93,3.62,9.93s2.97-1.34,4.29-3.51c0.8-1.42,2.33-3.08,2.56-5.85c-1.56-3.55-3.14-7.84,0.81-8.38
		c3.02-0.41,5.54,4.43,5.54,4.43l1.38-0.79c0,0-1.42-8.31,3.02-11.15C169.6,15.12,166.81,8.74,181.62,12.41z"/>
	
		<linearGradient id="SVGID_00000111160836536017738340000004999428144543319986_" gradientUnits="userSpaceOnUse" x1="168.5342" y1="155.3307" x2="168.5342" y2="252.1672" gradientTransform="matrix(-1 0 0 1 298.7815 0)">
		<stop  offset="0" style="stop-color:#FFC5B3"/>
		<stop  offset="0.3645" style="stop-color:#FBBBA8"/>
		<stop  offset="1" style="stop-color:#EFA08B"/>
	</linearGradient>
	<path style="fill:url(#SVGID_00000111160836536017738340000004999428144543319986_);" d="M165.74,180.95c0,0,24.63,3.51,19.05,12.7
		c-3.12,5.14-15.7,15.66-21.06,22.24c-8.13,9.99-16.2,10.52-30.46,12.95c-13.64,2.32-52.85,23.32-52.85,23.32l-5.52-12.25
		c0,0,3.27-5.82,12.49-22.06c6.78-11.95,13.69-14.78,18.18-17.18c10.1-5.4,12.84-5.96,14.16-9.88c2.5-7.41,15.11-35.46,15.11-35.46
		L165.74,180.95z"/>
	<path class="st4" d="M173.32,192.06l-11.51,25.66c0,0-10.82,1.73-24.63-7.68c-9.98-6.8-17.99-17.96-17.99-17.96
		s11.63-27.71,14.43-43.97C147.21,143.99,173.32,192.06,173.32,192.06z"/>
	
		<linearGradient id="SVGID_00000055702762554680723060000014611383468863558291_" gradientUnits="userSpaceOnUse" x1="116.0386" y1="175.7475" x2="116.0386" y2="289.192" gradientTransform="matrix(-1 0 0 1 298.7815 0)">
		<stop  offset="0" style="stop-color:#FFC5B3"/>
		<stop  offset="0.3645" style="stop-color:#FBBBA8"/>
		<stop  offset="1" style="stop-color:#EFA08B"/>
	</linearGradient>
	<path style="fill:url(#SVGID_00000055702762554680723060000014611383468863558291_);" d="M192.27,175.75c0,0,15.89,1.85,18.71,8.04
		c3.07,6.71,5.75,9.54,5.82,16.64c0.06,6.89-3.83,22.07,0.4,44.32c1.28,6.73,8.68,34.8,8.68,34.8l-11.96,9.64
		c0,0-30.18-28.68-34.08-39.6c-5.76-16.11-3.05-15.46-6.53-22.58c-3.48-7.12-33.72-33.37-33.72-33.37S188.41,185.5,192.27,175.75z"
		/>
	
		<linearGradient id="SVGID_00000046339053103342496820000004115591889621195932_" gradientUnits="userSpaceOnUse" x1="130.7981" y1="131.167" x2="130.7981" y2="219.4593" gradientTransform="matrix(-1 0 0 1 298.7815 0)">
		<stop  offset="0" style="stop-color:#15A072"/>
		<stop  offset="0.4562" style="stop-color:#119568"/>
		<stop  offset="1" style="stop-color:#098256"/>
	</linearGradient>
	<path style="fill:url(#SVGID_00000046339053103342496820000004115591889621195932_);" d="M201.9,131.29c0,0,12.16-1.03,12.46,2.87
		c0.36,4.74,2.14,14.64-1.85,24.03c-3.41,8.02-4.22,11.15-1.3,17.55c5,10.99,6.78,21.81,6.78,21.81s-8.34,9.12-22.42,12.49
		c-10.11,2.41-32.01,9.41-32.01,9.41s-20.54-20.28-34.46-35.71c-16.12-17.87-9.93-50.09-9.93-50.09L201.9,131.29z"/>
	
		<linearGradient id="SVGID_00000064325532361718817340000015429271371248695206_" gradientUnits="userSpaceOnUse" x1="134.3169" y1="49.0754" x2="134.3169" y2="163.0657" gradientTransform="matrix(-1 0 0 1 298.7815 0)">
		<stop  offset="0" style="stop-color:#7DC7DB"/>
		<stop  offset="0.5426" style="stop-color:#65BACE"/>
		<stop  offset="1" style="stop-color:#55B1C6"/>
	</linearGradient>
	<path style="fill:url(#SVGID_00000064325532361718817340000015429271371248695206_);" d="M174.33,59.22
		c3.7,1.65,8.64,1.33,13.48,8.01c2.87,3.97,1.51,11.91,4.02,21.45c1.28,4.85,26.24,29.58,23.2,61.17
		c-11.55,9.86-45.25,13.18-57.16,13.21c-31.14,0.07-39.89-2.26-39.89-2.26s-4.35-26.85,5.9-49.53c2.69-5.97,9.56-17.6,9.56-17.6
		s-9.37-13.49-19.8-17.31c1.91-5.59,5.44-11.14,11.81-17.74c10.6-11,18.62-10.48,25.28-8.26c3.22,1.18,17.13,11.87,20.43,13.29
		C173.49,64.66,174.33,60.92,174.33,59.22z"/>
	<path class="st8" d="M131.9,95.99c0,0,14.35-18.08,20.52-10.92c2.75,3.19,5.45,14.99-2.65,20.99c-4.87,3.61-17.32,4.64-19.53,7.65
		C132.58,104.56,132.52,95.86,131.9,95.99z"/>
	
		<linearGradient id="SVGID_00000031171558222599969700000013961211825578695601_" gradientUnits="userSpaceOnUse" x1="125.1461" y1="101.884" x2="193.2258" y2="101.884" gradientTransform="matrix(-1 0 0 1 298.7815 0)">
		<stop  offset="0" style="stop-color:#FFC5B3"/>
		<stop  offset="0.3645" style="stop-color:#FBBBA8"/>
		<stop  offset="1" style="stop-color:#EFA08B"/>
	</linearGradient>
	<path style="fill:url(#SVGID_00000031171558222599969700000013961211825578695601_);" d="M108.24,89.55
		c1.05-5.6,5.4-13.19,5.4-13.19s5.42,1.02,11.68,6.49c5.22,4.57,8.12,10.82,8.12,10.82l-1.54,2.31c0,0,13.46,8.18,21.7,11.94
		c4.42,2.01,8.8,1.05,11.4,1.51c3.32,0.58,10.75,2.88,8.05,6.42c0.59,1.6,0.1,3.94-1.82,4.49c1.43,2.15-0.37,3.71-1.38,3.9
		c0.72,2.76-1.57,4.02-6.31,2.51c-6.05-1.93-5.53,0.01-18.99-4.19c-14.11-4.39-18.41-6.09-24.68-7.99
		c-4.63-1.4-11.03-5.13-13.87-11.23C104.4,99.88,107.47,93.63,108.24,89.55z"/>
	<g>
		
			<linearGradient id="SVGID_00000099655775316798155830000005033619252127705231_" gradientUnits="userSpaceOnUse" x1="48.9042" y1="282.5385" x2="96.8782" y2="282.5385" gradientTransform="matrix(-1 0 0 1 298.7815 0)">
			<stop  offset="0" style="stop-color:#7DC7DB"/>
			<stop  offset="0.5426" style="stop-color:#65BACE"/>
			<stop  offset="1" style="stop-color:#55B1C6"/>
		</linearGradient>
		<path style="fill:url(#SVGID_00000099655775316798155830000005033619252127705231_);" d="M203.77,276.32
			c2.08-0.78,3.91,2.38,5.64,3.14c1.73,0.77,5.19-3.46,7.31-4.61c0.21-0.11,0.47-0.19,0.74-0.27l-0.11-0.24c0,0,0.38-2.11,2.31-4.44
			s5.38-3.65,5.38-3.65c2.35-1.26,1.25,5.08,0.5,8.54c2.35,1.49,10.17,6.34,13.28,6.99c3.67,0.77,7.85-0.64,7.85-0.64
			s1.64,2.14,2.69,4.04c1.54,2.77-0.52,4.1-3.02,5.63c-2.5,1.54-7.69,5.38-14.42,6.35c-6.73,0.96-10.44-1.92-11.85-1.35
			c-1.41,0.58-2.53,3.08-2.53,3.08s-4.51,0.26-9.46,0c-3.37-0.17-6.35-5.03-6.15-5.98C202.1,291.96,202.32,276.86,203.77,276.32z"/>
		<path class="st8" d="M249.35,285.18c0,0-8.29,6.8-17.04,7.37c-8.75,0.58-13.79-2.25-17.21,0.06c-3.42,2.31-11.7-0.94-11.7-0.94
			s6.41,1.93,10.87-0.31c5.1-2.56,12.11,0.04,18.36-0.39c4.26-0.29,16.15-6.75,16.15-6.75L249.35,285.18z"/>
		<path class="st11" d="M236.48,280.95c0,0-1.84,1.23-4.82,3.27c-2.98,2.04-4.54,2.45-4.54,2.45s2.04-2.45,4.54-4.45
			c0.74-0.59,3.23-2.03,3.23-2.03L236.48,280.95z"/>
		<path class="st11" d="M231.8,278.52c0,0-3.51,2.34-4.68,3.12c-1.26,0.84-4.03,3.37-4.03,3.37s2.11-3.71,3.28-4.82
			c0.82-0.77,4.13-2.44,4.13-2.44L231.8,278.52z"/>
		<path class="st11" d="M227.96,276.31c0,0-3.51,2.34-4.68,3.12c-1.26,0.84-4.02,3.37-4.02,3.37s2.09-3.71,3.26-4.82
			c0.82-0.77,4.13-2.44,4.13-2.44L227.96,276.31z"/>
	</g>
	<g>
		
			<linearGradient id="SVGID_00000143616022056623652660000014839483906966279858_" gradientUnits="userSpaceOnUse" x1="222.0319" y1="342.1485" x2="261.9432" y2="342.1485" gradientTransform="matrix(-0.8711 -0.4911 -0.4911 0.8711 450.9096 74.6582)">
			<stop  offset="0" style="stop-color:#7DC7DB"/>
			<stop  offset="0.5426" style="stop-color:#65BACE"/>
			<stop  offset="1" style="stop-color:#55B1C6"/>
		</linearGradient>
		<path style="fill:url(#SVGID_00000143616022056623652660000014839483906966279858_);" d="M61.57,234.76
			c0.96-0.01,16.46-2.59,17.24-1.26c1.13,1.91-2.14,3.9-2.52,5.75c-0.39,1.85,4.48,4.35,6.05,6.17c0.15,0.18,0.29,0.42,0.42,0.67
			l0.21-0.16c0,0,2.15-0.07,4.83,1.32c2.68,1.39,4.71,4.49,4.71,4.49c1.73,2.03-4.71,2.29-8.24,2.28
			c-0.96,2.61-4.06,11.28-4.04,14.45c0.02,3.75,2.27,7.54,2.27,7.54s-1.75,2.05-3.38,3.48c-2.39,2.09-4.11,0.36-6.14-1.76
			c-2.03-2.12-6.88-6.38-9.24-12.76c-2.36-6.38-0.32-10.61-1.18-11.87c-0.86-1.26-3.54-1.82-3.54-1.82s-1.2-4.36-1.99-9.25
			C56.48,238.71,60.6,234.78,61.57,234.76z"/>
		<path class="st8" d="M79.12,279.5c0,0-8.39-6.68-10.8-15.11c-2.41-8.43-0.7-13.95-3.68-16.81c-2.98-2.86-1.55-11.63-1.55-11.63
			s-0.54,6.67,2.59,10.56c3.58,4.44,2.52,11.85,4.25,17.87c1.18,4.1,10.01,14.37,10.01,14.37L79.12,279.5z"/>
		<path class="st11" d="M80.54,266.04c0,0-1.58-1.54-4.21-4.02c-2.63-2.48-3.35-3.92-3.35-3.92s2.83,1.48,5.3,3.5
			c0.74,0.6,2.66,2.73,2.66,2.73L80.54,266.04z"/>
		<path class="st11" d="M81.93,260.95c0,0-3.03-2.94-4.04-3.92c-1.09-1.06-4.14-3.23-4.14-3.23s4.07,1.28,5.4,2.19
			c0.93,0.64,3.25,3.52,3.25,3.52L81.93,260.95z"/>
		<path class="st11" d="M83.28,256.73c0,0-3.03-2.94-4.04-3.92c-1.09-1.06-4.14-3.22-4.14-3.22s4.06,1.26,5.39,2.17
			c0.93,0.64,3.25,3.52,3.25,3.52L83.28,256.73z"/>
	</g>
	<path class="st13" d="M179.16,17.64c1.14,0.06,2.61,0.8,1.64,1.32c-0.53,0.28-2.17-0.01-4.02,0.71c-1.9,0.74-4.6,2.91-4.6,2.91
		S174.37,17.38,179.16,17.64z"/>
	
		<linearGradient id="SVGID_00000101808620120539920520000014311917243776816514_" gradientUnits="userSpaceOnUse" x1="137.7052" y1="34.2381" x2="137.7052" y2="27.4078" gradientTransform="matrix(-1 0 0 1 298.7815 0)">
		<stop  offset="0" style="stop-color:#EFA08B"/>
		<stop  offset="0.2778" style="stop-color:#E7917D"/>
		<stop  offset="0.6579" style="stop-color:#E08470"/>
		<stop  offset="0.9948" style="stop-color:#DD7F6C"/>
	</linearGradient>
	<path style="fill:url(#SVGID_00000101808620120539920520000014311917243776816514_);" d="M163.55,30.87c0,0-2.13-4.01-3.61-3.4
		c-1.48,0.6-1.33,2.98-1.33,2.98s1.18-1.24,2.3-0.7c1.11,0.55,0.14,1.71,0,2.18c-0.47,1.53,1.58,2.31,1.58,2.31s-0.3-1.56-0.17-2.31
		C162.46,31.09,163.55,30.87,163.55,30.87z"/>
	<path class="st15" d="M203.95,207.17l5.62-2.99c0,0,0.72,3.81-1.12,6.72c-0.83,1.31-3.64,5-3.64,5L203.95,207.17z"/>
	
		<linearGradient id="SVGID_00000119833505537651010820000006778044975546090370_" gradientUnits="userSpaceOnUse" x1="185.1426" y1="101.7069" x2="189.49" y2="101.7069" gradientTransform="matrix(-1 0 0 1 298.7815 0)">
		<stop  offset="0" style="stop-color:#EFA08B"/>
		<stop  offset="0.0862" style="stop-color:#ED9C87"/>
		<stop  offset="0.6354" style="stop-color:#E18773"/>
		<stop  offset="0.9948" style="stop-color:#DD7F6C"/>
	</linearGradient>
	<path style="fill:url(#SVGID_00000119833505537651010820000006778044975546090370_);" d="M109.29,100.11
		c2.96-0.47,4.35,3.24,4.35,3.24S109.19,102.24,109.29,100.11z"/>
	<path class="st11" d="M179.11,23.54c0,0,0.36,1.76,0.14,2.46c-0.37,1.13-1.61,1.16-2.6,0.91c-0.99-0.25-1.89-0.98-1.89-0.98
		l2.39-1.43L179.11,23.54z"/>
	<path class="st17" d="M179.32,23.63c0,0,0.43,2.61-0.54,2.98c-1.33,0.5-1.22-2.14-1.22-2.14L179.32,23.63z"/>
	<path class="st13" d="M178.13,25.29c0,0.37,0.19,0.68,0.43,0.68c0.24,0,0.43-0.3,0.43-0.68c0-0.37-0.19-0.68-0.43-0.68
		C178.32,24.61,178.13,24.91,178.13,25.29z"/>
	<path class="st11" d="M178.47,24.72c0,0.27,0.14,0.5,0.32,0.5c0.18,0,0.32-0.22,0.32-0.5c0-0.27-0.14-0.5-0.32-0.5
		C178.61,24.22,178.47,24.45,178.47,24.72z"/>
	<path class="st15" d="M184.55,33.18c0,0-0.18,0.39-0.77,0.94c-0.59,0.55-1.09,0-0.59-0.47C183.67,33.18,184.55,33.18,184.55,33.18z
		"/>
	<path class="st13" d="M179.44,22.72c0.24-0.17,0.64,0.25,0.39,0.61c-0.54,0.78-1.92,1.51-2.99,1.99c-1.09,0.49-2.51,0.68-2.51,0.68
		S177.96,23.75,179.44,22.72z"/>
	
		<linearGradient id="SVGID_00000011725010441418543090000002043642426222018476_" gradientUnits="userSpaceOnUse" x1="119.0462" y1="22.7616" x2="123.4526" y2="22.7616" gradientTransform="matrix(-1 0 0 1 298.7815 0)">
		<stop  offset="0" style="stop-color:#EFA08B"/>
		<stop  offset="0.156" style="stop-color:#EB9984"/>
		<stop  offset="0.6493" style="stop-color:#E18672"/>
		<stop  offset="0.9948" style="stop-color:#DD7F6C"/>
	</linearGradient>
	<path style="fill:url(#SVGID_00000011725010441418543090000002043642426222018476_);" d="M179.74,21.66c0,0-1.33,0.93-2.33,1.48
		c-1,0.56-2.08,1.08-2.08,1.08s2.74-2.38,3.46-2.75C179.74,20.99,179.74,21.66,179.74,21.66z"/>
	
		<linearGradient id="SVGID_00000070837496704876643030000013002501032403410098_" gradientUnits="userSpaceOnUse" x1="113.9947" y1="15.188" x2="154.4531" y2="15.188" gradientTransform="matrix(-1 0 0 1 298.7815 0)">
		<stop  offset="0" style="stop-color:#B24E2B"/>
		<stop  offset="0.3843" style="stop-color:#AA4727"/>
		<stop  offset="1" style="stop-color:#A34123"/>
	</linearGradient>
	<path style="fill:url(#SVGID_00000070837496704876643030000013002501032403410098_);" d="M184.79,8.01l-1.34,1.68
		c0,0-9.1-5.22-14.89-6.4c-6.01-1.23-9.65,0.57-13.07,2.64c-7.37,4.46-8.69,7.84-9.02,11.71c-0.49,5.8,0.3,11.74,0.3,11.74
		s-6.01-13.49,0.86-21.33s16.82-8.02,23.2-5.86C175.53,3.78,184.79,8.01,184.79,8.01z"/>
	
		<linearGradient id="SVGID_00000075129642940924196770000009489110465944588451_" gradientUnits="userSpaceOnUse" x1="115.2653" y1="39.0272" x2="118.9347" y2="39.0272" gradientTransform="matrix(-1 0 0 1 298.7815 0)">
		<stop  offset="0" style="stop-color:#EFA08B"/>
		<stop  offset="0.156" style="stop-color:#EB9984"/>
		<stop  offset="0.6493" style="stop-color:#E18672"/>
		<stop  offset="0.9948" style="stop-color:#DD7F6C"/>
	</linearGradient>
	<path style="fill:url(#SVGID_00000075129642940924196770000009489110465944588451_);" d="M182.76,39.75
		c-0.88,0.05-1.77,0.5-2.37,0.43c-0.31-0.04-0.97-0.6-0.15-1.42c0.83-0.83,3.27-0.89,3.27-0.89S182.15,38.9,182.76,39.75z"/>
	
		<linearGradient id="SVGID_00000124867836966064623690000015127062129971693982_" gradientUnits="userSpaceOnUse" x1="125.1463" y1="45.6657" x2="135.2312" y2="45.6657" gradientTransform="matrix(-1 0 0 1 298.7815 0)">
		<stop  offset="0" style="stop-color:#EFA08B"/>
		<stop  offset="0.156" style="stop-color:#EB9984"/>
		<stop  offset="0.6493" style="stop-color:#E18672"/>
		<stop  offset="0.9948" style="stop-color:#DD7F6C"/>
	</linearGradient>
	<path style="fill:url(#SVGID_00000124867836966064623690000015127062129971693982_);" d="M173.64,48.63c0,0-1.13,0.22-5.04-1.71
		c-2.46-1.22-5.04-4.47-5.04-4.47s0.21,4.14,3.89,5.67C170.53,49.42,173.64,48.63,173.64,48.63z"/>
	<path class="st8" d="M176.04,66.43c0,0-0.89,4.26-5.51,1.89c-4.62-2.37-12.66-9.7-12.66-9.7s6.87,12.91,14.56,14.09
		C180.12,73.9,176.04,66.43,176.04,66.43z"/>
	<path class="st8" d="M178.13,153.51c0,0-23.74,6.76-37.06,5.3c-13.32-1.46-18.83-2.55-18.83-2.55s11.56-1.54,22.08-2.75
		C154.85,152.3,178.13,153.51,178.13,153.51z"/>
</g>
</svg>
