<?xml version="1.0" encoding="utf-8"?>
<!-- Generator: Adobe Illustrator 27.3.1, SVG Export Plug-In . SVG Version: 6.00 Build 0)  -->
<svg version="1.1" id="Слой_1" xmlns="http://www.w3.org/2000/svg" xmlns:xlink="http://www.w3.org/1999/xlink" x="0px" y="0px"
	 viewBox="0 0 300 300" style="enable-background:new 0 0 300 300;" xml:space="preserve">
<style type="text/css">
	.st0{fill:url(#SVGID_1_);}
	.st1{fill:#FFA08D;}
	.st2{fill:#682356;}
	.st3{fill:url(#SVGID_00000140732189170421075270000001822244180041376147_);}
	.st4{fill:url(#SVGID_00000136392569756221967130000017977808503938015659_);}
	.st5{fill:#F967A9;}
	.st6{fill:#7B2B08;}
	.st7{fill:#FFFFFF;}
	.st8{fill:#3794B5;}
	.st9{fill:#5B1B1B;}
	.st10{fill:url(#SVGID_00000041286585855686984400000005405959089047127470_);}
	.st11{fill:url(#SVGID_00000155841300462901214750000009892216238880221879_);}
	.st12{fill:url(#SVGID_00000153690023450740566660000010232585812661302403_);}
	.st13{fill:url(#SVGID_00000170997089182893573690000000769496682677455749_);}
	.st14{fill:url(#SVGID_00000107557658835308627570000016903896992292792475_);}
	.st15{fill:url(#SVGID_00000017509746853617358520000016341958579093109124_);}
	.st16{fill:#FFC5B3;}
	.st17{fill:url(#SVGID_00000036931790675259797690000018432857714203548811_);}
	.st18{fill:url(#SVGID_00000083061250255657381840000015628151020987480996_);}
	.st19{fill:#DD4B94;}
	.st20{fill:url(#SVGID_00000054249748428927506740000014518385842685420732_);}
	.st21{fill:url(#SVGID_00000030448113649588970130000014480733548116784036_);}
	.st22{fill:url(#SVGID_00000183243643855351834140000008825796991018868668_);}
	.st23{fill:url(#SVGID_00000043454485735283810340000012353268839693239956_);}
	.st24{fill:url(#SVGID_00000074407237207411980570000004008366439344598956_);}
</style>
<g>
	
		<linearGradient id="SVGID_1_" gradientUnits="userSpaceOnUse" x1="83.1592" y1="114.5793" x2="129.1293" y2="114.5793" gradientTransform="matrix(-1 0 0 1 298.7815 0)">
		<stop  offset="0" style="stop-color:#EFA08B"/>
		<stop  offset="0.6405" style="stop-color:#E48C78"/>
		<stop  offset="0.9948" style="stop-color:#DD7F6C"/>
	</linearGradient>
	<path class="st0" d="M177.23,111.92c0,0,17.2-0.15,21.18-1.63c2.33-0.86,3.42-3.51,5.27-5.58c2.6-2.9,2.45-2.05,6.05-1.39
		c4.33,0.79,4.33,2.24,3.66,4.51c1.14,0.93,2.09,2.32,0.97,4.46c1.74,1.32,1.7,3.77-0.33,5.11c-6.14,4.06-8.28,3.12-15.91,5.07
		c-4.6,1.18-15.17,4.66-22.07,3.91c-5.68-0.62-4.93-0.99-5.94-2.74C167.44,119,177.23,111.92,177.23,111.92z"/>
	<path class="st1" d="M92.64,248.2c0,0,3.1-10.49,12.3-21.44c2.59,4.59,13.45,9.57,17.78,12.27c-11.26,8.14-21.88,16.58-21.88,16.58
		l-10.63,0.95L92.64,248.2z"/>
	<path class="st2" d="M180.49,183.44c-1.37,2.89-14.14,28.12-19.65,35.55c-5.51,7.43-11.73,7.51-20.42,12.28
		c-5.95,3.27-25.23,13.29-25.23,13.29s-6.64-1-8.96-2.91c-2.98-2.46-6.53-7.8-6.53-7.8s2.66-18.37,10.28-26.65
		c8.34-9.07,12.74-10.11,12.74-10.11s-4.2-19.47,1.62-39.36C127.86,145.69,180.49,183.44,180.49,183.44z"/>
	<g>
		
			<linearGradient id="SVGID_00000105395162749187747390000015754893698075746991_" gradientUnits="userSpaceOnUse" x1="105.5418" y1="50.5609" x2="150.8973" y2="50.5609" gradientTransform="matrix(-1 0 0 1 298.7815 0)">
			<stop  offset="0" style="stop-color:#FFC5B3"/>
			<stop  offset="0.3645" style="stop-color:#FBBBA8"/>
			<stop  offset="1" style="stop-color:#EFA08B"/>
		</linearGradient>
		<path style="fill:url(#SVGID_00000105395162749187747390000015754893698075746991_);" d="M179.91,83.13l-32.02-14.33
			c0,0,7.47-9.98,8.32-14.23c1.43-7.08-1.11-16.51-1.01-17.67l0,0c-0.33-1.02-0.59-2.27-0.72-3.89
			c-0.95-12.06,14.38-16.19,25.2-14.73c4.37,0.59,5.64,0.24,7.36,4.47c1.72,4.24-0.17,4.32,0.3,10.45c0.13,1.7,2.75,3.81,4.04,5.24
			c0.97,1.07,2.01,1.5,1.83,1.98c-0.79,2.11-2.17,1.55-3.14,2.6c-0.36,0.39-1.16,1.21-0.4,2.37c-1.86,0.99-3.56,1.52-3.61,1.91
			c-0.18,1.21,2.4,0.72,2.15,1.75c-0.4,1.68,1.76,4.25,1.22,6.59c-0.8,3.47-3.83,2.36-6.07,6.71c-1.93,3.75-3.18,3.08-4.42,9
			C178.08,75.51,179.91,83.13,179.91,83.13z"/>
		
			<linearGradient id="SVGID_00000017485805277944451380000017371363586114800005_" gradientUnits="userSpaceOnUse" x1="143.2195" y1="15.485" x2="164.987" y2="15.485" gradientTransform="matrix(-1 0 0 1 298.7815 0)">
			<stop  offset="0" style="stop-color:#7B2B08"/>
			<stop  offset="1" style="stop-color:#682007"/>
		</linearGradient>
		<path style="fill:url(#SVGID_00000017485805277944451380000017371363586114800005_);" d="M135.29,19.32
			c0.42-5.28,4.23-4.19,6.86-11.14c2.89-7.63,11.46-7.96,12.81-1.66c1.35,6.3,0,11.93,0,11.93l-8.02,8.98c0,0-1.18,0.1-2.78,0
			c-1.28,0.62-2.92,1.32-4.12,1.44c-2.22,0.22-6.01-3.06-6.23-5.07C133.66,22.42,134.65,20.44,135.29,19.32z M138.82,27.26
			c0.85,0.12,1.74-0.01,2.57-0.23c-2.93-0.65-5.96-2.22-6.13-5.97c-0.01-0.29-0.01-0.53-0.01-0.79c-0.18,0.78-0.32,1.69-0.22,2.5
			C135.26,24.66,136.04,26.88,138.82,27.26z"/>
		<path class="st5" d="M156.81,13.6c0,0,0.29-2.86-4.21,0c-6.09,3.87-7.3,10.83-5.66,13.82c1.64,2.99,3.72,2.32,3.72,2.32
			L156.81,13.6z"/>
		<path class="st6" d="M146.27,33.09c1-3.28,2-5.62,2-5.62s0.03-0.01,0.05-0.01c0.12-0.82,0.24-1.63,0.47-2.46
			c4.71-16.81,22.01-15.32,27.45-13.83c11.61,3.18,10.17,9.18,10.17,9.18s-5.19,0.61-10.17-0.71c-2.34,1.98-1.47,5.53-2.05,7.79
			c-0.67,2.61-3.73,5.67-3.39,8.66c-1.84-1.93-4.75-1.85-6.17,2.05c-1.08,2.96,0.39,4.37,1.53,6.57c-0.37,6.81-9.95,9.86-9.95,9.86
			s-7.11-3.73-9.94-9.35C144.46,41.61,145.6,35.29,146.27,33.09z"/>
		<path class="st5" d="M189.1,44.47c0,0,1.18-0.2,0.9,0.96c-0.22,0.9-2.76,1.86-2.76,1.86s2.01,0.63,2.2,1.94
			c0.17,1.17-1.22,0.91-1.22,0.91s-1.8-0.91-3.82-2.56C186.47,46.03,189.1,44.47,189.1,44.47z"/>
		<path class="st7" d="M184.55,31.96c0,0,0.11,1.1,0.07,1.78c-0.04,0.68-0.13,1.81-1.8,1.77c-1.67-0.04-3.2-1.08-3.2-1.08
			L184.55,31.96z"/>
		<path class="st8" d="M184.59,32.28c0,0,0.49,2.53-0.57,2.92c-1.46,0.54-1.33-2.32-1.33-2.32L184.59,32.28z"/>
		<ellipse class="st9" cx="183.91" cy="34.04" rx="0.55" ry="0.84"/>
		<ellipse class="st7" cx="184.04" cy="33.2" rx="0.35" ry="0.54"/>
		<path class="st9" d="M184.15,25.24c1.27,0.07,2.42,0.6,1.68,1.15c-1.14,0.83-2.37-0.11-4.3,1.06c-1.35,0.82-4.34,4.51-4.34,4.51
			S178.84,24.93,184.15,25.24z"/>
		<path class="st9" d="M179.62,34.43c0,0,2.23-1.2,3.07-1.77c1.27-0.87,2.36-1.77,2.36-1.77s0.28,0.79,1.3,1.13
			c0.78,0.26,1.87,0.19,1.87,0.19s-1.87,0.49-3.07,0.29c0.19,0.51,0.63,0.88,1.01,1.11c-1.42,0.09-2.08-0.56-2.33-0.92
			c-0.69,0.49-1.51,0.94-2.18,1.18C180.07,34.43,179.62,34.43,179.62,34.43z"/>
		<path class="st1" d="M191.27,41.19c0,0-1.06,0.15-1.59,0.68c-0.53,0.53-0.12,0.98,0.51,0.53
			C190.81,41.94,191.27,41.19,191.27,41.19z"/>
		
			<linearGradient id="SVGID_00000038409343374031769730000013624157349433488807_" gradientUnits="userSpaceOnUse" x1="113.4524" y1="30.8449" x2="118.2915" y2="30.8449" gradientTransform="matrix(-1 0 0 1 298.7815 0)">
			<stop  offset="0" style="stop-color:#EFA08B"/>
			<stop  offset="0.156" style="stop-color:#EB9984"/>
			<stop  offset="0.6493" style="stop-color:#E18672"/>
			<stop  offset="0.9948" style="stop-color:#DD7F6C"/>
		</linearGradient>
		<path style="fill:url(#SVGID_00000038409343374031769730000013624157349433488807_);" d="M185.33,29.03v0.91
			c0,0-1.35,0.91-2.64,1.74c-1.29,0.83-2.2,0.98-2.2,0.98S182.12,30.69,185.33,29.03z"/>
		
			<linearGradient id="SVGID_00000092448756390027036160000016287043839018194842_" gradientUnits="userSpaceOnUse" x1="127.8175" y1="40.8108" x2="132.4052" y2="40.8108" gradientTransform="matrix(-1 0 0 1 298.7815 0)">
			<stop  offset="0" style="stop-color:#EFA08B"/>
			<stop  offset="0.2778" style="stop-color:#E7917D"/>
			<stop  offset="0.6579" style="stop-color:#E08470"/>
			<stop  offset="0.9948" style="stop-color:#DD7F6C"/>
		</linearGradient>
		<path style="fill:url(#SVGID_00000092448756390027036160000016287043839018194842_);" d="M166.38,39.39c0,0,0.49-2.14,2.31-1.75
			c1.82,0.39,2.28,3.11,2.28,3.11s-1.59-0.23-1.52,1.06s0.83,1.51,0.83,1.51s-0.53,0.86-1.29,0.7c-0.76-0.17-1.52-1.23-0.99-2.21
			c0.53-0.98,0.99-1.69,0.67-2.11C167.78,38.53,166.38,39.39,166.38,39.39z"/>
		
			<linearGradient id="SVGID_00000067938619718625463660000008411598228339752868_" gradientUnits="userSpaceOnUse" x1="126.5026" y1="27.2628" x2="146.1865" y2="27.2628" gradientTransform="matrix(-1 0 0 1 298.7815 0)">
			<stop  offset="0" style="stop-color:#B24E2B"/>
			<stop  offset="0.3843" style="stop-color:#AA4727"/>
			<stop  offset="1" style="stop-color:#A34123"/>
		</linearGradient>
		<path style="fill:url(#SVGID_00000067938619718625463660000008411598228339752868_);" d="M172.28,31.32
			c-2.93-1.83-7.38-0.36-13.01-3.85c-1.66-1.03-6.68-9.02-6.68-9.02s1.33,8.52,4.21,11.3c3.48,3.34,6.63,5.13,9.23,6.05
			c3.07-1.84,4.76,0.29,4.76,0.29S171.19,33.09,172.28,31.32z"/>
		
			<linearGradient id="SVGID_00000133515532992893321190000003166600220892710796_" gradientUnits="userSpaceOnUse" x1="113.1804" y1="15.6046" x2="143.6186" y2="15.6046" gradientTransform="matrix(-1 0 0 1 298.7815 0)">
			<stop  offset="0" style="stop-color:#B24E2B"/>
			<stop  offset="0.3843" style="stop-color:#AA4727"/>
			<stop  offset="1" style="stop-color:#A34123"/>
		</linearGradient>
		<path style="fill:url(#SVGID_00000133515532992893321190000003166600220892710796_);" d="M156.04,13.66
			c0.69-1.11,2.06-3.1,3.75-4.32c2.42-1.74,4.02-2.24,6.81-1.74c2.79,0.5,10.6,3.34,10.6,3.34l-0.01,0
			c7.14,2.06,8.42,5.87,8.42,5.87s-3.22-3.54-13.32-5.32c-6.45-1.13-11.38,0.01-13.41,1.49c2.25,0.49,5.57,0.54,9.93,1.79
			c4.32,1.24,7.45,4.84,7.45,4.84s-1.19,1.08-1.72,4.17c-2.25-2.26-3.47-5.66-7.21-7.05c-6.78-2.51-12.15-1.97-12.15-1.97
			S155.42,14.31,156.04,13.66z M170.97,9.84c0.35,0.03,0.65,0.08,0.98,0.11c-1.72-0.58-3.83-1.27-5.36-1.69
			c-3.05-0.83-6.42,1.17-7.78,3.37c0,0-0.01,0.01-0.01,0.01C161.21,10.37,165.03,9.32,170.97,9.84z"/>
		
			<linearGradient id="SVGID_00000139272257207559474100000013557724295479487617_" gradientUnits="userSpaceOnUse" x1="142.5741" y1="6.6664" x2="159.2203" y2="6.6664" gradientTransform="matrix(-1 0 0 1 298.7815 0)">
			<stop  offset="0" style="stop-color:#B24E2B"/>
			<stop  offset="1" style="stop-color:#A34123"/>
		</linearGradient>
		<path style="fill:url(#SVGID_00000139272257207559474100000013557724295479487617_);" d="M139.6,7.42
			c0.22-2.09,1.67-5.32,5.7-4.88c0.39,0.04,0.75,0.15,1.1,0.26c0.76-0.85,2.96-2.82,6.19-1.15c2.57,1.33,3.13,4.04,3.46,5.34
			c0.33,1.3,0,5.34,0,5.34h-1.45c0,0,0.34-6.9-3.07-8.47c-2.13-0.98-3.72-1.01-4.61-0.89c2.99,1.22,4.61,4.44,4.61,4.44
			c-1.81-2.62-5.49-3.77-6.58-3.88c-1.09-0.11-2.91,0.88-3.92,2.65c-1,1.77,0.14,4.12,0.14,4.12l-0.86,1.39
			C140.32,11.7,139.37,9.51,139.6,7.42z"/>
		
			<linearGradient id="SVGID_00000031177645675571678130000015472374497301442445_" gradientUnits="userSpaceOnUse" x1="148.4279" y1="14.7244" x2="163.7501" y2="14.7244" gradientTransform="matrix(-1 0 0 1 298.7815 0)">
			<stop  offset="0" style="stop-color:#B24E2B"/>
			<stop  offset="1" style="stop-color:#A34123"/>
		</linearGradient>
		<path style="fill:url(#SVGID_00000031177645675571678130000015472374497301442445_);" d="M150.35,15.37c0,0-0.63-2.97-5.05-4.42
			c-4.42-1.46-7.59-0.54-9.26,1.39c-1.67,1.93-0.75,6.89-0.75,6.89l0.64-2.47c0,0-0.89-3.25,2.34-4.42
			c3.23-1.17,6.66,0.05,7.83,0.71c1.18,0.66,3.68,2.91,3.68,2.91L150.35,15.37z"/>
	</g>
	<path class="st16" d="M190.49,258.68c-4.39,11.02-4.62,17.67-4.62,17.67l-15.18,5.88c1.13,2.33-0.1-5.31-3.3-29.07
		C171.85,255.3,185.72,260.03,190.49,258.68z"/>
	
		<linearGradient id="SVGID_00000140731319059706943800000003759171629229007234_" gradientUnits="userSpaceOnUse" x1="75.7815" y1="197.0973" x2="187.6326" y2="197.0973" gradientTransform="matrix(-1 0 0 1 298.7815 0)">
		<stop  offset="0" style="stop-color:#933A7C"/>
		<stop  offset="1" style="stop-color:#7F2E66"/>
	</linearGradient>
	<path style="fill:url(#SVGID_00000140731319059706943800000003759171629229007234_);" d="M111.2,167.34
		c-1.03-7.88,15.46-34.63,15.13-36.72c0,0,30.1,3.41,39.46,5.84c8.72,2.26,14.12,4.64,14.12,4.64c0.11,7.17,8.32,12.16,9.53,13.67
		c11.8,4.21,22.91,21.19,27.13,27.42c5.85,8.64,8.95,14.91,3.88,24.48c-2.28,4.31-31.34,55.42-31.34,55.42s-5.3,1.92-9.49,1.4
		c-5.41-0.67-10.95-1.12-10.95-1.12s-7.24-10.41-5.43-32.3c0.86-10.41,7.32-16.23,7.32-16.23s-9.68-1.35-19.9-5.72
		C142.22,204.49,114.83,195.06,111.2,167.34z"/>
	
		<linearGradient id="SVGID_00000160183771077022582510000010639163853125875337_" gradientUnits="userSpaceOnUse" x1="139.7886" y1="59.4195" x2="139.7886" y2="167.5626" gradientTransform="matrix(-1 0 0 1 298.7815 0)">
		<stop  offset="0" style="stop-color:#F97CA9"/>
		<stop  offset="0.282" style="stop-color:#F778A7"/>
		<stop  offset="0.5726" style="stop-color:#F06BA2"/>
		<stop  offset="0.8663" style="stop-color:#E45799"/>
		<stop  offset="1" style="stop-color:#DD4B94"/>
	</linearGradient>
	<path style="fill:url(#SVGID_00000160183771077022582510000010639163853125875337_);" d="M116.61,125.08
		c5.77-13.36,9.86-27.59,22.95-39.47c0,0,16.58,8.33,23.3,4.03c1.06-0.68,2.07-1.78,2.92-3.14c2.7-4.29,3.94-11.26,0.98-16.5
		c-3.9-6.9-22.09-5.71-22.09-5.71s10.63-9.55,23.99-1.94c12.56,7.15,12.85,16.28,21.14,23.29c8.44,7.14,10.99,9.73,7.73,18.75
		c-2.72,7.52,5.64,22.18,8.07,33.51c3.62,16.85,0.16,29.65,0.16,29.65s-28.58-16.49-45.23-17.56
		c-20.35-1.31-49.34,17.34-49.34,17.34S108.37,144.16,116.61,125.08z"/>
	<path class="st19" d="M198.7,100.22c0,0-4.18,3.25-8.35,6.03c-4.17,2.79-11.35,3.88-8.45,6.57s15.32,6.23,15.32,6.23
		s-1.46-7.9-1.04-9.84C196.6,107.26,198.89,102.95,198.7,100.22z"/>
	
		<linearGradient id="SVGID_00000052063677554449872650000013943425005470025638_" gradientUnits="userSpaceOnUse" x1="99.8739" y1="93.685" x2="178.1351" y2="93.685" gradientTransform="matrix(-1 0 0 1 298.7815 0)">
		<stop  offset="0" style="stop-color:#FFC5B3"/>
		<stop  offset="0.3645" style="stop-color:#FBBBA8"/>
		<stop  offset="1" style="stop-color:#EFA08B"/>
	</linearGradient>
	<path style="fill:url(#SVGID_00000052063677554449872650000013943425005470025638_);" d="M166.56,85.13c0,0-1.61,3.77-4.8,5.12
		c-4.62,1.96-9.42,1.99-11.09,2.45c-1.35,3.8-2.78,6.32-2.78,6.32s7.13,1.61,14.55,3.64c8.16,2.23,18.52,4.47,21.61,2.94
		c3.45-1.72,9.18-0.53,11.79,1.34c3.79,2.71,3.47,4.13,2.26,6.58c0.82,2.24,0,4.49-1.39,4.49c1.03,2.48-1.08,2.53-1.64,3.89
		c-1.05,2.52-5.31,1.62-8.58,2.71c-5.82,1.94-8.31-4.07-13.45-2.73c-13.05,3.41-36.37,3.05-43.33-0.98
		c-4.9-2.84-6.42-3.26-8.45-7.04c-1.44-2.68-0.04-10.5,1.82-15.74c1.95-5.53,3.79-11.94,11.94-24.86
		c6.23-9.87,14.34-11.09,19.82-10.89C163.82,62.7,172.45,74.49,166.56,85.13z"/>
	
		<linearGradient id="SVGID_00000020372275645187231690000010070322712960846489_" gradientUnits="userSpaceOnUse" x1="132.9906" y1="89.2835" x2="148.1205" y2="89.2835" gradientTransform="matrix(-1 0 0 1 298.7815 0)">
		<stop  offset="0" style="stop-color:#EFA08B"/>
		<stop  offset="0.6405" style="stop-color:#E48C78"/>
		<stop  offset="0.9948" style="stop-color:#DD7F6C"/>
	</linearGradient>
	<path style="fill:url(#SVGID_00000020372275645187231690000010070322712960846489_);" d="M158.19,87.33
		c-3.98,3.96-7.53,5.38-7.53,5.38s6.62,1.06,10.74-1.68c3.31-2.2,4.39-4.53,4.39-4.53S161.41,84.13,158.19,87.33z"/>
	
		<linearGradient id="SVGID_00000150785896730605627830000012582292472428998038_" gradientUnits="userSpaceOnUse" x1="169.0957" y1="111.1204" x2="172.5263" y2="111.1204" gradientTransform="matrix(-1 0 0 1 298.7815 0)">
		<stop  offset="0" style="stop-color:#EFA08B"/>
		<stop  offset="0.2947" style="stop-color:#E6907C"/>
		<stop  offset="0.6529" style="stop-color:#DF8370"/>
		<stop  offset="0.9948" style="stop-color:#DD7F6C"/>
	</linearGradient>
	<path style="fill:url(#SVGID_00000150785896730605627830000012582292472428998038_);" d="M127.73,108.37c0,0,1.3,4.7,1.95,5.51
		c-1.02-0.05-3.59-0.67-3.42-2.76C126.43,109.04,127.73,108.37,127.73,108.37z"/>
	<g>
		
			<linearGradient id="SVGID_00000054255484056828420000000003398648717573535122_" gradientUnits="userSpaceOnUse" x1="86.007" y1="283.4856" x2="131.4804" y2="283.4856" gradientTransform="matrix(-1 0 0 1 298.7815 0)">
			<stop  offset="0" style="stop-color:#F97CA9"/>
			<stop  offset="0.282" style="stop-color:#F778A7"/>
			<stop  offset="0.5726" style="stop-color:#F06BA2"/>
			<stop  offset="0.8663" style="stop-color:#E45799"/>
			<stop  offset="1" style="stop-color:#DD4B94"/>
		</linearGradient>
		<path style="fill:url(#SVGID_00000054255484056828420000000003398648717573535122_);" d="M170.35,276.89
			c1.46,0.18,2.43,2.97,4.07,3.7c1.64,0.72,4.92-3.26,6.93-4.35c0.19-0.11,0.45-0.18,0.7-0.26l-0.11-0.22c0,0,0.36-1.99,2.19-4.19
			c1.82-2.2,5.1-3.44,5.1-3.44c2.23-1.19,1.18,4.79,0.47,8.05c2.22,1.4,9.64,5.98,12.58,6.59c3.48,0.72,7.44-0.6,7.44-0.6
			s1.55,2.02,2.55,3.81c1.46,2.61-0.49,3.86-2.86,5.31c-2.37,1.45-7.29,5.07-13.67,5.98s-9.9-1.81-11.24-1.27
			c-1.34,0.54-2.39,2.9-2.39,2.9s-4.28,0.24-8.97,0c-3.2-0.16-6.01-4.74-5.83-5.63C167.49,292.37,168.89,276.71,170.35,276.89z"/>
		<path class="st19" d="M212.27,285.97c0,0-7.86,6.41-16.15,6.95c-8.29,0.54-13.07-2.12-16.32,0.05
			c-3.25,2.17-11.09-0.88-11.09-0.88s6.07,1.82,10.3-0.29c4.83-2.41,11.48,0.03,17.41-0.37c4.04-0.27,15.31-6.37,15.31-6.37
			L212.27,285.97z"/>
		<path class="st7" d="M200.08,281.99c0,0-1.74,1.15-4.57,3.08c-2.83,1.93-4.3,2.31-4.3,2.31s1.94-2.31,4.3-4.19
			c0.71-0.56,3.06-1.91,3.06-1.91L200.08,281.99z"/>
		<path class="st7" d="M195.64,279.7c0,0-3.33,2.21-4.44,2.94c-1.2,0.79-3.82,3.17-3.82,3.17s2-3.49,3.11-4.54
			c0.77-0.73,3.91-2.3,3.91-2.3L195.64,279.7z"/>
		<path class="st7" d="M192,277.62c0,0-3.33,2.21-4.43,2.94c-1.2,0.79-3.81,3.17-3.81,3.17s1.98-3.49,3.09-4.54
			c0.77-0.73,3.91-2.3,3.91-2.3L192,277.62z"/>
	</g>
	<g>
		
			<linearGradient id="SVGID_00000127736102921309769240000009812362331860246458_" gradientUnits="userSpaceOnUse" x1="181.3201" y1="262.219" x2="219.1513" y2="262.219" gradientTransform="matrix(-1 0 0 1 298.7815 0)">
			<stop  offset="0" style="stop-color:#F97CA9"/>
			<stop  offset="0.282" style="stop-color:#F778A7"/>
			<stop  offset="0.5726" style="stop-color:#F06BA2"/>
			<stop  offset="0.8663" style="stop-color:#E45799"/>
			<stop  offset="1" style="stop-color:#DD4B94"/>
		</linearGradient>
		<path style="fill:url(#SVGID_00000127736102921309769240000009812362331860246458_);" d="M80.97,251.69
			c0.79-0.46,13.8-10.72,14.63-9.52c0.83,1.2-0.93,4.69-0.38,6.4c0.54,1.7,5.72,1.5,7.87,2.26c0.21,0.07,0.43,0.21,0.66,0.35
			l0.1-0.23c0,0,1.74-1.05,4.6-1.15c2.86-0.1,5.98,1.51,5.98,1.51c2.37,0.87-2.82,4.06-5.74,5.69c0.42,2.58,1.9,11.13,3.39,13.73
			c1.77,3.07,5.39,5.13,5.39,5.13s-0.49,2.49-1.17,4.42c-1,2.82-3.23,2.2-5.89,1.4c-2.66-0.8-8.66-2.06-13.57-6.2
			c-4.91-4.14-5.21-8.56-6.5-9.2c-1.3-0.63-3.77,0.14-3.77,0.14s-3.02-3.02-5.95-6.67C78.6,257.28,80.18,252.14,80.97,251.69z"/>
		<path class="st19" d="M116.29,280.29c0,0-10.04-1.6-15.95-7.4c-5.91-5.81-7.08-11.13-10.87-12.1s-6.69-8.83-6.69-8.83
			s2.66,5.73,7.06,7.47c5.02,1.99,7.59,8.56,11.83,12.7c2.88,2.82,14.95,7.16,14.95,7.16L116.29,280.29z"/>
		<path class="st7" d="M111.2,268.58c0,0-2.02-0.53-5.35-1.35c-3.32-0.82-4.6-1.67-4.6-1.67s3.02-0.09,6.01,0.42
			c0.89,0.15,3.47,1.01,3.47,1.01L111.2,268.58z"/>
		<path class="st7" d="M109.97,263.76c0,0-3.87-1.01-5.16-1.34c-1.39-0.36-4.92-0.74-4.92-0.74s3.95-0.83,5.48-0.7
			c1.06,0.09,4.33,1.38,4.33,1.38L109.97,263.76z"/>
		<path class="st7" d="M109.12,259.67c0,0-3.87-1.01-5.16-1.35c-1.39-0.36-4.91-0.73-4.91-0.73s3.94-0.85,5.47-0.71
			c1.06,0.09,4.33,1.38,4.33,1.38L109.12,259.67z"/>
	</g>
	<path class="st19" d="M158.99,145c0,0-14.83,0-27.26,4.53c-12.43,4.53-15.11,7.42-15.11,7.42s2.09-5.77,14.91-10.71
		C144.34,141.29,158.99,145,158.99,145z"/>
</g>
</svg>
