<?xml version="1.0" encoding="utf-8"?>
<!-- Generator: Adobe Illustrator 27.3.1, SVG Export Plug-In . SVG Version: 6.00 Build 0)  -->
<svg version="1.1" id="Слой_1" xmlns="http://www.w3.org/2000/svg" xmlns:xlink="http://www.w3.org/1999/xlink" x="0px" y="0px"
	 viewBox="0 0 300 300" style="enable-background:new 0 0 300 300;" xml:space="preserve">
<style type="text/css">
	.st0{fill:url(#SVGID_1_);}
	.st1{fill:url(#SVGID_00000150083216327321198370000010055727640237930138_);}
	.st2{fill:url(#SVGID_00000071527752508055525110000011044760668538477455_);}
	.st3{fill:url(#SVGID_00000130643563463302288800000008158469654351315872_);}
	.st4{fill:url(#SVGID_00000111889687615807921350000000404579877571377823_);}
	.st5{fill:url(#SVGID_00000049901939618838321350000012668747220005718915_);}
	.st6{fill:url(#SVGID_00000165934788002448859670000005652259768648477080_);}
	.st7{fill:#F967A9;}
	.st8{fill:#FFFFFF;}
	.st9{fill:#3794B5;}
	.st10{fill:#5B1B1B;}
	.st11{fill:url(#SVGID_00000003800385894791015150000009985800087225824912_);}
	.st12{fill:#FFA08D;}
	.st13{fill:url(#SVGID_00000128454589964445784530000009216227868735562912_);}
	.st14{fill:url(#SVGID_00000006673174919852994440000013430590499252967353_);}
	.st15{fill:url(#SVGID_00000175292030135255411580000004128162584690329502_);}
	.st16{fill:url(#SVGID_00000050661815698799127850000011693975073771115688_);}
	.st17{fill:url(#SVGID_00000001634835478078528020000002176936073224200880_);}
	.st18{fill:url(#SVGID_00000054265125702053417470000007427415434644500632_);}
	.st19{fill:url(#SVGID_00000159452291436219093510000010538914298138014899_);}
	.st20{fill:#682356;}
	.st21{fill:url(#SVGID_00000150071106415837665860000005588923617072815756_);}
	.st22{fill:url(#SVGID_00000140708557380668265110000017319117756055995022_);}
	.st23{fill:url(#SVGID_00000134222001319630710740000008790907707016499368_);}
	.st24{fill:url(#SVGID_00000148634087124759782410000003502918908349440436_);}
	.st25{fill:url(#SVGID_00000129889946393731676420000017276558757480693385_);}
	.st26{fill:url(#SVGID_00000131368597016726090920000009068705136902117785_);}
	.st27{fill:#DD4B94;}
	.st28{fill:url(#SVGID_00000101813040038654675260000010809102575392744837_);}
</style>
<g>
	
		<linearGradient id="SVGID_1_" gradientUnits="userSpaceOnUse" x1="88.0215" y1="112.5952" x2="130.1966" y2="112.5952" gradientTransform="matrix(-1 0 0 1 298.7815 0)">
		<stop  offset="0" style="stop-color:#EFA08B"/>
		<stop  offset="0.6405" style="stop-color:#E48C78"/>
		<stop  offset="0.9948" style="stop-color:#DD7F6C"/>
	</linearGradient>
	<path class="st0" d="M175.54,110.38c0,0,16.09,1.26,19.74-0.1c2.14-0.79,1.98-5.55,3.68-7.46c2.38-2.67,3.1-0.98,6.39-0.37
		c3.97,0.73,3.97,2.07,3.36,4.16c1.05,0.85,1.92,2.14,0.89,4.12c1.59,1.22,1.56,3.48-0.3,4.72c-5.63,3.74-7.6,2.88-14.6,4.68
		c-4.22,1.08-13.91,4.3-20.25,3.61c-5.21-0.57-4.52-0.92-5.45-2.53C166.55,116.92,175.54,110.38,175.54,110.38z"/>
	
		<linearGradient id="SVGID_00000028320420052579513340000003103075705565638547_" gradientUnits="userSpaceOnUse" x1="129.6553" y1="205.1414" x2="211.1874" y2="205.1414" gradientTransform="matrix(-1 0 0 1 298.7815 0)">
		<stop  offset="0" style="stop-color:#FFC5B3"/>
		<stop  offset="0.3645" style="stop-color:#FBBBA8"/>
		<stop  offset="1" style="stop-color:#EFA08B"/>
	</linearGradient>
	<path style="fill:url(#SVGID_00000028320420052579513340000003103075705565638547_);" d="M169.13,177.94
		c0,0-9.49,18.17-12.73,30.65c-1.43,5.51-3.93,9.26-13.4,11.82c-9.47,2.56-44.97,30.94-44.97,30.94l-10.44,0.94l2.78-5.5
		c0,0,15.18-22.78,24.82-33.77c10.46-11.93,19.43-12.1,19.79-15.09c1.58-13.08-1.1-39.95-1.1-39.95L169.13,177.94z"/>
	
		<linearGradient id="SVGID_00000152976523233561028980000010482395504645735600_" gradientUnits="userSpaceOnUse" x1="117.8355" y1="101.9199" x2="158.17" y2="101.9199" gradientTransform="matrix(-1 0 0 1 298.7815 0)">
		<stop  offset="0" style="stop-color:#FFC5B3"/>
		<stop  offset="0.3645" style="stop-color:#FBBBA8"/>
		<stop  offset="1" style="stop-color:#EFA08B"/>
	</linearGradient>
	<path style="fill:url(#SVGID_00000152976523233561028980000010482395504645735600_);" d="M180.95,101.86c0,0-0.06,11.95-0.72,18.75
		c-1.21,12.56-2.69,23.3-2.69,23.3l-18.17-5.15l-15.1-5.01c0,0,3.7-13.25,4.36-18.76c0.93-7.81-1.5-17.71-1.5-17.71
		s-6.93-21.02-6.5-27.26c0.43-6.23,12.76-13.69,21.19-8.13C170.25,67.44,180.95,101.86,180.95,101.86z"/>
	<g>
		
			<linearGradient id="SVGID_00000052073437573659774160000013714629099613847966_" gradientUnits="userSpaceOnUse" x1="110.002" y1="48.8403" x2="148.1058" y2="48.8403" gradientTransform="matrix(-1 0 0 1 298.7815 0)">
			<stop  offset="0" style="stop-color:#FFC5B3"/>
			<stop  offset="0.3645" style="stop-color:#FBBBA8"/>
			<stop  offset="1" style="stop-color:#EFA08B"/>
		</linearGradient>
		<path style="fill:url(#SVGID_00000052073437573659774160000013714629099613847966_);" d="M175.69,81l-25.01-10.68
			c0,0,5.13-13.15,5.97-17.35c0.9-4.51,0.6-9.32,0.3-12.47c-2.02-1.35-5.6-1.03-6.22-9c-0.93-11.91,14.12-15.99,24.75-14.55
			c4.29,0.58,5.54,0.24,7.23,4.41c1.69,4.19-0.17,4.27,0.3,10.32c0.13,1.68,2.7,3.76,3.97,5.17c0.95,1.05,1.97,1.49,1.79,1.96
			c-0.78,2.09-2.13,1.53-3.08,2.57c-0.35,0.39-1.14,1.19-0.4,2.34c0.51,0.78-0.59,1.46-0.65,1.85c-0.18,1.2-0.55,0.75-0.79,1.77
			c-0.4,1.66,1.46,3.34-0.09,5.03c-1.06,1.16-5.69,1.89-9.45,3.74c-2.83,1.4-6.29,3.68-4.58,12.31C170.54,72.54,175.69,81,175.69,81
			z"/>
		
			<linearGradient id="SVGID_00000026154311116300190660000001285955114049352841_" gradientUnits="userSpaceOnUse" x1="124.4723" y1="48.8402" x2="137.1162" y2="48.8402" gradientTransform="matrix(-1 0 0 1 298.7815 0)">
			<stop  offset="0" style="stop-color:#EFA08B"/>
			<stop  offset="0.6405" style="stop-color:#E48C78"/>
			<stop  offset="0.9948" style="stop-color:#DD7F6C"/>
		</linearGradient>
		<path style="fill:url(#SVGID_00000026154311116300190660000001285955114049352841_);" d="M174.31,54.37c0,0-7.15,1.63-10.35-4.33
			c-2.15-4.01-2.29-6.93-2.29-6.93s2.74,4.09,6.39,7.6C169.56,52.15,174.31,54.37,174.31,54.37z"/>
		
			<linearGradient id="SVGID_00000011029372236248566600000006284755671170394269_" gradientUnits="userSpaceOnUse" x1="145.4548" y1="14.0161" x2="164.9038" y2="14.0161" gradientTransform="matrix(-1 0 0 1 298.7815 0)">
			<stop  offset="0" style="stop-color:#7B2B08"/>
			<stop  offset="1" style="stop-color:#682007"/>
		</linearGradient>
		<path style="fill:url(#SVGID_00000011029372236248566600000006284755671170394269_);" d="M135.21,17.46
			c0.38-4.74,3.78-3.77,6.13-10.01c2.58-6.86,10.24-7.16,11.45-1.49c1.21,5.67,0,10.72,0,10.72l-7.17,8.07c0,0-1.05,0.09-2.48,0
			c-1.14,0.56-2.61,1.19-3.68,1.3c-1.99,0.2-5.37-2.75-5.57-4.55C133.76,20.25,134.64,18.47,135.21,17.46z M138.36,24.6
			c0.76,0.11,1.55-0.01,2.29-0.2c-2.62-0.58-5.32-2-5.47-5.36c-0.01-0.26-0.01-0.48-0.01-0.71c-0.16,0.7-0.28,1.52-0.2,2.25
			C135.18,22.26,135.88,24.26,138.36,24.6z"/>
		
			<linearGradient id="SVGID_00000072961340030836055470000013776285125231886996_" gradientUnits="userSpaceOnUse" x1="144.8783" y1="6.5025" x2="159.7514" y2="6.5025" gradientTransform="matrix(-1 0 0 1 298.7815 0)">
			<stop  offset="0" style="stop-color:#B24E2B"/>
			<stop  offset="1" style="stop-color:#A34123"/>
		</linearGradient>
		<path style="fill:url(#SVGID_00000072961340030836055470000013776285125231886996_);" d="M139.06,6.76
			c0.2-1.88,1.49-4.78,5.1-4.38c0.35,0.04,0.67,0.13,0.99,0.23c0.67-0.76,2.65-2.53,5.53-1.03c2.29,1.19,2.8,3.63,3.09,4.8
			c0.3,1.17,0,4.8,0,4.8l-1.37,0.82c0,0,0.39-7.02-2.66-8.43c-1.9-0.88-3.32-0.9-4.12-0.8c2.67,1.09,4.12,3.99,4.12,3.99
			c-1.62-2.35-4.91-3.39-5.88-3.49c-0.97-0.1-2.6,0.79-3.5,2.39c-0.89,1.59,0.12,3.71,0.12,3.71l-0.77,1.24
			C139.71,10.61,138.86,8.64,139.06,6.76z"/>
		<path class="st7" d="M154.44,12.33c0,0,0.26-2.57-3.76,0c-5.44,3.47-6.52,9.74-5.06,12.42c1.46,2.68,3.33,2.08,3.33,2.08
			L154.44,12.33z"/>
		<path class="st7" d="M184.71,42.82c0,0,1.16-0.2,0.88,0.95c-0.21,0.89-0.75,1.24-0.75,1.24s0.92,0.54,0.81,1.24
			c-0.18,1.15-1.63,0.83-1.63,0.83s-2.07-0.62-3.9-2.51C182.45,44.38,184.71,42.82,184.71,42.82z"/>
		<path class="st8" d="M180.25,30.47c0,0,0.11,1.08,0.07,1.75c-0.04,0.67-0.13,1.79-1.77,1.75c-1.64-0.04-3.14-1.06-3.14-1.06
			L180.25,30.47z"/>
		<path class="st9" d="M180.28,30.78c0,0,0.48,2.5-0.56,2.89c-1.43,0.54-1.31-2.29-1.31-2.29L180.28,30.78z"/>
		<path class="st10" d="M179.08,32.52c0,0.46,0.24,0.83,0.54,0.83s0.54-0.37,0.54-0.83c0-0.46-0.24-0.83-0.54-0.83
			S179.08,32.06,179.08,32.52z"/>
		<path class="st8" d="M179.41,31.69c0,0.29,0.15,0.53,0.34,0.53c0.19,0,0.34-0.24,0.34-0.53c0-0.29-0.15-0.53-0.34-0.53
			C179.56,31.16,179.41,31.39,179.41,31.69z"/>
		<path class="st10" d="M179.88,23.83c1.23,0.07,2.34,0.54,1.62,1.03c-1.1,0.75-2.29-0.09-4.16,0.95c-1.3,0.73-4.2,4.03-4.2,4.03
			S174.74,23.55,179.88,23.83z"/>
		<path class="st10" d="M175.4,32.91c0,0,2.19-1.18,3.02-1.75c1.24-0.85,2.31-1.75,2.31-1.75s0.28,0.78,1.28,1.12
			c0.77,0.26,1.83,0.19,1.83,0.19s-1.83,0.48-3.02,0.28c0.19,0.5,0.62,0.87,0.99,1.1c-1.4,0.09-2.04-0.56-2.29-0.91
			c-0.68,0.48-1.49,0.93-2.14,1.17C175.85,32.91,175.4,32.91,175.4,32.91z"/>
		
			<linearGradient id="SVGID_00000114765431756501560140000012646232815607854263_" gradientUnits="userSpaceOnUse" x1="135.8749" y1="9.3681" x2="135.8749" y2="47.1268" gradientTransform="matrix(-1 0 0 1 298.7815 0)">
			<stop  offset="0" style="stop-color:#7B2B08"/>
			<stop  offset="1" style="stop-color:#682007"/>
		</linearGradient>
		<path style="fill:url(#SVGID_00000114765431756501560140000012646232815607854263_);" d="M145.03,29.83
			c0.89-2.95,2.04-6.53,2.25-7.28c4.21-15.11,19.66-13.77,24.53-12.42c10.37,2.86,9.09,8.25,9.09,8.25s-4.64,0.55-9.09-0.64
			c-2.09,1.78-1.31,4.97-1.83,7c-0.6,2.34-3.33,5.09-3.03,7.78c-1.64-1.74-4.24-1.67-5.52,1.84c-0.97,2.66,0.35,3.93,1.37,5.91
			c-0.57,4.7-5.78,6.86-5.78,6.86s-2.89,0.08-5.04-1.18l-0.01,0.03c0,0-2.23-0.66-4.75-5.71C145.59,37.03,144.43,31.81,145.03,29.83
			z M146.63,36.67c0.3,1.81,1.56,3.49,2.84,4.8c-0.86-4.08-2.75-8.74-2.81-13.84C145.23,31.14,146.33,34.85,146.63,36.67z"/>
		<path class="st12" d="M186.84,39.58c0,0-1.04,0.15-1.57,0.67c-0.52,0.52-0.11,0.97,0.5,0.52
			C186.4,40.33,186.84,39.58,186.84,39.58z"/>
		
			<linearGradient id="SVGID_00000093144742935596315330000014149245749286623166_" gradientUnits="userSpaceOnUse" x1="117.7706" y1="29.3674" x2="122.5226" y2="29.3674" gradientTransform="matrix(-1 0 0 1 298.7815 0)">
			<stop  offset="0" style="stop-color:#EFA08B"/>
			<stop  offset="0.156" style="stop-color:#EB9984"/>
			<stop  offset="0.6493" style="stop-color:#E18672"/>
			<stop  offset="0.9948" style="stop-color:#DD7F6C"/>
		</linearGradient>
		<path style="fill:url(#SVGID_00000093144742935596315330000014149245749286623166_);" d="M181.01,27.58v0.89
			c0,0-1.33,0.89-2.59,1.71c-1.26,0.82-2.16,0.97-2.16,0.97S177.86,29.22,181.01,27.58z"/>
		
			<linearGradient id="SVGID_00000066485192879912899070000017918424650066403762_" gradientUnits="userSpaceOnUse" x1="133.348" y1="40.2899" x2="133.348" y2="33.9269" gradientTransform="matrix(-1 0 0 1 298.7815 0)">
			<stop  offset="0" style="stop-color:#EFA08B"/>
			<stop  offset="0.2778" style="stop-color:#E7917D"/>
			<stop  offset="0.6579" style="stop-color:#E08470"/>
			<stop  offset="0.9948" style="stop-color:#DD7F6C"/>
		</linearGradient>
		<path style="fill:url(#SVGID_00000066485192879912899070000017918424650066403762_);" d="M163.18,35.7c0,0,0.48-2.12,2.27-1.73
			c1.79,0.39,2.24,3.07,2.24,3.07s-1.57-0.22-1.49,1.04c0.07,1.27,0.82,1.49,0.82,1.49s-0.52,0.85-1.27,0.69
			c-0.75-0.17-1.49-1.21-0.97-2.18c0.52-0.97,0.97-1.67,0.65-2.09C164.56,34.86,163.18,35.7,163.18,35.7z"/>
		
			<linearGradient id="SVGID_00000070107100460951165410000012743480796017157287_" gradientUnits="userSpaceOnUse" x1="130.5183" y1="24.5998" x2="148.1058" y2="24.5998" gradientTransform="matrix(-1 0 0 1 298.7815 0)">
			<stop  offset="0" style="stop-color:#B24E2B"/>
			<stop  offset="0.3843" style="stop-color:#AA4727"/>
			<stop  offset="1" style="stop-color:#A34123"/>
		</linearGradient>
		<path style="fill:url(#SVGID_00000070107100460951165410000012743480796017157287_);" d="M168.26,28.25
			c-2.62-1.65-6.6-0.32-11.62-3.46c-1.48-0.93-5.97-8.11-5.97-8.11s1.19,7.66,3.77,10.15c3.11,3.01,5.92,4.61,8.25,5.43
			c2.74-1.65,4.25,0.26,4.25,0.26S167.29,29.83,168.26,28.25z"/>
		
			<linearGradient id="SVGID_00000081618647823941056830000008746341088440158603_" gradientUnits="userSpaceOnUse" x1="118.6151" y1="14.1237" x2="145.8113" y2="14.1237" gradientTransform="matrix(-1 0 0 1 298.7815 0)">
			<stop  offset="0" style="stop-color:#B24E2B"/>
			<stop  offset="0.3843" style="stop-color:#AA4727"/>
			<stop  offset="1" style="stop-color:#A34123"/>
		</linearGradient>
		<path style="fill:url(#SVGID_00000081618647823941056830000008746341088440158603_);" d="M153.75,12.37
			c0.61-1,1.84-2.79,3.35-3.88c2.16-1.57,3.59-2.01,6.08-1.57c2.49,0.45,9.47,3,9.47,3l-0.01,0c6.38,1.85,7.52,5.28,7.52,5.28
			s-2.87-3.18-11.9-4.78c-5.76-1.02-10.16,0.01-11.98,1.34c2.01,0.44,4.98,0.48,8.87,1.61c3.86,1.12,6.66,4.35,6.66,4.35
			s-1.07,0.97-1.54,3.74c-2.01-2.03-3.1-5.09-6.44-6.33c-6.06-2.26-10.86-1.77-10.86-1.77S153.2,12.96,153.75,12.37z M167.09,8.94
			c0.31,0.03,0.58,0.07,0.88,0.1c-1.54-0.52-3.42-1.14-4.79-1.52c-2.73-0.75-5.74,1.06-6.95,3.02c0,0-0.01,0.01-0.01,0.01
			C158.37,9.42,161.79,8.48,167.09,8.94z"/>
		
			<linearGradient id="SVGID_00000010294030647351843110000010419026776733013644_" gradientUnits="userSpaceOnUse" x1="150.1085" y1="13.3326" x2="163.7988" y2="13.3326" gradientTransform="matrix(-1 0 0 1 298.7815 0)">
			<stop  offset="0" style="stop-color:#B24E2B"/>
			<stop  offset="1" style="stop-color:#A34123"/>
		</linearGradient>
		<path style="fill:url(#SVGID_00000010294030647351843110000010419026776733013644_);" d="M148.67,13.91c0,0-0.56-2.67-4.52-3.98
			c-3.95-1.31-6.79-0.48-8.28,1.25c-1.49,1.73-0.67,6.19-0.67,6.19l0.57-2.22c0,0-0.8-2.92,2.09-3.97c2.88-1.05,5.95,0.04,7,0.64
			c1.05,0.6,3.28,2.61,3.28,2.61L148.67,13.91z"/>
	</g>
	
		<linearGradient id="SVGID_00000180357418128629643740000000965007198168025220_" gradientUnits="userSpaceOnUse" x1="132.3135" y1="59.3927" x2="132.3135" y2="103.8264" gradientTransform="matrix(-1 0 0 1 298.7815 0)">
		<stop  offset="0" style="stop-color:#F97CA9"/>
		<stop  offset="0.282" style="stop-color:#F778A7"/>
		<stop  offset="0.5726" style="stop-color:#F06BA2"/>
		<stop  offset="0.8663" style="stop-color:#E45799"/>
		<stop  offset="1" style="stop-color:#DD4B94"/>
	</linearGradient>
	<path style="fill:url(#SVGID_00000180357418128629643740000000965007198168025220_);" d="M158.95,87.44
		c1.05-0.67,2.03-1.76,2.87-3.1c2.65-4.24,3.87-11.12,0.96-16.29c-3.83-6.82-13.25-7.05-13.25-7.05s6.74-4.61,14.24,1.78
		c3.72,3.17,10.68,12.35,18.71,19.72c7.63,7.01,6.34,12.51,2.57,16.73c-1.33,1.49-1.37,2-2.15,4.59h-15.25H148.5l-3.61-13.56
		C144.89,90.27,152.34,91.69,158.95,87.44z"/>
	
		<linearGradient id="SVGID_00000044143355240357786080000007251498274715043476_" gradientUnits="userSpaceOnUse" x1="122.8823" y1="156.9891" x2="122.8823" y2="286.0735" gradientTransform="matrix(-1 0 0 1 298.7815 0)">
		<stop  offset="0" style="stop-color:#FFC5B3"/>
		<stop  offset="0.3645" style="stop-color:#FBBBA8"/>
		<stop  offset="1" style="stop-color:#EFA08B"/>
	</linearGradient>
	<path style="fill:url(#SVGID_00000044143355240357786080000007251498274715043476_);" d="M178.53,156.99c0,0,7.09,8.44,15.04,21.06
		c7.73,12.26,10.16,16.93,13.22,24.12c1.41,3.31,1.02,8-2.9,14.55c-2.49,4.16-6.73,14.15-8.74,19.59
		c-8.09,21.88-11.8,44.44-11.8,44.44l-11.86,5.32c0,0,0.99-28.04,1.23-34.71c0.48-13.11,3.66-23.52,5.89-28.89
		c3.09-7.45,7.08-10.17,7.08-10.17s-15.33-10.33-26.22-18.94c-7.68-6.08-15.2-18.17-15.2-18.17L178.53,156.99z"/>
	<path class="st20" d="M135.66,185.48c-1.75-10.44-4.76-24.58-1.38-33.55c12.89,7.08,20.12,27.34,23,35.1
		C149.88,188.84,142.51,188.38,135.66,185.48z"/>
	
		<linearGradient id="SVGID_00000049197880038805334480000009360485995499189383_" gradientUnits="userSpaceOnUse" x1="138.4606" y1="131.0066" x2="138.4606" y2="195.7746" gradientTransform="matrix(-1 0 0 1 298.7815 0)">
		<stop  offset="0" style="stop-color:#933A7C"/>
		<stop  offset="1" style="stop-color:#7F2E66"/>
	</linearGradient>
	<path style="fill:url(#SVGID_00000049197880038805334480000009360485995499189383_);" d="M178.18,138.43c0,0-7.8-2.52-16.36-4.75
		c-9.19-2.4-16.93-2.67-16.93-2.67s-13.02,14.33-13.03,26.98c-0.02,19.81,30.51,37.79,30.51,37.79s-2.05-8.98,11.93-19.13
		c5.64-4.09,14.47-5.88,14.47-5.88s-6.4-11.59-9.75-19.42C177.11,146.87,178.29,145.51,178.18,138.43z"/>
	
		<linearGradient id="SVGID_00000016035388359045835630000016163498630524179080_" gradientUnits="userSpaceOnUse" x1="133.998" y1="127.8661" x2="133.998" y2="102.5749" gradientTransform="matrix(-1 0 0 1 298.7815 0)">
		<stop  offset="0" style="stop-color:#EFA08B"/>
		<stop  offset="0.6405" style="stop-color:#E48C78"/>
		<stop  offset="0.9948" style="stop-color:#DD7F6C"/>
	</linearGradient>
	<path style="fill:url(#SVGID_00000016035388359045835630000016163498630524179080_);" d="M148.8,112.84
		c0.5-3.62,0.33-7.88-0.3-9.02h34.4c-0.54,2.15-1.3,7.3-1.95,11.64c-0.69,4.62-1.65,12.4-1.65,12.4s-9.61-3.19-16.91-4.15
		c-5.54-0.73-15.71,0.11-15.71,0.11S147.97,118.82,148.8,112.84z"/>
	
		<linearGradient id="SVGID_00000147919954846702665920000008519988511708591489_" gradientUnits="userSpaceOnUse" x1="104.9184" y1="90.2854" x2="176.1595" y2="90.2854" gradientTransform="matrix(-1 0 0 1 298.7815 0)">
		<stop  offset="0" style="stop-color:#FFC5B3"/>
		<stop  offset="0.3645" style="stop-color:#FBBBA8"/>
		<stop  offset="1" style="stop-color:#EFA08B"/>
	</linearGradient>
	<path style="fill:url(#SVGID_00000147919954846702665920000008519988511708591489_);" d="M162.57,82.99c0,0-14.92,6.5-17.68,7.28
		c-2.78,1.87-5.84,6.79-5.84,6.79s6.85,3.2,10.68,4.87c6.17,2.69,12.14,7.04,18.85,7.53c4.37,0.32,7.19-1.1,11.51-4.18
		c3.09-2.2,6.13-2.45,8.69-0.61c3.72,2.67,5.95,3.95,4.76,6.37c0.67,1.48,0,4.43-1.37,4.43c1.01,2.45-1.06,2.5-1.61,3.84
		c-1.03,2.49-4.96-2.01-8.18-0.93c-5.72,1.92-8.53,1.13-13.74,1.5c-8.84,0.64-28.67-5.92-35.7-9.56c-3.95-2.04-5.52-2.63-8.89-4.15
		c-2.73-1.24-1.03-5.48,0.8-10.66c1.92-5.46,5.67-12.87,11.33-21.8c6.16-9.72,9.49-13.37,14.88-13.18
		C159.89,60.83,168.37,72.47,162.57,82.99z"/>
	
		<linearGradient id="SVGID_00000026863199079766550400000016320679028861091505_" gradientUnits="userSpaceOnUse" x1="136.9577" y1="86.592" x2="153.8917" y2="86.592" gradientTransform="matrix(-1 0 0 1 298.7815 0)">
		<stop  offset="0" style="stop-color:#EFA08B"/>
		<stop  offset="0.6405" style="stop-color:#E48C78"/>
		<stop  offset="0.9948" style="stop-color:#DD7F6C"/>
	</linearGradient>
	<path style="fill:url(#SVGID_00000026863199079766550400000016320679028861091505_);" d="M152.93,83.27
		c-4.05,1.92-8.04,6.99-8.04,6.99s8.58,1.25,12.62-1.46c3.25-2.17,4.31-4.47,4.31-4.47S156.98,81.35,152.93,83.27z"/>
	
		<linearGradient id="SVGID_00000000183104350144104240000015134701305311997631_" gradientUnits="userSpaceOnUse" x1="170.7296" y1="102.8235" x2="174.0916" y2="102.8235" gradientTransform="matrix(-1 0 0 1 298.7815 0)">
		<stop  offset="0" style="stop-color:#EFA08B"/>
		<stop  offset="0.0862" style="stop-color:#ED9C87"/>
		<stop  offset="0.6354" style="stop-color:#E18773"/>
		<stop  offset="0.9948" style="stop-color:#DD7F6C"/>
	</linearGradient>
	<path style="fill:url(#SVGID_00000000183104350144104240000015134701305311997631_);" d="M126.14,100.49c0,0,1.28,3.87,1.92,4.67
		c-1.01-0.05-3.51-0.68-3.35-2.73C124.86,100.37,126.14,100.49,126.14,100.49z"/>
	<path class="st12" d="M198.85,202.2c-0.07-0.15,1.92,0.18,3.15,4.02c0.72,2.26-1.2,4.02-1.2,4.02L198.85,202.2z"/>
	<g>
		
			<linearGradient id="SVGID_00000135655522269125741260000011977393591413657740_" gradientUnits="userSpaceOnUse" x1="86.7913" y1="283.6768" x2="131.4478" y2="283.6768" gradientTransform="matrix(-1 0 0 1 298.7815 0)">
			<stop  offset="0" style="stop-color:#F97CA9"/>
			<stop  offset="0.282" style="stop-color:#F778A7"/>
			<stop  offset="0.5726" style="stop-color:#F06BA2"/>
			<stop  offset="0.8663" style="stop-color:#E45799"/>
			<stop  offset="1" style="stop-color:#DD4B94"/>
		</linearGradient>
		<path style="fill:url(#SVGID_00000135655522269125741260000011977393591413657740_);" d="M171.28,276.52
			c1.43,0.18,1.43,3.58,3.04,4.3c1.61,0.72,4.83-3.22,6.8-4.3c0.19-0.1,0.44-0.18,0.69-0.25l-0.11-0.22c0,0,0.36-1.97,2.15-4.14
			c1.79-2.17,5.01-3.4,5.01-3.4c2.19-1.17,1.16,4.73,0.46,7.95c2.18,1.38,9.46,5.9,12.36,6.51c3.42,0.72,7.3-0.59,7.3-0.59
			s1.53,1.99,2.51,3.76c1.43,2.58-0.48,3.81-2.81,5.24c-2.33,1.43-7.16,5.01-13.42,5.91c-6.26,0.9-9.72-1.79-11.04-1.25
			c-1.31,0.54-2.35,2.86-2.35,2.86s-4.2,0.24-8.81,0c-3.14-0.16-5.91-4.68-5.73-5.56C167.52,292.45,169.85,276.34,171.28,276.52z"/>
		<path class="st27" d="M211.5,286.13c0,0-7.72,6.33-15.86,6.86c-8.14,0.54-12.84-2.1-16.02,0.05c-3.19,2.15-10.89-0.87-10.89-0.87
			s5.97,1.8,10.12-0.29c4.74-2.38,11.28,0.03,17.09-0.36c3.97-0.27,15.03-6.29,15.03-6.29L211.5,286.13z"/>
		<path class="st8" d="M199.52,282.2c0,0-1.71,1.14-4.48,3.04c-2.77,1.9-4.23,2.28-4.23,2.28s1.9-2.28,4.23-4.14
			c0.69-0.55,3-1.89,3-1.89L199.52,282.2z"/>
		<path class="st8" d="M195.17,279.94c0,0-3.27,2.18-4.36,2.91c-1.18,0.78-3.75,3.13-3.75,3.13s1.96-3.45,3.05-4.48
			c0.76-0.72,3.84-2.27,3.84-2.27L195.17,279.94z"/>
		<path class="st8" d="M191.59,277.88c0,0-3.27,2.18-4.36,2.91c-1.18,0.78-3.74,3.13-3.74,3.13s1.94-3.45,3.04-4.48
			c0.76-0.72,3.84-2.27,3.84-2.27L191.59,277.88z"/>
	</g>
	<g>
		
			<linearGradient id="SVGID_00000059285464941841299080000001910609112925042587_" gradientUnits="userSpaceOnUse" x1="183.5862" y1="259.5831" x2="220.7377" y2="259.5831" gradientTransform="matrix(-1 0 0 1 298.7815 0)">
			<stop  offset="0" style="stop-color:#F97CA9"/>
			<stop  offset="0.282" style="stop-color:#F778A7"/>
			<stop  offset="0.5726" style="stop-color:#F06BA2"/>
			<stop  offset="0.8663" style="stop-color:#E45799"/>
			<stop  offset="1" style="stop-color:#DD4B94"/>
		</linearGradient>
		<path style="fill:url(#SVGID_00000059285464941841299080000001910609112925042587_);" d="M79.36,248.59
			c0.78-0.45,14.37-9.4,15.19-8.21c0.82,1.19-1.73,3.45-1.19,5.13c0.53,1.68,5.62,1.48,7.73,2.24c0.2,0.07,0.43,0.21,0.65,0.35
			l0.1-0.23c0,0,1.71-1.04,4.52-1.14c2.81-0.1,5.87,1.49,5.87,1.49c2.33,0.86-2.77,4.01-5.64,5.62c0.41,2.55,1.87,11,3.33,13.56
			c1.73,3.03,5.29,5.07,5.29,5.07s-0.48,2.46-1.15,4.37c-0.98,2.78-3.17,2.17-5.79,1.38c-2.62-0.79-8.5-2.03-13.33-6.12
			c-4.83-4.09-5.11-8.46-6.39-9.09c-1.27-0.63-3.7,0.14-3.7,0.14s-2.97-2.98-5.85-6.59C77.04,254.11,78.58,249.04,79.36,248.59z"/>
		<path class="st27" d="M114.05,276.85c0,0-9.86-1.58-15.66-7.31c-5.81-5.74-6.95-10.99-10.67-11.95s-6.57-8.72-6.57-8.72
			s2.61,5.66,6.93,7.38c4.93,1.97,7.46,8.46,11.61,12.55c2.83,2.79,14.68,7.07,14.68,7.07L114.05,276.85z"/>
		<path class="st8" d="M109.04,265.28c0,0-1.99-0.52-5.25-1.34c-3.26-0.81-4.51-1.65-4.51-1.65s2.97-0.09,5.9,0.41
			c0.87,0.15,3.41,1,3.41,1L109.04,265.28z"/>
		<path class="st8" d="M107.84,260.52c0,0-3.8-1-5.07-1.33c-1.37-0.36-4.83-0.73-4.83-0.73s3.88-0.82,5.38-0.69
			c1.04,0.09,4.25,1.37,4.25,1.37L107.84,260.52z"/>
		<path class="st8" d="M107.01,256.47c0,0-3.8-1-5.07-1.33c-1.37-0.36-4.82-0.72-4.82-0.72s3.87-0.84,5.37-0.7
			c1.04,0.09,4.25,1.37,4.25,1.37L107.01,256.47z"/>
	</g>
</g>
</svg>
