<?xml version="1.0" encoding="utf-8"?>
<!-- Generator: Adobe Illustrator 27.3.1, SVG Export Plug-In . SVG Version: 6.00 Build 0)  -->
<svg version="1.1" id="Слой_1" xmlns="http://www.w3.org/2000/svg" xmlns:xlink="http://www.w3.org/1999/xlink" x="0px" y="0px"
	 viewBox="0 0 300 300" style="enable-background:new 0 0 300 300;" xml:space="preserve">
<style type="text/css">
	.st0{fill:url(#SVGID_1_);}
	.st1{fill:url(#SVGID_00000089544289865533501990000017488538584654494111_);}
	.st2{fill:url(#SVGID_00000088854055943565867880000011071126468938034048_);}
	.st3{fill:url(#SVGID_00000069363252695495406690000007898632900897346728_);}
	.st4{fill:url(#SVGID_00000121985511629641529020000018038998994547448764_);}
	.st5{fill:url(#SVGID_00000181084676413516727740000017923237814372394921_);}
	.st6{fill:url(#SVGID_00000058565416801147863140000000832541371186545315_);}
	.st7{fill:#F967A9;}
	.st8{fill:#FFFFFF;}
	.st9{fill:#3794B5;}
	.st10{fill:#5B1B1B;}
	.st11{fill:url(#SVGID_00000029022385525268190590000012567476524803349641_);}
	.st12{fill:#FFA08D;}
	.st13{fill:url(#SVGID_00000131351446769163597880000010149492803319787182_);}
	.st14{fill:url(#SVGID_00000072963812205075888820000018084011308932284033_);}
	.st15{fill:url(#SVGID_00000148633227760941009940000003274193215598025131_);}
	.st16{fill:url(#SVGID_00000132791147539631566640000001865257145725310350_);}
	.st17{fill:url(#SVGID_00000140695539288691732580000005555876331939412352_);}
	.st18{fill:url(#SVGID_00000175311845263782255790000003343175577527231140_);}
	.st19{fill:url(#SVGID_00000090286815429769527450000016355986924607736479_);}
	.st20{fill:#DD4B94;}
	.st21{fill:url(#SVGID_00000159445278222814686230000003177803442473431734_);}
	.st22{fill:#682356;}
	.st23{fill:url(#SVGID_00000149377010518301703400000009349220827445708456_);}
	.st24{fill:url(#SVGID_00000100342820313983159530000011241605501732626863_);}
	.st25{fill:url(#SVGID_00000069368730055681707820000000621908674215964545_);}
	.st26{fill:url(#SVGID_00000032614589685570908830000012556310702191602083_);}
	.st27{fill:url(#SVGID_00000029011886084687931030000000668163773065559960_);}
	.st28{fill:url(#SVGID_00000031205150445905864680000009001751595158775735_);}
</style>
<g>
	
		<linearGradient id="SVGID_1_" gradientUnits="userSpaceOnUse" x1="87.897" y1="112.5952" x2="130.0721" y2="112.5952" gradientTransform="matrix(-1 0 0 1 298.7815 0)">
		<stop  offset="0" style="stop-color:#EFA08B"/>
		<stop  offset="0.6405" style="stop-color:#E48C78"/>
		<stop  offset="0.9948" style="stop-color:#DD7F6C"/>
	</linearGradient>
	<path class="st0" d="M175.67,110.38c0,0,14.67-0.32,18.32-1.68c2.14-0.79,3.4-3.98,5.1-5.88c2.38-2.67,3.1-0.98,6.39-0.37
		c3.97,0.73,3.97,2.07,3.36,4.16c1.05,0.85,1.92,2.14,0.89,4.12c1.59,1.22,1.56,3.48-0.3,4.72c-5.63,3.74-7.6,2.88-14.6,4.68
		c-4.22,1.08-13.91,4.3-20.25,3.61c-5.21-0.57-4.52-0.92-5.45-2.53C166.68,116.92,175.67,110.38,175.67,110.38z"/>
	
		<linearGradient id="SVGID_00000082341306164891084310000005210387387052629140_" gradientUnits="userSpaceOnUse" x1="128.2458" y1="205.1414" x2="211.063" y2="205.1414" gradientTransform="matrix(-1 0 0 1 298.7815 0)">
		<stop  offset="0" style="stop-color:#FFC5B3"/>
		<stop  offset="0.3645" style="stop-color:#FBBBA8"/>
		<stop  offset="1" style="stop-color:#EFA08B"/>
	</linearGradient>
	<path style="fill:url(#SVGID_00000082341306164891084310000005210387387052629140_);" d="M169.25,177.94c0,0,3.22,12.01-0.54,22.5
		c-1.83,5.09-3.59,8.43-5.08,12.4c-2,5.33-6.54,8.27-15.8,11.5c-10.78,3.77-48.43,26.9-48.43,26.9l-11.68,1.05l2.78-5.5
		c0,0,11.69-21.91,24.82-33.77c11.77-10.63,20.3-10.09,20.66-13.08c1.58-13.08-1.97-41.96-1.97-41.96L169.25,177.94z"/>
	
		<linearGradient id="SVGID_00000046316246768255081200000011663052068272407455_" gradientUnits="userSpaceOnUse" x1="107.0713" y1="105.6396" x2="165.8514" y2="105.6396" gradientTransform="matrix(-1 0 0 1 298.7815 0)">
		<stop  offset="0" style="stop-color:#FFC5B3"/>
		<stop  offset="0.3645" style="stop-color:#FBBBA8"/>
		<stop  offset="1" style="stop-color:#EFA08B"/>
	</linearGradient>
	<path style="fill:url(#SVGID_00000046316246768255081200000011663052068272407455_);" d="M181.07,101.86
		c0,0,10.64,12.01,10.64,26.76c0,15.81-10.57,22.73-10.57,22.73l-21.64-12.59l-26.57,7.46c0,0,0.57-9.99,5.2-22.38
		c2.75-7.37,9.13-26.55,9.13-26.55s-6.93-21.02-6.5-27.26c0.43-6.23,12.77-13.69,21.19-8.13
		C170.38,67.44,181.07,101.86,181.07,101.86z"/>
	<g>
		
			<linearGradient id="SVGID_00000036220981351837010990000014871839064891561123_" gradientUnits="userSpaceOnUse" x1="109.8775" y1="48.8403" x2="152.2926" y2="48.8403" gradientTransform="matrix(-1 0 0 1 298.7815 0)">
			<stop  offset="0" style="stop-color:#FFC5B3"/>
			<stop  offset="0.3645" style="stop-color:#FBBBA8"/>
			<stop  offset="1" style="stop-color:#EFA08B"/>
		</linearGradient>
		<path style="fill:url(#SVGID_00000036220981351837010990000014871839064891561123_);" d="M175.81,81l-29.32-11.89
			c0,0,9.44-11.95,10.28-16.14c0.9-4.51,0.6-9.32,0.3-12.47c-2.02-1.35-5.6-1.03-6.22-9c-0.93-11.91,14.12-15.99,24.75-14.55
			c4.29,0.58,5.54,0.24,7.23,4.41c1.69,4.19-0.17,4.27,0.3,10.32c0.13,1.68,2.7,3.76,3.97,5.17c0.95,1.05,1.97,1.49,1.79,1.96
			c-0.78,2.09-2.13,1.53-3.08,2.57c-0.35,0.39-1.14,1.19-0.4,2.34c0.51,0.78-0.59,1.46-0.65,1.85c-0.18,1.2-0.55,0.75-0.79,1.77
			c-0.4,1.66,1.54,3.72,0,5.41c-1.06,1.16-4.68,2.76-8.44,4.62c-2.83,1.4-5.79,3.55-4.09,12.19C172.25,73.67,175.81,81,175.81,81z"
			/>
		
			<linearGradient id="SVGID_00000062909041467153416340000016069627693586311045_" gradientUnits="userSpaceOnUse" x1="127.9888" y1="50.1629" x2="137.1837" y2="50.1629" gradientTransform="matrix(-1 0 0 1 298.7815 0)">
			<stop  offset="0" style="stop-color:#EFA08B"/>
			<stop  offset="0.6405" style="stop-color:#E48C78"/>
			<stop  offset="0.9948" style="stop-color:#DD7F6C"/>
		</linearGradient>
		<path style="fill:url(#SVGID_00000062909041467153416340000016069627693586311045_);" d="M170.79,54.64c0,0-1.25,1.7-5.88-2.33
			c-2.96-2.58-3.31-6.99-3.31-6.99s1.56,2.76,5.22,6.27C168.32,53.04,170.79,54.64,170.79,54.64z"/>
		
			<linearGradient id="SVGID_00000152943748710744686150000005755560481132371857_" gradientUnits="userSpaceOnUse" x1="145.3304" y1="14.0161" x2="164.7793" y2="14.0161" gradientTransform="matrix(-1 0 0 1 298.7815 0)">
			<stop  offset="0" style="stop-color:#7B2B08"/>
			<stop  offset="1" style="stop-color:#682007"/>
		</linearGradient>
		<path style="fill:url(#SVGID_00000152943748710744686150000005755560481132371857_);" d="M135.34,17.46
			c0.38-4.74,3.78-3.77,6.13-10.01c2.58-6.86,10.24-7.16,11.45-1.49c1.21,5.67,0,10.72,0,10.72l-7.17,8.07c0,0-1.05,0.09-2.48,0
			c-1.14,0.56-2.61,1.19-3.68,1.3c-1.99,0.2-5.37-2.75-5.57-4.55C133.88,20.25,134.76,18.47,135.34,17.46z M138.49,24.6
			c0.76,0.11,1.55-0.01,2.29-0.2c-2.62-0.58-5.32-2-5.47-5.36c-0.01-0.26-0.01-0.48-0.01-0.71c-0.16,0.7-0.28,1.52-0.2,2.25
			C135.31,22.26,136,24.26,138.49,24.6z"/>
		
			<linearGradient id="SVGID_00000005969326968646149790000017769443674348065700_" gradientUnits="userSpaceOnUse" x1="144.7537" y1="6.5025" x2="159.6267" y2="6.5025" gradientTransform="matrix(-1 0 0 1 298.7815 0)">
			<stop  offset="0" style="stop-color:#B24E2B"/>
			<stop  offset="1" style="stop-color:#A34123"/>
		</linearGradient>
		<path style="fill:url(#SVGID_00000005969326968646149790000017769443674348065700_);" d="M139.18,6.76
			c0.2-1.88,1.49-4.78,5.1-4.38c0.35,0.04,0.67,0.13,0.99,0.23c0.67-0.76,2.65-2.53,5.53-1.03c2.29,1.19,2.8,3.63,3.1,4.8
			s0,4.8,0,4.8l-1.37,0.82c0,0,0.39-7.02-2.66-8.43c-1.9-0.88-3.32-0.9-4.12-0.8c2.67,1.09,4.12,3.99,4.12,3.99
			c-1.62-2.35-4.91-3.39-5.88-3.49c-0.97-0.1-2.6,0.79-3.5,2.39c-0.89,1.59,0.12,3.71,0.12,3.71l-0.77,1.24
			C139.83,10.61,138.99,8.64,139.18,6.76z"/>
		<path class="st7" d="M154.56,12.33c0,0,0.26-2.57-3.76,0c-5.44,3.47-6.52,9.74-5.06,12.42c1.46,2.68,3.33,2.08,3.33,2.08
			L154.56,12.33z"/>
		<path class="st7" d="M184.84,42.82c0,0,1.16-0.2,0.88,0.95c-0.21,0.89-0.75,1.24-0.75,1.24s0.92,0.54,0.81,1.24
			c-0.18,1.15-1.63,0.83-1.63,0.83s-2.07-0.62-3.9-2.51C182.57,44.38,184.84,42.82,184.84,42.82z"/>
		<path class="st8" d="M180.37,30.47c0,0,0.11,1.08,0.07,1.75c-0.04,0.67-0.13,1.79-1.77,1.75c-1.64-0.04-3.14-1.06-3.14-1.06
			L180.37,30.47z"/>
		<path class="st9" d="M180.41,30.78c0,0,0.48,2.5-0.56,2.89c-1.43,0.54-1.31-2.29-1.31-2.29L180.41,30.78z"/>
		<path class="st10" d="M179.2,32.52c0,0.46,0.24,0.83,0.54,0.83c0.3,0,0.54-0.37,0.54-0.83c0-0.46-0.24-0.83-0.54-0.83
			C179.45,31.69,179.2,32.06,179.2,32.52z"/>
		<ellipse class="st8" cx="179.87" cy="31.69" rx="0.34" ry="0.53"/>
		<path class="st10" d="M180.01,23.83c1.23,0.07,2.34,0.54,1.62,1.03c-1.1,0.75-2.29-0.09-4.16,0.95c-1.3,0.73-4.2,4.03-4.2,4.03
			S174.87,23.55,180.01,23.83z"/>
		<path class="st10" d="M175.53,32.91c0,0,2.19-1.18,3.02-1.75c1.24-0.85,2.31-1.75,2.31-1.75s0.28,0.78,1.28,1.12
			c0.77,0.26,1.83,0.19,1.83,0.19s-1.83,0.48-3.02,0.28c0.19,0.5,0.62,0.87,0.99,1.1c-1.4,0.09-2.04-0.56-2.29-0.91
			c-0.68,0.48-1.49,0.93-2.14,1.17C175.97,32.91,175.53,32.91,175.53,32.91z"/>
		
			<linearGradient id="SVGID_00000148648759332469463310000012298882773528157587_" gradientUnits="userSpaceOnUse" x1="135.7446" y1="9.3681" x2="135.7446" y2="48.8991" gradientTransform="matrix(-1 0 0 1 298.7815 0)">
			<stop  offset="0" style="stop-color:#7B2B08"/>
			<stop  offset="1" style="stop-color:#682007"/>
		</linearGradient>
		<path style="fill:url(#SVGID_00000148648759332469463310000012298882773528157587_);" d="M145.15,29.83
			c0.89-2.95,2.04-6.53,2.25-7.28c4.21-15.11,19.66-13.77,24.53-12.42c10.37,2.86,9.09,8.25,9.09,8.25s-4.64,0.55-9.09-0.64
			c-2.09,1.78-1.31,4.97-1.83,7c-0.6,2.34-3.33,5.09-3.03,7.78c-1.64-1.74-4.24-1.67-5.52,1.84c-0.97,2.66,0.35,3.93,1.37,5.91
			c-0.57,4.7-5.63,8.57-5.63,8.57s-5.58,1.32-9.95-8.57C145.87,36.96,144.55,31.81,145.15,29.83z M146.76,36.67
			c0.3,1.81,1.56,3.49,2.84,4.8c-0.86-4.08-2.75-8.74-2.81-13.84C145.35,31.14,146.45,34.85,146.76,36.67z"/>
		<path class="st12" d="M186.97,39.58c0,0-1.04,0.15-1.57,0.67c-0.52,0.52-0.11,0.97,0.5,0.52
			C186.52,40.33,186.97,39.58,186.97,39.58z"/>
		
			<linearGradient id="SVGID_00000115499110483889805280000012940505103023409580_" gradientUnits="userSpaceOnUse" x1="117.6461" y1="29.3674" x2="122.3981" y2="29.3674" gradientTransform="matrix(-1 0 0 1 298.7815 0)">
			<stop  offset="0" style="stop-color:#EFA08B"/>
			<stop  offset="0.156" style="stop-color:#EB9984"/>
			<stop  offset="0.6493" style="stop-color:#E18672"/>
			<stop  offset="0.9948" style="stop-color:#DD7F6C"/>
		</linearGradient>
		<path style="fill:url(#SVGID_00000115499110483889805280000012940505103023409580_);" d="M181.14,27.58v0.89
			c0,0-1.33,0.89-2.59,1.71c-1.26,0.82-2.16,0.97-2.16,0.97S177.99,29.22,181.14,27.58z"/>
		
			<linearGradient id="SVGID_00000111909888228985068240000012367531494697312405_" gradientUnits="userSpaceOnUse" x1="133.2235" y1="40.2899" x2="133.2235" y2="33.9269" gradientTransform="matrix(-1 0 0 1 298.7815 0)">
			<stop  offset="0" style="stop-color:#EFA08B"/>
			<stop  offset="0.2778" style="stop-color:#E7917D"/>
			<stop  offset="0.6579" style="stop-color:#E08470"/>
			<stop  offset="0.9948" style="stop-color:#DD7F6C"/>
		</linearGradient>
		<path style="fill:url(#SVGID_00000111909888228985068240000012367531494697312405_);" d="M163.31,35.7c0,0,0.48-2.12,2.27-1.73
			c1.79,0.39,2.24,3.07,2.24,3.07s-1.57-0.22-1.49,1.04s0.82,1.49,0.82,1.49s-0.52,0.85-1.27,0.69c-0.75-0.17-1.49-1.21-0.97-2.18
			c0.52-0.97,0.97-1.67,0.65-2.09C164.68,34.86,163.31,35.7,163.31,35.7z"/>
		
			<linearGradient id="SVGID_00000152945147638275909540000006044492931389057462_" gradientUnits="userSpaceOnUse" x1="130.3938" y1="24.5998" x2="147.9813" y2="24.5998" gradientTransform="matrix(-1 0 0 1 298.7815 0)">
			<stop  offset="0" style="stop-color:#B24E2B"/>
			<stop  offset="0.3843" style="stop-color:#AA4727"/>
			<stop  offset="1" style="stop-color:#A34123"/>
		</linearGradient>
		<path style="fill:url(#SVGID_00000152945147638275909540000006044492931389057462_);" d="M168.39,28.25
			c-2.62-1.65-6.6-0.32-11.62-3.46c-1.48-0.93-5.97-8.11-5.97-8.11s1.19,7.66,3.77,10.15c3.11,3.01,5.92,4.61,8.25,5.43
			c2.74-1.65,4.25,0.26,4.25,0.26S167.41,29.83,168.39,28.25z"/>
		
			<linearGradient id="SVGID_00000151528873769011845010000003194766503390957203_" gradientUnits="userSpaceOnUse" x1="118.4906" y1="14.1237" x2="145.6868" y2="14.1237" gradientTransform="matrix(-1 0 0 1 298.7815 0)">
			<stop  offset="0" style="stop-color:#B24E2B"/>
			<stop  offset="0.3843" style="stop-color:#AA4727"/>
			<stop  offset="1" style="stop-color:#A34123"/>
		</linearGradient>
		<path style="fill:url(#SVGID_00000151528873769011845010000003194766503390957203_);" d="M153.88,12.37
			c0.61-1,1.84-2.79,3.35-3.88c2.16-1.57,3.59-2.01,6.08-1.57c2.49,0.45,9.47,3,9.47,3l-0.01,0c6.38,1.85,7.52,5.28,7.52,5.28
			s-2.87-3.18-11.9-4.78c-5.76-1.02-10.16,0.01-11.98,1.34c2.01,0.44,4.98,0.48,8.87,1.61c3.86,1.12,6.66,4.35,6.66,4.35
			s-1.07,0.97-1.54,3.74c-2.01-2.03-3.1-5.09-6.44-6.33c-6.06-2.26-10.86-1.77-10.86-1.77S153.32,12.96,153.88,12.37z M167.22,8.94
			c0.31,0.03,0.58,0.07,0.88,0.1c-1.54-0.52-3.42-1.14-4.79-1.52c-2.73-0.75-5.74,1.06-6.95,3.02c0,0-0.01,0.01-0.01,0.01
			C158.5,9.42,161.91,8.48,167.22,8.94z"/>
		
			<linearGradient id="SVGID_00000085211816518685760250000012086715990605410205_" gradientUnits="userSpaceOnUse" x1="149.9841" y1="13.3326" x2="163.6744" y2="13.3326" gradientTransform="matrix(-1 0 0 1 298.7815 0)">
			<stop  offset="0" style="stop-color:#B24E2B"/>
			<stop  offset="1" style="stop-color:#A34123"/>
		</linearGradient>
		<path style="fill:url(#SVGID_00000085211816518685760250000012086715990605410205_);" d="M148.8,13.91c0,0-0.56-2.67-4.52-3.98
			c-3.95-1.31-6.79-0.48-8.28,1.25c-1.49,1.73-0.67,6.19-0.67,6.19l0.57-2.22c0,0-0.8-2.92,2.09-3.97c2.88-1.05,5.95,0.04,7,0.64
			c1.05,0.6,3.28,2.61,3.28,2.61L148.8,13.91z"/>
	</g>
	
		<linearGradient id="SVGID_00000103965497088347154810000012814540794283535257_" gradientUnits="userSpaceOnUse" x1="133.6598" y1="127.105" x2="133.6598" y2="101.5593" gradientTransform="matrix(-1 0 0 1 298.7815 0)">
		<stop  offset="0" style="stop-color:#EFA08B"/>
		<stop  offset="0.6405" style="stop-color:#E48C78"/>
		<stop  offset="0.9948" style="stop-color:#DD7F6C"/>
	</linearGradient>
	<path style="fill:url(#SVGID_00000103965497088347154810000012814540794283535257_);" d="M145.33,112.6
		c0.5-3.62,1.96-8.64,1.33-9.77l38.5,1c0,5.08-0.06,3.93,0.93,13.03c0.87,8.05,0.12,10.25,0.12,10.25s-13.04-1.29-23.7-3.39
		c-9.03-1.78-18.78-0.94-18.78-0.94S144.51,118.58,145.33,112.6z"/>
	
		<linearGradient id="SVGID_00000046327733378639723250000002698598985773308594_" gradientUnits="userSpaceOnUse" x1="134.502" y1="59.3927" x2="134.502" y2="141.6527" gradientTransform="matrix(-1 0 0 1 298.7815 0)">
		<stop  offset="0" style="stop-color:#F97CA9"/>
		<stop  offset="0.282" style="stop-color:#F778A7"/>
		<stop  offset="0.5726" style="stop-color:#F06BA2"/>
		<stop  offset="0.8663" style="stop-color:#E45799"/>
		<stop  offset="1" style="stop-color:#DD4B94"/>
	</linearGradient>
	<path style="fill:url(#SVGID_00000046327733378639723250000002698598985773308594_);" d="M159.07,87.44
		c1.05-0.67,2.03-1.76,2.87-3.1c2.65-4.24,3.87-11.12,0.96-16.29c-3.83-6.82-13.25-7.05-13.25-7.05s6.74-4.61,14.24,1.78
		c3.72,3.17,10.68,12.35,18.71,19.72c7.63,7.01,5.26,11.36,3.47,16.73c-1.2,3.59,12.98,24.59,2.84,42.42
		c-4.94-4.2-14.34-9.76-19.65-10.82c-7.83-1.56-17.5-2.81-33.27,0.71c1.83-9.43,5.76-15.13,7.56-20.83
		c2.09-6.63,1.47-20.45,1.47-20.45S152.47,91.69,159.07,87.44z"/>
	<path class="st20" d="M187.35,95.34c0,0-2.4,3.91-5.5,5.15c-3.1,1.24-4.21,4.58-1.41,6.68c2.8,2.1,5.34,1.92,5.34,1.92
		s-1.74-3.85-0.62-7.17C186.07,99.23,187.35,95.34,187.35,95.34z"/>
	
		<linearGradient id="SVGID_00000159440393601960307650000007074667512510586763_" gradientUnits="userSpaceOnUse" x1="118.8572" y1="156.9891" x2="118.8572" y2="286.0735" gradientTransform="matrix(-1 0 0 1 298.7815 0)">
		<stop  offset="0" style="stop-color:#FFC5B3"/>
		<stop  offset="0.3645" style="stop-color:#FBBBA8"/>
		<stop  offset="1" style="stop-color:#EFA08B"/>
	</linearGradient>
	<path style="fill:url(#SVGID_00000159440393601960307650000007074667512510586763_);" d="M178.65,156.99
		c0,0,17.87,9.19,25.82,21.81c7.73,12.26,8.47,10.78,10.74,19.38c0.92,3.48-0.76,12.15-5.37,20.78c-3.16,5.91-9.6,15.87-11.61,21.32
		c-8.09,21.88-14.76,40.48-14.76,40.48l-11.86,5.32c0,0,0.99-28.04,1.23-34.71c0.48-13.11,2.7-24.26,4.37-29.83
		c2.71-9.04,8.25-12.99,8.25-12.99s-14.98-6.57-25.87-15.18c-7.68-6.08-15.2-18.17-15.2-18.17L178.65,156.99z"/>
	<path class="st22" d="M135.98,199.95c-1.98-4.26-4.16-17.95-4.42-21.15c-1.72-20.68-0.31-27.14,2.62-34.9
		c8.5,4.67,31.18,24.5,36.66,37.42c2.83,6.67-2.16,21.06-3.95,24.22C157.79,208.72,142.83,202.85,135.98,199.95z"/>
	
		<linearGradient id="SVGID_00000165195304036597450890000015350183282908727457_" gradientUnits="userSpaceOnUse" x1="126.0839" y1="131.5446" x2="126.0839" y2="208.5406" gradientTransform="matrix(-1 0 0 1 298.7815 0)">
		<stop  offset="0" style="stop-color:#933A7C"/>
		<stop  offset="1" style="stop-color:#7F2E66"/>
	</linearGradient>
	<path style="fill:url(#SVGID_00000165195304036597450890000015350183282908727457_);" d="M183.02,148.7
		c-3.41-4.16-11.79-11.03-19.99-14.36c-13.17-5.36-27.92-1.35-27.92-1.35s-3.88,16.24-2.25,28.02c0.94,6.82,2.56,13.86,10.87,21.75
		c15.62,14.82,41.73,25.79,41.73,25.79s1.91-3.28,14.18-12.77c5.51-4.26,13.3-4.57,13.3-4.57s-10.56-17.33-13.48-21.18
		C194.23,163.12,186.34,152.76,183.02,148.7z"/>
	
		<linearGradient id="SVGID_00000098938771295257502090000000493692845394557851_" gradientUnits="userSpaceOnUse" x1="104.7939" y1="90.8754" x2="175.6541" y2="90.8754" gradientTransform="matrix(-1 0 0 1 298.7815 0)">
		<stop  offset="0" style="stop-color:#FFC5B3"/>
		<stop  offset="0.3645" style="stop-color:#FBBBA8"/>
		<stop  offset="1" style="stop-color:#EFA08B"/>
	</linearGradient>
	<path style="fill:url(#SVGID_00000098938771295257502090000000493692845394557851_);" d="M162.7,82.99c0,0-14.92,6.5-17.68,7.28
		c-2.78,1.87-4.27,6.84-4.27,6.84s5.28,3.15,9.12,4.82c6.17,2.69,12.14,7.04,18.85,7.53c4.37,0.32,7.19-1.1,11.51-4.18
		c3.09-2.2,6.13-2.45,8.69-0.61c3.72,2.67,5.95,3.95,4.76,6.37c0.67,1.48,0,4.43-1.37,4.43c1.01,2.45-1.06,2.5-1.61,3.84
		c-1.03,2.49-6.34-0.32-9.55,0.76c-5.72,1.92-6.79,0.76-12,1.14c-8.84,0.64-29.18-4.97-36.21-8.6c-3.95-2.04-6.43-3.5-8.75-6.43
		c-1.86-2.35-1.03-5.48,0.8-10.66c1.92-5.46,3.37-14.76,9.03-23.69c6.16-9.72,11.78-11.48,17.17-11.29
		C160.01,60.83,168.49,72.47,162.7,82.99z"/>
	
		<linearGradient id="SVGID_00000152957962366986572700000015976369684638987686_" gradientUnits="userSpaceOnUse" x1="136.8333" y1="86.592" x2="153.7672" y2="86.592" gradientTransform="matrix(-1 0 0 1 298.7815 0)">
		<stop  offset="0" style="stop-color:#EFA08B"/>
		<stop  offset="0.6405" style="stop-color:#E48C78"/>
		<stop  offset="0.9948" style="stop-color:#DD7F6C"/>
	</linearGradient>
	<path style="fill:url(#SVGID_00000152957962366986572700000015976369684638987686_);" d="M153.06,83.27
		c-4.05,1.92-8.04,6.99-8.04,6.99s8.58,1.25,12.62-1.46c3.25-2.17,4.31-4.47,4.31-4.47S157.1,81.35,153.06,83.27z"/>
	
		<linearGradient id="SVGID_00000100371100104804944120000007616846717669770892_" gradientUnits="userSpaceOnUse" x1="170.6052" y1="102.8235" x2="173.9669" y2="102.8235" gradientTransform="matrix(-1 0 0 1 298.7815 0)">
		<stop  offset="0" style="stop-color:#EFA08B"/>
		<stop  offset="0.0862" style="stop-color:#ED9C87"/>
		<stop  offset="0.6354" style="stop-color:#E18773"/>
		<stop  offset="0.9948" style="stop-color:#DD7F6C"/>
	</linearGradient>
	<path style="fill:url(#SVGID_00000100371100104804944120000007616846717669770892_);" d="M126.26,100.49c0,0,1.28,3.87,1.92,4.67
		c-1.01-0.05-3.51-0.68-3.35-2.73C124.98,100.37,126.26,100.49,126.26,100.49z"/>
	<path class="st12" d="M204.12,200.47c-0.07-0.15,3.09,0.21,4.32,4.05c0.72,2.26-2.17,4.02-2.17,4.02L204.12,200.47z"/>
	<g>
		
			<linearGradient id="SVGID_00000117656947086130744030000003065370897833163150_" gradientUnits="userSpaceOnUse" x1="86.6668" y1="283.6768" x2="131.3231" y2="283.6768" gradientTransform="matrix(-1 0 0 1 298.7815 0)">
			<stop  offset="0" style="stop-color:#F97CA9"/>
			<stop  offset="0.282" style="stop-color:#F778A7"/>
			<stop  offset="0.5726" style="stop-color:#F06BA2"/>
			<stop  offset="0.8663" style="stop-color:#E45799"/>
			<stop  offset="1" style="stop-color:#DD4B94"/>
		</linearGradient>
		<path style="fill:url(#SVGID_00000117656947086130744030000003065370897833163150_);" d="M171.4,276.52
			c1.43,0.18,1.43,3.58,3.04,4.3c1.61,0.72,4.83-3.22,6.8-4.3c0.19-0.1,0.44-0.18,0.69-0.25l-0.11-0.22c0,0,0.36-1.97,2.15-4.14
			c1.79-2.17,5.01-3.4,5.01-3.4c2.19-1.17,1.16,4.73,0.46,7.95c2.18,1.38,9.46,5.9,12.36,6.51c3.42,0.72,7.3-0.59,7.3-0.59
			s1.53,1.99,2.51,3.76c1.43,2.58-0.48,3.81-2.81,5.24c-2.33,1.43-7.16,5.01-13.42,5.91c-6.26,0.9-9.72-1.79-11.04-1.25
			c-1.31,0.54-2.35,2.86-2.35,2.86s-4.2,0.24-8.81,0c-3.14-0.16-5.91-4.68-5.73-5.56C167.65,292.45,169.97,276.34,171.4,276.52z"/>
		<path class="st20" d="M211.62,286.13c0,0-7.72,6.33-15.86,6.86c-8.14,0.54-12.84-2.1-16.02,0.05c-3.19,2.15-10.89-0.87-10.89-0.87
			s5.97,1.8,10.12-0.29c4.74-2.38,11.28,0.03,17.09-0.36c3.97-0.27,15.03-6.29,15.03-6.29L211.62,286.13z"/>
		<path class="st8" d="M199.64,282.2c0,0-1.71,1.14-4.48,3.04c-2.77,1.9-4.23,2.28-4.23,2.28s1.9-2.28,4.23-4.14
			c0.69-0.55,3-1.89,3-1.89L199.64,282.2z"/>
		<path class="st8" d="M195.29,279.94c0,0-3.27,2.18-4.36,2.91c-1.17,0.78-3.75,3.13-3.75,3.13s1.96-3.45,3.05-4.48
			c0.76-0.72,3.84-2.27,3.84-2.27L195.29,279.94z"/>
		<path class="st8" d="M191.71,277.88c0,0-3.27,2.18-4.36,2.91c-1.18,0.78-3.74,3.13-3.74,3.13s1.94-3.45,3.04-4.48
			c0.76-0.72,3.84-2.27,3.84-2.27L191.71,277.88z"/>
	</g>
	<g>
		
			<linearGradient id="SVGID_00000113344134982351837650000012245070102841295508_" gradientUnits="userSpaceOnUse" x1="183.4617" y1="259.5831" x2="220.6133" y2="259.5831" gradientTransform="matrix(-1 0 0 1 298.7815 0)">
			<stop  offset="0" style="stop-color:#F97CA9"/>
			<stop  offset="0.282" style="stop-color:#F778A7"/>
			<stop  offset="0.5726" style="stop-color:#F06BA2"/>
			<stop  offset="0.8663" style="stop-color:#E45799"/>
			<stop  offset="1" style="stop-color:#DD4B94"/>
		</linearGradient>
		<path style="fill:url(#SVGID_00000113344134982351837650000012245070102841295508_);" d="M79.48,248.59
			c0.78-0.45,14.37-9.4,15.19-8.21c0.82,1.19-1.73,3.45-1.19,5.13c0.53,1.68,5.62,1.48,7.73,2.24c0.2,0.07,0.43,0.21,0.65,0.35
			l0.1-0.23c0,0,1.71-1.04,4.52-1.14c2.81-0.1,5.87,1.49,5.87,1.49c2.33,0.86-2.77,4.01-5.64,5.62c0.41,2.55,1.87,11,3.33,13.56
			c1.73,3.03,5.29,5.07,5.29,5.07s-0.48,2.46-1.15,4.37c-0.98,2.78-3.17,2.17-5.79,1.38c-2.62-0.79-8.5-2.03-13.33-6.12
			c-4.83-4.09-5.11-8.46-6.39-9.09c-1.27-0.63-3.7,0.14-3.7,0.14s-2.97-2.98-5.85-6.59C77.16,254.11,78.71,249.04,79.48,248.59z"/>
		<path class="st20" d="M114.17,276.85c0,0-9.86-1.58-15.66-7.31c-5.81-5.74-6.95-10.99-10.67-11.95c-3.72-0.96-6.57-8.72-6.57-8.72
			s2.61,5.66,6.93,7.38c4.93,1.97,7.46,8.46,11.61,12.55c2.83,2.79,14.68,7.07,14.68,7.07L114.17,276.85z"/>
		<path class="st8" d="M109.17,265.28c0,0-1.99-0.52-5.25-1.34c-3.26-0.81-4.51-1.65-4.51-1.65s2.97-0.09,5.9,0.41
			c0.87,0.15,3.41,1,3.41,1L109.17,265.28z"/>
		<path class="st8" d="M107.97,260.52c0,0-3.8-1-5.07-1.33c-1.37-0.36-4.83-0.73-4.83-0.73s3.88-0.82,5.38-0.69
			c1.04,0.09,4.25,1.37,4.25,1.37L107.97,260.52z"/>
		<path class="st8" d="M107.13,256.47c0,0-3.8-1-5.07-1.33c-1.37-0.36-4.82-0.72-4.82-0.72s3.87-0.84,5.37-0.7
			c1.04,0.09,4.25,1.37,4.25,1.37L107.13,256.47z"/>
	</g>
</g>
</svg>
